G04 EAGLE Gerber RS-274X export*
G75*
%MOMM*%
%FSLAX34Y34*%
%LPD*%
%INTop Copper*%
%IPPOS*%
%AMOC8*
5,1,8,0,0,1.08239X$1,22.5*%
G01*
%ADD10C,2.540000*%
%ADD11R,1.950000X1.950000*%
%ADD12C,1.320800*%
%ADD13R,1.778000X1.778000*%
%ADD14C,1.778000*%
%ADD15R,2.032000X2.032000*%
%ADD16C,2.032000*%
%ADD17P,1.814519X8X112.500000*%
%ADD18R,2.413000X2.413000*%
%ADD19C,2.413000*%
%ADD20P,1.814519X8X202.500000*%
%ADD21P,1.814519X8X292.500000*%
%ADD22P,1.814519X8X22.500000*%
%ADD23C,0.152400*%
%ADD24C,0.756400*%

G36*
X174012Y10169D02*
X174012Y10169D01*
X174061Y10167D01*
X174133Y10188D01*
X174206Y10200D01*
X174250Y10223D01*
X174297Y10237D01*
X174358Y10281D01*
X174424Y10316D01*
X174458Y10351D01*
X174498Y10379D01*
X174542Y10440D01*
X174593Y10494D01*
X174614Y10538D01*
X174643Y10578D01*
X174665Y10649D01*
X174697Y10717D01*
X174702Y10766D01*
X174717Y10812D01*
X174716Y10887D01*
X174724Y10961D01*
X174714Y11009D01*
X174713Y11058D01*
X174688Y11129D01*
X174672Y11202D01*
X174647Y11244D01*
X174630Y11290D01*
X174584Y11349D01*
X174546Y11413D01*
X174508Y11445D01*
X174478Y11483D01*
X174415Y11524D01*
X174359Y11573D01*
X174313Y11591D01*
X174272Y11618D01*
X174153Y11656D01*
X174130Y11665D01*
X174121Y11666D01*
X174112Y11669D01*
X172433Y12003D01*
X170768Y12692D01*
X169270Y13693D01*
X167997Y14966D01*
X166996Y16464D01*
X166307Y18129D01*
X165955Y19895D01*
X165955Y25877D01*
X174338Y25877D01*
X174358Y25880D01*
X174377Y25878D01*
X174479Y25900D01*
X174581Y25917D01*
X174598Y25926D01*
X174618Y25930D01*
X174707Y25983D01*
X174798Y26032D01*
X174812Y26046D01*
X174829Y26056D01*
X174896Y26135D01*
X174967Y26210D01*
X174976Y26228D01*
X174989Y26243D01*
X175027Y26339D01*
X175071Y26433D01*
X175073Y26453D01*
X175081Y26471D01*
X175099Y26638D01*
X175099Y27401D01*
X175101Y27401D01*
X175101Y26638D01*
X175104Y26618D01*
X175102Y26599D01*
X175124Y26497D01*
X175141Y26395D01*
X175150Y26378D01*
X175154Y26358D01*
X175207Y26269D01*
X175256Y26178D01*
X175270Y26164D01*
X175280Y26147D01*
X175359Y26080D01*
X175434Y26009D01*
X175452Y26000D01*
X175467Y25987D01*
X175563Y25948D01*
X175657Y25905D01*
X175677Y25903D01*
X175695Y25895D01*
X175862Y25877D01*
X184245Y25877D01*
X184245Y19895D01*
X183893Y18129D01*
X183204Y16464D01*
X182203Y14966D01*
X180930Y13693D01*
X179432Y12692D01*
X177767Y12003D01*
X176088Y11669D01*
X176042Y11651D01*
X175994Y11643D01*
X175928Y11609D01*
X175857Y11582D01*
X175819Y11551D01*
X175776Y11528D01*
X175725Y11474D01*
X175667Y11427D01*
X175641Y11386D01*
X175607Y11350D01*
X175575Y11282D01*
X175535Y11219D01*
X175524Y11171D01*
X175503Y11127D01*
X175495Y11053D01*
X175477Y10980D01*
X175481Y10931D01*
X175476Y10883D01*
X175492Y10809D01*
X175498Y10735D01*
X175518Y10690D01*
X175528Y10642D01*
X175567Y10578D01*
X175596Y10509D01*
X175629Y10473D01*
X175654Y10431D01*
X175711Y10382D01*
X175761Y10327D01*
X175804Y10303D01*
X175841Y10271D01*
X175911Y10243D01*
X175976Y10207D01*
X176024Y10198D01*
X176070Y10179D01*
X176194Y10165D01*
X176218Y10161D01*
X176227Y10162D01*
X176236Y10161D01*
X539071Y10161D01*
X539091Y10164D01*
X539111Y10162D01*
X539212Y10184D01*
X539314Y10200D01*
X539332Y10210D01*
X539351Y10214D01*
X539440Y10267D01*
X539531Y10316D01*
X539545Y10330D01*
X539563Y10341D01*
X539630Y10419D01*
X539701Y10494D01*
X539709Y10512D01*
X539722Y10528D01*
X539761Y10623D01*
X539804Y10717D01*
X539807Y10737D01*
X539814Y10756D01*
X539832Y10922D01*
X539442Y635500D01*
X539439Y635520D01*
X539441Y635539D01*
X539419Y635641D01*
X539402Y635743D01*
X539393Y635761D01*
X539389Y635780D01*
X539336Y635869D01*
X539287Y635961D01*
X539273Y635974D01*
X539263Y635991D01*
X539184Y636058D01*
X539109Y636130D01*
X539091Y636138D01*
X539076Y636151D01*
X538979Y636190D01*
X538886Y636233D01*
X538866Y636235D01*
X538848Y636243D01*
X538681Y636261D01*
X110998Y636261D01*
X110928Y636250D01*
X110856Y636248D01*
X110807Y636230D01*
X110756Y636222D01*
X110693Y636188D01*
X110625Y636163D01*
X110584Y636131D01*
X110538Y636106D01*
X110489Y636055D01*
X110433Y636010D01*
X110405Y635966D01*
X110369Y635928D01*
X110339Y635863D01*
X110300Y635803D01*
X110287Y635752D01*
X110265Y635705D01*
X110257Y635634D01*
X110240Y635564D01*
X110244Y635512D01*
X110238Y635461D01*
X110254Y635390D01*
X110259Y635319D01*
X110279Y635271D01*
X110291Y635220D01*
X110327Y635159D01*
X110355Y635093D01*
X110400Y635037D01*
X110417Y635009D01*
X110434Y634994D01*
X110460Y634962D01*
X165170Y580252D01*
X165244Y580199D01*
X165314Y580139D01*
X165344Y580127D01*
X165370Y580108D01*
X165457Y580081D01*
X165542Y580047D01*
X165583Y580043D01*
X165605Y580036D01*
X165637Y580037D01*
X165709Y580029D01*
X181521Y580029D01*
X184509Y578791D01*
X186795Y576505D01*
X188033Y573517D01*
X188033Y570283D01*
X186795Y567295D01*
X184509Y565009D01*
X181521Y563771D01*
X165079Y563771D01*
X162091Y565009D01*
X159805Y567295D01*
X158567Y570283D01*
X158567Y573517D01*
X159805Y576505D01*
X160589Y577289D01*
X160601Y577305D01*
X160616Y577317D01*
X160672Y577404D01*
X160732Y577488D01*
X160738Y577507D01*
X160749Y577524D01*
X160774Y577625D01*
X160805Y577723D01*
X160804Y577743D01*
X160809Y577763D01*
X160801Y577866D01*
X160798Y577969D01*
X160792Y577988D01*
X160790Y578008D01*
X160750Y578103D01*
X160714Y578200D01*
X160701Y578216D01*
X160694Y578234D01*
X160589Y578365D01*
X102916Y636038D01*
X102842Y636091D01*
X102772Y636151D01*
X102742Y636163D01*
X102716Y636182D01*
X102629Y636209D01*
X102544Y636243D01*
X102503Y636247D01*
X102481Y636254D01*
X102449Y636253D01*
X102378Y636261D01*
X10525Y636261D01*
X10505Y636258D01*
X10485Y636260D01*
X10384Y636238D01*
X10282Y636222D01*
X10264Y636212D01*
X10245Y636208D01*
X10156Y636155D01*
X10065Y636106D01*
X10051Y636092D01*
X10034Y636081D01*
X9966Y636003D01*
X9895Y635928D01*
X9887Y635910D01*
X9874Y635894D01*
X9835Y635799D01*
X9792Y635705D01*
X9790Y635685D01*
X9782Y635666D01*
X9764Y635500D01*
X9831Y527197D01*
X9843Y527127D01*
X9845Y527055D01*
X9863Y527006D01*
X9871Y526955D01*
X9905Y526891D01*
X9929Y526824D01*
X9962Y526784D01*
X9986Y526737D01*
X10038Y526688D01*
X10083Y526632D01*
X10127Y526604D01*
X10165Y526568D01*
X10230Y526538D01*
X10290Y526499D01*
X10341Y526487D01*
X10388Y526465D01*
X10459Y526457D01*
X10528Y526439D01*
X10581Y526443D01*
X10633Y526438D01*
X10702Y526453D01*
X10774Y526458D01*
X10822Y526479D01*
X10873Y526490D01*
X10934Y526527D01*
X11000Y526555D01*
X11056Y526600D01*
X11084Y526616D01*
X11099Y526634D01*
X11131Y526660D01*
X14100Y529629D01*
X17928Y531215D01*
X22072Y531215D01*
X25900Y529629D01*
X28829Y526700D01*
X30415Y522872D01*
X30415Y518728D01*
X28829Y514900D01*
X25900Y511971D01*
X22072Y510385D01*
X17928Y510385D01*
X14100Y511971D01*
X11139Y514932D01*
X11080Y514974D01*
X11028Y515024D01*
X10981Y515046D01*
X10939Y515076D01*
X10870Y515097D01*
X10805Y515127D01*
X10754Y515133D01*
X10704Y515148D01*
X10632Y515147D01*
X10561Y515154D01*
X10510Y515143D01*
X10458Y515142D01*
X10391Y515117D01*
X10320Y515102D01*
X10276Y515075D01*
X10227Y515058D01*
X10171Y515013D01*
X10109Y514976D01*
X10076Y514936D01*
X10035Y514904D01*
X9996Y514843D01*
X9949Y514789D01*
X9930Y514741D01*
X9902Y514697D01*
X9885Y514627D01*
X9858Y514560D01*
X9850Y514490D01*
X9842Y514458D01*
X9844Y514435D01*
X9839Y514394D01*
X9847Y501813D01*
X9859Y501743D01*
X9861Y501671D01*
X9879Y501622D01*
X9887Y501570D01*
X9921Y501507D01*
X9945Y501440D01*
X9978Y501399D01*
X10002Y501353D01*
X10054Y501304D01*
X10099Y501248D01*
X10143Y501220D01*
X10181Y501184D01*
X10246Y501154D01*
X10306Y501115D01*
X10357Y501102D01*
X10404Y501080D01*
X10475Y501073D01*
X10544Y501055D01*
X10596Y501059D01*
X10648Y501053D01*
X10718Y501069D01*
X10789Y501074D01*
X10838Y501095D01*
X10889Y501106D01*
X10950Y501143D01*
X11016Y501171D01*
X11072Y501216D01*
X11100Y501232D01*
X11115Y501250D01*
X11147Y501275D01*
X14100Y504229D01*
X17928Y505815D01*
X22072Y505815D01*
X25900Y504229D01*
X28829Y501300D01*
X30415Y497472D01*
X30415Y493328D01*
X28829Y489500D01*
X25900Y486571D01*
X22072Y484985D01*
X17928Y484985D01*
X14100Y486571D01*
X11155Y489517D01*
X11096Y489559D01*
X11044Y489608D01*
X10997Y489630D01*
X10955Y489660D01*
X10886Y489681D01*
X10821Y489712D01*
X10769Y489717D01*
X10720Y489733D01*
X10648Y489731D01*
X10577Y489739D01*
X10526Y489727D01*
X10474Y489726D01*
X10406Y489701D01*
X10336Y489686D01*
X10292Y489660D01*
X10243Y489642D01*
X10187Y489597D01*
X10125Y489560D01*
X10091Y489520D01*
X10051Y489488D01*
X10012Y489428D01*
X9965Y489373D01*
X9946Y489325D01*
X9918Y489281D01*
X9900Y489211D01*
X9874Y489145D01*
X9866Y489074D01*
X9858Y489043D01*
X9860Y489019D01*
X9855Y488978D01*
X9863Y476429D01*
X9875Y476359D01*
X9876Y476287D01*
X9894Y476238D01*
X9903Y476186D01*
X9936Y476123D01*
X9961Y476056D01*
X9994Y476015D01*
X10018Y475969D01*
X10070Y475920D01*
X10115Y475864D01*
X10159Y475836D01*
X10197Y475800D01*
X10261Y475770D01*
X10322Y475731D01*
X10372Y475718D01*
X10420Y475696D01*
X10491Y475688D01*
X10560Y475671D01*
X10612Y475675D01*
X10664Y475669D01*
X10734Y475685D01*
X10805Y475690D01*
X10853Y475711D01*
X10905Y475722D01*
X10966Y475758D01*
X11032Y475786D01*
X11088Y475831D01*
X11116Y475848D01*
X11131Y475866D01*
X11163Y475891D01*
X14100Y478829D01*
X17928Y480415D01*
X22072Y480415D01*
X25900Y478829D01*
X28829Y475900D01*
X30415Y472072D01*
X30415Y467928D01*
X28829Y464100D01*
X25900Y461171D01*
X22072Y459585D01*
X17928Y459585D01*
X14100Y461171D01*
X11171Y464101D01*
X11112Y464143D01*
X11060Y464192D01*
X11013Y464214D01*
X10971Y464244D01*
X10902Y464265D01*
X10837Y464296D01*
X10785Y464301D01*
X10736Y464317D01*
X10664Y464315D01*
X10592Y464323D01*
X10542Y464312D01*
X10490Y464310D01*
X10422Y464286D01*
X10352Y464270D01*
X10308Y464244D01*
X10259Y464226D01*
X10203Y464181D01*
X10141Y464144D01*
X10107Y464105D01*
X10067Y464072D01*
X10028Y464012D01*
X9981Y463957D01*
X9962Y463909D01*
X9934Y463865D01*
X9916Y463795D01*
X9889Y463729D01*
X9882Y463658D01*
X9874Y463627D01*
X9876Y463603D01*
X9871Y463562D01*
X9879Y451045D01*
X9891Y450974D01*
X9892Y450903D01*
X9910Y450854D01*
X9919Y450802D01*
X9952Y450739D01*
X9977Y450672D01*
X10009Y450631D01*
X10034Y450585D01*
X10086Y450536D01*
X10131Y450480D01*
X10175Y450452D01*
X10212Y450416D01*
X10277Y450386D01*
X10337Y450347D01*
X10388Y450334D01*
X10436Y450312D01*
X10507Y450304D01*
X10576Y450287D01*
X10628Y450291D01*
X10680Y450285D01*
X10750Y450300D01*
X10821Y450306D01*
X10869Y450326D01*
X10920Y450338D01*
X10982Y450374D01*
X11048Y450402D01*
X11104Y450447D01*
X11131Y450464D01*
X11147Y450482D01*
X11178Y450507D01*
X14100Y453429D01*
X17928Y455015D01*
X22072Y455015D01*
X25900Y453429D01*
X28829Y450500D01*
X30415Y446672D01*
X30415Y442528D01*
X28829Y438700D01*
X25900Y435771D01*
X22072Y434185D01*
X17928Y434185D01*
X14100Y435771D01*
X11186Y438685D01*
X11128Y438727D01*
X11076Y438776D01*
X11029Y438798D01*
X10987Y438828D01*
X10918Y438850D01*
X10853Y438880D01*
X10801Y438885D01*
X10752Y438901D01*
X10680Y438899D01*
X10608Y438907D01*
X10558Y438896D01*
X10506Y438894D01*
X10438Y438870D01*
X10368Y438854D01*
X10324Y438828D01*
X10275Y438810D01*
X10219Y438765D01*
X10157Y438728D01*
X10123Y438689D01*
X10083Y438656D01*
X10044Y438596D01*
X9997Y438541D01*
X9978Y438493D01*
X9950Y438449D01*
X9932Y438380D01*
X9905Y438313D01*
X9898Y438242D01*
X9890Y438211D01*
X9891Y438187D01*
X9887Y438146D01*
X9895Y425661D01*
X9906Y425590D01*
X9908Y425519D01*
X9926Y425470D01*
X9935Y425418D01*
X9968Y425355D01*
X9993Y425288D01*
X10025Y425247D01*
X10050Y425201D01*
X10102Y425152D01*
X10146Y425096D01*
X10190Y425067D01*
X10228Y425031D01*
X10293Y425001D01*
X10353Y424963D01*
X10404Y424950D01*
X10451Y424928D01*
X10522Y424920D01*
X10592Y424903D01*
X10644Y424907D01*
X10696Y424901D01*
X10766Y424916D01*
X10837Y424922D01*
X10885Y424942D01*
X10936Y424953D01*
X10998Y424990D01*
X11063Y425018D01*
X11120Y425063D01*
X11147Y425080D01*
X11162Y425097D01*
X11194Y425123D01*
X14100Y428029D01*
X17928Y429615D01*
X22072Y429615D01*
X25900Y428029D01*
X28829Y425100D01*
X30415Y421272D01*
X30415Y417128D01*
X28829Y413300D01*
X25900Y410371D01*
X22072Y408785D01*
X17928Y408785D01*
X14100Y410371D01*
X11202Y413269D01*
X11144Y413311D01*
X11092Y413360D01*
X11045Y413382D01*
X11003Y413412D01*
X10934Y413434D01*
X10869Y413464D01*
X10817Y413470D01*
X10768Y413485D01*
X10696Y413483D01*
X10624Y413491D01*
X10574Y413480D01*
X10522Y413478D01*
X10454Y413454D01*
X10384Y413438D01*
X10339Y413412D01*
X10291Y413394D01*
X10234Y413349D01*
X10173Y413312D01*
X10139Y413273D01*
X10099Y413240D01*
X10060Y413180D01*
X10013Y413125D01*
X9994Y413077D01*
X9966Y413033D01*
X9948Y412964D01*
X9921Y412897D01*
X9913Y412826D01*
X9906Y412795D01*
X9907Y412771D01*
X9903Y412730D01*
X9911Y400277D01*
X9922Y400206D01*
X9924Y400135D01*
X9942Y400086D01*
X9951Y400034D01*
X9984Y399971D01*
X10009Y399904D01*
X10041Y399863D01*
X10066Y399817D01*
X10118Y399767D01*
X10162Y399712D01*
X10206Y399683D01*
X10244Y399647D01*
X10309Y399617D01*
X10369Y399579D01*
X10420Y399566D01*
X10467Y399544D01*
X10538Y399536D01*
X10608Y399519D01*
X10660Y399523D01*
X10712Y399517D01*
X10782Y399532D01*
X10853Y399538D01*
X10901Y399558D01*
X10952Y399569D01*
X11013Y399606D01*
X11079Y399634D01*
X11136Y399679D01*
X11163Y399696D01*
X11178Y399713D01*
X11210Y399739D01*
X14100Y402629D01*
X17928Y404215D01*
X22072Y404215D01*
X25900Y402629D01*
X28829Y399700D01*
X30415Y395872D01*
X30415Y391728D01*
X28829Y387900D01*
X25900Y384971D01*
X22072Y383385D01*
X17928Y383385D01*
X14100Y384971D01*
X11218Y387853D01*
X11160Y387895D01*
X11108Y387945D01*
X11061Y387966D01*
X11019Y387997D01*
X10950Y388018D01*
X10885Y388048D01*
X10833Y388054D01*
X10783Y388069D01*
X10711Y388067D01*
X10640Y388075D01*
X10589Y388064D01*
X10538Y388063D01*
X10470Y388038D01*
X10400Y388023D01*
X10355Y387996D01*
X10307Y387978D01*
X10250Y387933D01*
X10189Y387896D01*
X10155Y387857D01*
X10115Y387824D01*
X10076Y387764D01*
X10029Y387709D01*
X10010Y387661D01*
X9982Y387618D01*
X9964Y387548D01*
X9937Y387481D01*
X9929Y387410D01*
X9921Y387379D01*
X9923Y387356D01*
X9919Y387314D01*
X9926Y374893D01*
X9938Y374822D01*
X9940Y374751D01*
X9958Y374701D01*
X9966Y374650D01*
X10000Y374587D01*
X10024Y374520D01*
X10057Y374479D01*
X10082Y374432D01*
X10133Y374383D01*
X10178Y374328D01*
X10222Y374299D01*
X10260Y374263D01*
X10325Y374233D01*
X10385Y374195D01*
X10436Y374182D01*
X10483Y374160D01*
X10554Y374152D01*
X10624Y374134D01*
X10676Y374139D01*
X10728Y374133D01*
X10797Y374148D01*
X10869Y374154D01*
X10917Y374174D01*
X10968Y374185D01*
X11029Y374222D01*
X11095Y374250D01*
X11151Y374295D01*
X11179Y374312D01*
X11194Y374329D01*
X11226Y374355D01*
X14100Y377229D01*
X17928Y378815D01*
X22072Y378815D01*
X25900Y377229D01*
X28829Y374300D01*
X30415Y370472D01*
X30415Y366328D01*
X28829Y362500D01*
X25900Y359571D01*
X22072Y357985D01*
X17928Y357985D01*
X14100Y359571D01*
X11234Y362437D01*
X11176Y362479D01*
X11124Y362529D01*
X11077Y362550D01*
X11034Y362581D01*
X10966Y362602D01*
X10900Y362632D01*
X10849Y362638D01*
X10799Y362653D01*
X10727Y362651D01*
X10656Y362659D01*
X10605Y362648D01*
X10553Y362647D01*
X10486Y362622D01*
X10416Y362607D01*
X10371Y362580D01*
X10322Y362562D01*
X10266Y362517D01*
X10205Y362480D01*
X10171Y362441D01*
X10130Y362409D01*
X10092Y362348D01*
X10045Y362293D01*
X10025Y362245D01*
X9997Y362202D01*
X9980Y362132D01*
X9953Y362065D01*
X9945Y361994D01*
X9937Y361963D01*
X9939Y361940D01*
X9935Y361898D01*
X9942Y349508D01*
X9954Y349438D01*
X9956Y349366D01*
X9974Y349317D01*
X9982Y349266D01*
X10016Y349202D01*
X10040Y349135D01*
X10073Y349095D01*
X10097Y349048D01*
X10149Y348999D01*
X10194Y348943D01*
X10238Y348915D01*
X10276Y348879D01*
X10341Y348849D01*
X10401Y348810D01*
X10452Y348798D01*
X10499Y348776D01*
X10570Y348768D01*
X10639Y348750D01*
X10692Y348754D01*
X10744Y348749D01*
X10813Y348764D01*
X10885Y348769D01*
X10933Y348790D01*
X10984Y348801D01*
X11045Y348838D01*
X11111Y348866D01*
X11167Y348911D01*
X11195Y348927D01*
X11210Y348945D01*
X11242Y348971D01*
X14100Y351829D01*
X17928Y353415D01*
X22072Y353415D01*
X25900Y351829D01*
X28829Y348900D01*
X30415Y345072D01*
X30415Y340928D01*
X28829Y337100D01*
X25900Y334171D01*
X22072Y332585D01*
X17928Y332585D01*
X14100Y334171D01*
X11250Y337021D01*
X11192Y337063D01*
X11139Y337113D01*
X11092Y337135D01*
X11050Y337165D01*
X10982Y337186D01*
X10916Y337216D01*
X10865Y337222D01*
X10815Y337237D01*
X10743Y337235D01*
X10672Y337243D01*
X10621Y337232D01*
X10569Y337231D01*
X10502Y337206D01*
X10431Y337191D01*
X10387Y337164D01*
X10338Y337146D01*
X10282Y337101D01*
X10220Y337064D01*
X10187Y337025D01*
X10146Y336993D01*
X10107Y336932D01*
X10061Y336877D01*
X10041Y336829D01*
X10013Y336786D01*
X9996Y336716D01*
X9969Y336649D01*
X9961Y336578D01*
X9953Y336547D01*
X9955Y336524D01*
X9950Y336483D01*
X9958Y324124D01*
X9970Y324054D01*
X9972Y323982D01*
X9990Y323933D01*
X9998Y323882D01*
X10032Y323818D01*
X10056Y323751D01*
X10089Y323710D01*
X10113Y323664D01*
X10165Y323615D01*
X10210Y323559D01*
X10254Y323531D01*
X10292Y323495D01*
X10357Y323465D01*
X10417Y323426D01*
X10467Y323413D01*
X10515Y323391D01*
X10586Y323384D01*
X10655Y323366D01*
X10707Y323370D01*
X10759Y323365D01*
X10829Y323380D01*
X10900Y323385D01*
X10949Y323406D01*
X11000Y323417D01*
X11061Y323454D01*
X11127Y323482D01*
X11183Y323527D01*
X11211Y323543D01*
X11226Y323561D01*
X11258Y323586D01*
X14100Y326429D01*
X17928Y328015D01*
X22072Y328015D01*
X25900Y326429D01*
X28829Y323500D01*
X30415Y319672D01*
X30415Y315528D01*
X28829Y311700D01*
X25900Y308771D01*
X22072Y307185D01*
X17928Y307185D01*
X14100Y308771D01*
X11266Y311605D01*
X11208Y311647D01*
X11155Y311697D01*
X11108Y311719D01*
X11066Y311749D01*
X10997Y311770D01*
X10932Y311800D01*
X10881Y311806D01*
X10831Y311821D01*
X10759Y311819D01*
X10688Y311827D01*
X10637Y311816D01*
X10585Y311815D01*
X10518Y311790D01*
X10447Y311775D01*
X10403Y311748D01*
X10354Y311731D01*
X10298Y311685D01*
X10236Y311649D01*
X10203Y311609D01*
X10162Y311577D01*
X10123Y311516D01*
X10077Y311462D01*
X10057Y311413D01*
X10029Y311370D01*
X10012Y311300D01*
X9985Y311233D01*
X9977Y311163D01*
X9969Y311131D01*
X9971Y311108D01*
X9966Y311067D01*
X9974Y298740D01*
X9986Y298670D01*
X9988Y298598D01*
X10005Y298549D01*
X10014Y298497D01*
X10047Y298434D01*
X10072Y298367D01*
X10105Y298326D01*
X10129Y298280D01*
X10181Y298231D01*
X10226Y298175D01*
X10270Y298147D01*
X10308Y298111D01*
X10372Y298081D01*
X10433Y298042D01*
X10483Y298029D01*
X10531Y298007D01*
X10602Y297999D01*
X10671Y297982D01*
X10723Y297986D01*
X10775Y297980D01*
X10845Y297996D01*
X10916Y298001D01*
X10964Y298022D01*
X11016Y298033D01*
X11077Y298069D01*
X11143Y298097D01*
X11199Y298143D01*
X11227Y298159D01*
X11242Y298177D01*
X11274Y298202D01*
X14100Y301029D01*
X17928Y302615D01*
X22072Y302615D01*
X25900Y301029D01*
X28829Y298100D01*
X30415Y294272D01*
X30415Y290128D01*
X28829Y286300D01*
X25900Y283371D01*
X22072Y281785D01*
X17928Y281785D01*
X14100Y283371D01*
X11282Y286190D01*
X11223Y286231D01*
X11171Y286281D01*
X11124Y286303D01*
X11082Y286333D01*
X11013Y286354D01*
X10948Y286385D01*
X10897Y286390D01*
X10847Y286405D01*
X10775Y286404D01*
X10704Y286411D01*
X10653Y286400D01*
X10601Y286399D01*
X10533Y286374D01*
X10463Y286359D01*
X10419Y286332D01*
X10370Y286315D01*
X10314Y286270D01*
X10252Y286233D01*
X10219Y286193D01*
X10178Y286161D01*
X10139Y286100D01*
X10092Y286046D01*
X10073Y285998D01*
X10045Y285954D01*
X10027Y285884D01*
X10001Y285818D01*
X9993Y285747D01*
X9985Y285715D01*
X9987Y285692D01*
X9982Y285651D01*
X9990Y273356D01*
X10002Y273285D01*
X10003Y273214D01*
X10021Y273165D01*
X10030Y273113D01*
X10063Y273050D01*
X10088Y272983D01*
X10120Y272942D01*
X10145Y272896D01*
X10197Y272847D01*
X10242Y272791D01*
X10286Y272763D01*
X10323Y272727D01*
X10388Y272697D01*
X10448Y272658D01*
X10499Y272645D01*
X10547Y272623D01*
X10618Y272615D01*
X10687Y272598D01*
X10739Y272602D01*
X10791Y272596D01*
X10861Y272611D01*
X10932Y272617D01*
X10980Y272637D01*
X11031Y272649D01*
X11093Y272685D01*
X11159Y272713D01*
X11215Y272758D01*
X11242Y272775D01*
X11258Y272793D01*
X11289Y272818D01*
X14100Y275629D01*
X17928Y277215D01*
X22072Y277215D01*
X25900Y275629D01*
X28829Y272700D01*
X30415Y268872D01*
X30415Y264728D01*
X28829Y260900D01*
X25900Y257971D01*
X22072Y256385D01*
X17928Y256385D01*
X14100Y257971D01*
X11298Y260774D01*
X11239Y260816D01*
X11187Y260865D01*
X11140Y260887D01*
X11098Y260917D01*
X11029Y260938D01*
X10964Y260969D01*
X10912Y260974D01*
X10863Y260990D01*
X10791Y260988D01*
X10719Y260996D01*
X10669Y260985D01*
X10617Y260983D01*
X10549Y260958D01*
X10479Y260943D01*
X10435Y260917D01*
X10386Y260899D01*
X10330Y260854D01*
X10268Y260817D01*
X10234Y260777D01*
X10194Y260745D01*
X10155Y260685D01*
X10108Y260630D01*
X10089Y260582D01*
X10061Y260538D01*
X10043Y260468D01*
X10016Y260402D01*
X10009Y260331D01*
X10001Y260300D01*
X10003Y260276D01*
X9998Y260235D01*
X10006Y247972D01*
X10017Y247901D01*
X10019Y247830D01*
X10037Y247781D01*
X10046Y247729D01*
X10079Y247666D01*
X10104Y247599D01*
X10136Y247558D01*
X10161Y247512D01*
X10213Y247463D01*
X10257Y247407D01*
X10301Y247378D01*
X10339Y247343D01*
X10404Y247312D01*
X10464Y247274D01*
X10515Y247261D01*
X10563Y247239D01*
X10633Y247231D01*
X10703Y247214D01*
X10755Y247218D01*
X10807Y247212D01*
X10877Y247227D01*
X10948Y247233D01*
X10996Y247253D01*
X11047Y247264D01*
X11109Y247301D01*
X11174Y247329D01*
X11231Y247374D01*
X11258Y247391D01*
X11273Y247408D01*
X11305Y247434D01*
X14100Y250229D01*
X17928Y251815D01*
X22072Y251815D01*
X25900Y250229D01*
X28829Y247300D01*
X30415Y243472D01*
X30415Y239328D01*
X28829Y235500D01*
X25900Y232571D01*
X22072Y230985D01*
X17928Y230985D01*
X14100Y232571D01*
X11314Y235358D01*
X11255Y235400D01*
X11203Y235449D01*
X11156Y235471D01*
X11114Y235501D01*
X11045Y235522D01*
X10980Y235553D01*
X10928Y235558D01*
X10879Y235574D01*
X10807Y235572D01*
X10735Y235580D01*
X10685Y235569D01*
X10633Y235567D01*
X10565Y235543D01*
X10495Y235527D01*
X10451Y235501D01*
X10402Y235483D01*
X10346Y235438D01*
X10284Y235401D01*
X10250Y235362D01*
X10210Y235329D01*
X10171Y235269D01*
X10124Y235214D01*
X10105Y235166D01*
X10077Y235122D01*
X10059Y235053D01*
X10032Y234986D01*
X10025Y234915D01*
X10017Y234884D01*
X10019Y234860D01*
X10014Y234819D01*
X10022Y222588D01*
X10033Y222517D01*
X10035Y222446D01*
X10053Y222397D01*
X10062Y222345D01*
X10095Y222282D01*
X10120Y222215D01*
X10152Y222174D01*
X10177Y222128D01*
X10229Y222078D01*
X10273Y222023D01*
X10317Y221994D01*
X10355Y221958D01*
X10420Y221928D01*
X10480Y221890D01*
X10531Y221877D01*
X10578Y221855D01*
X10649Y221847D01*
X10719Y221830D01*
X10771Y221834D01*
X10823Y221828D01*
X10893Y221843D01*
X10964Y221849D01*
X11012Y221869D01*
X11063Y221880D01*
X11124Y221917D01*
X11190Y221945D01*
X11247Y221990D01*
X11274Y222007D01*
X11289Y222024D01*
X11321Y222050D01*
X14100Y224829D01*
X17928Y226415D01*
X22072Y226415D01*
X25900Y224829D01*
X28829Y221900D01*
X30415Y218072D01*
X30415Y213928D01*
X28829Y210100D01*
X25900Y207171D01*
X22072Y205585D01*
X17928Y205585D01*
X14100Y207171D01*
X11329Y209942D01*
X11271Y209984D01*
X11219Y210033D01*
X11172Y210055D01*
X11130Y210085D01*
X11061Y210107D01*
X10996Y210137D01*
X10944Y210143D01*
X10895Y210158D01*
X10823Y210156D01*
X10751Y210164D01*
X10701Y210153D01*
X10649Y210151D01*
X10581Y210127D01*
X10511Y210111D01*
X10466Y210085D01*
X10418Y210067D01*
X10361Y210022D01*
X10300Y209985D01*
X10266Y209946D01*
X10226Y209913D01*
X10187Y209853D01*
X10140Y209798D01*
X10121Y209750D01*
X10093Y209706D01*
X10075Y209637D01*
X10048Y209570D01*
X10040Y209499D01*
X10033Y209468D01*
X10034Y209444D01*
X10030Y209403D01*
X10038Y197204D01*
X10049Y197133D01*
X10051Y197062D01*
X10069Y197012D01*
X10077Y196961D01*
X10111Y196898D01*
X10135Y196831D01*
X10168Y196790D01*
X10193Y196743D01*
X10244Y196694D01*
X10289Y196639D01*
X10333Y196610D01*
X10371Y196574D01*
X10436Y196544D01*
X10496Y196506D01*
X10547Y196493D01*
X10594Y196471D01*
X10665Y196463D01*
X10735Y196445D01*
X10787Y196450D01*
X10839Y196444D01*
X10909Y196459D01*
X10980Y196465D01*
X11028Y196485D01*
X11079Y196496D01*
X11140Y196533D01*
X11206Y196561D01*
X11262Y196606D01*
X11290Y196623D01*
X11305Y196640D01*
X11337Y196666D01*
X14100Y199429D01*
X17928Y201015D01*
X22072Y201015D01*
X25900Y199429D01*
X28829Y196500D01*
X30415Y192672D01*
X30415Y188528D01*
X28829Y184700D01*
X25900Y181771D01*
X22072Y180185D01*
X17928Y180185D01*
X14100Y181771D01*
X11345Y184526D01*
X11287Y184568D01*
X11235Y184618D01*
X11188Y184639D01*
X11146Y184670D01*
X11077Y184691D01*
X11012Y184721D01*
X10960Y184727D01*
X10910Y184742D01*
X10838Y184740D01*
X10767Y184748D01*
X10717Y184737D01*
X10665Y184736D01*
X10597Y184711D01*
X10527Y184696D01*
X10482Y184669D01*
X10434Y184651D01*
X10377Y184606D01*
X10316Y184569D01*
X10282Y184530D01*
X10242Y184497D01*
X10203Y184437D01*
X10156Y184382D01*
X10137Y184334D01*
X10109Y184291D01*
X10091Y184221D01*
X10064Y184154D01*
X10056Y184083D01*
X10048Y184052D01*
X10050Y184029D01*
X10046Y183987D01*
X10053Y171819D01*
X10065Y171749D01*
X10067Y171677D01*
X10085Y171628D01*
X10093Y171577D01*
X10127Y171513D01*
X10151Y171446D01*
X10184Y171406D01*
X10208Y171359D01*
X10260Y171310D01*
X10305Y171254D01*
X10349Y171226D01*
X10387Y171190D01*
X10452Y171160D01*
X10512Y171121D01*
X10563Y171109D01*
X10610Y171087D01*
X10681Y171079D01*
X10750Y171061D01*
X10803Y171065D01*
X10855Y171060D01*
X10924Y171075D01*
X10996Y171080D01*
X11044Y171101D01*
X11095Y171112D01*
X11156Y171149D01*
X11222Y171177D01*
X11278Y171222D01*
X11306Y171238D01*
X11321Y171256D01*
X11353Y171282D01*
X14100Y174029D01*
X17928Y175615D01*
X22072Y175615D01*
X25900Y174029D01*
X28829Y171100D01*
X30415Y167272D01*
X30415Y163128D01*
X28829Y159300D01*
X25900Y156371D01*
X22072Y154785D01*
X17928Y154785D01*
X14100Y156371D01*
X11361Y159110D01*
X11303Y159152D01*
X11251Y159202D01*
X11204Y159223D01*
X11161Y159254D01*
X11093Y159275D01*
X11027Y159305D01*
X10976Y159311D01*
X10926Y159326D01*
X10854Y159324D01*
X10783Y159332D01*
X10732Y159321D01*
X10680Y159320D01*
X10613Y159295D01*
X10543Y159280D01*
X10498Y159253D01*
X10449Y159235D01*
X10393Y159190D01*
X10332Y159153D01*
X10298Y159114D01*
X10257Y159082D01*
X10219Y159021D01*
X10172Y158966D01*
X10152Y158918D01*
X10124Y158875D01*
X10107Y158805D01*
X10080Y158738D01*
X10072Y158667D01*
X10064Y158636D01*
X10066Y158613D01*
X10062Y158571D01*
X10069Y146435D01*
X10081Y146365D01*
X10083Y146293D01*
X10101Y146244D01*
X10109Y146193D01*
X10143Y146129D01*
X10167Y146062D01*
X10200Y146021D01*
X10224Y145975D01*
X10276Y145926D01*
X10321Y145870D01*
X10365Y145842D01*
X10403Y145806D01*
X10468Y145776D01*
X10528Y145737D01*
X10579Y145724D01*
X10626Y145702D01*
X10697Y145695D01*
X10766Y145677D01*
X10818Y145681D01*
X10870Y145676D01*
X10940Y145691D01*
X11011Y145696D01*
X11060Y145717D01*
X11111Y145728D01*
X11172Y145765D01*
X11238Y145793D01*
X11294Y145838D01*
X11322Y145854D01*
X11337Y145872D01*
X11369Y145897D01*
X14100Y148629D01*
X17928Y150215D01*
X22072Y150215D01*
X25900Y148629D01*
X28829Y145700D01*
X30415Y141872D01*
X30415Y137728D01*
X28829Y133900D01*
X25900Y130971D01*
X22072Y129385D01*
X17928Y129385D01*
X14100Y130971D01*
X11377Y133694D01*
X11319Y133736D01*
X11266Y133786D01*
X11219Y133808D01*
X11177Y133838D01*
X11109Y133859D01*
X11043Y133889D01*
X10992Y133895D01*
X10942Y133910D01*
X10870Y133908D01*
X10799Y133916D01*
X10748Y133905D01*
X10696Y133904D01*
X10629Y133879D01*
X10559Y133864D01*
X10514Y133837D01*
X10465Y133819D01*
X10409Y133774D01*
X10347Y133737D01*
X10314Y133698D01*
X10273Y133666D01*
X10234Y133605D01*
X10188Y133550D01*
X10168Y133502D01*
X10140Y133459D01*
X10123Y133389D01*
X10096Y133322D01*
X10088Y133251D01*
X10080Y133220D01*
X10082Y133197D01*
X10078Y133156D01*
X10085Y121051D01*
X10097Y120981D01*
X10099Y120909D01*
X10116Y120860D01*
X10125Y120808D01*
X10158Y120745D01*
X10183Y120678D01*
X10216Y120637D01*
X10240Y120591D01*
X10292Y120542D01*
X10337Y120486D01*
X10381Y120458D01*
X10419Y120422D01*
X10483Y120392D01*
X10544Y120353D01*
X10594Y120340D01*
X10642Y120318D01*
X10713Y120310D01*
X10782Y120293D01*
X10834Y120297D01*
X10886Y120291D01*
X10956Y120307D01*
X11027Y120312D01*
X11075Y120333D01*
X11127Y120344D01*
X11188Y120380D01*
X11254Y120408D01*
X11310Y120454D01*
X11338Y120470D01*
X11353Y120488D01*
X11385Y120513D01*
X14100Y123229D01*
X17928Y124815D01*
X22072Y124815D01*
X25900Y123229D01*
X28829Y120300D01*
X30415Y116472D01*
X30415Y112328D01*
X28829Y108500D01*
X25900Y105571D01*
X22072Y103985D01*
X17928Y103985D01*
X14100Y105571D01*
X11393Y108278D01*
X11335Y108320D01*
X11282Y108370D01*
X11235Y108392D01*
X11193Y108422D01*
X11124Y108443D01*
X11059Y108473D01*
X11008Y108479D01*
X10958Y108494D01*
X10886Y108492D01*
X10815Y108500D01*
X10764Y108489D01*
X10712Y108488D01*
X10645Y108463D01*
X10574Y108448D01*
X10530Y108421D01*
X10481Y108404D01*
X10425Y108358D01*
X10363Y108322D01*
X10330Y108282D01*
X10289Y108250D01*
X10250Y108189D01*
X10204Y108135D01*
X10184Y108086D01*
X10156Y108043D01*
X10139Y107973D01*
X10112Y107906D01*
X10104Y107836D01*
X10096Y107804D01*
X10098Y107781D01*
X10093Y107740D01*
X10100Y97103D01*
X10112Y97032D01*
X10113Y96961D01*
X10131Y96912D01*
X10140Y96860D01*
X10173Y96797D01*
X10198Y96730D01*
X10231Y96689D01*
X10255Y96643D01*
X10307Y96594D01*
X10352Y96538D01*
X10396Y96510D01*
X10434Y96474D01*
X10498Y96444D01*
X10559Y96405D01*
X10609Y96392D01*
X10657Y96370D01*
X10728Y96362D01*
X10797Y96345D01*
X10849Y96349D01*
X10901Y96343D01*
X10971Y96358D01*
X11042Y96364D01*
X11090Y96384D01*
X11142Y96396D01*
X11203Y96432D01*
X11269Y96460D01*
X11325Y96505D01*
X11353Y96522D01*
X11368Y96540D01*
X11400Y96565D01*
X12553Y97719D01*
X14009Y98776D01*
X15612Y99593D01*
X17323Y100149D01*
X18477Y100332D01*
X18477Y89762D01*
X18480Y89742D01*
X18478Y89723D01*
X18500Y89621D01*
X18517Y89519D01*
X18526Y89502D01*
X18530Y89482D01*
X18583Y89393D01*
X18632Y89302D01*
X18646Y89288D01*
X18656Y89271D01*
X18735Y89204D01*
X18810Y89133D01*
X18828Y89124D01*
X18843Y89111D01*
X18939Y89073D01*
X19033Y89029D01*
X19053Y89027D01*
X19071Y89019D01*
X19238Y89001D01*
X20001Y89001D01*
X20001Y88999D01*
X19238Y88999D01*
X19218Y88996D01*
X19199Y88998D01*
X19097Y88976D01*
X18995Y88959D01*
X18978Y88950D01*
X18958Y88946D01*
X18869Y88893D01*
X18778Y88844D01*
X18764Y88830D01*
X18747Y88820D01*
X18680Y88741D01*
X18609Y88666D01*
X18600Y88648D01*
X18587Y88633D01*
X18548Y88537D01*
X18505Y88443D01*
X18503Y88423D01*
X18495Y88405D01*
X18477Y88238D01*
X18477Y77668D01*
X17323Y77851D01*
X15612Y78407D01*
X14009Y79224D01*
X12553Y80281D01*
X11410Y81425D01*
X11351Y81467D01*
X11299Y81516D01*
X11252Y81538D01*
X11210Y81568D01*
X11141Y81590D01*
X11076Y81620D01*
X11024Y81625D01*
X10975Y81641D01*
X10903Y81639D01*
X10831Y81647D01*
X10781Y81636D01*
X10729Y81634D01*
X10661Y81610D01*
X10591Y81594D01*
X10547Y81568D01*
X10498Y81550D01*
X10442Y81505D01*
X10380Y81468D01*
X10346Y81429D01*
X10306Y81396D01*
X10267Y81336D01*
X10220Y81281D01*
X10201Y81233D01*
X10173Y81189D01*
X10155Y81120D01*
X10129Y81053D01*
X10121Y80982D01*
X10113Y80951D01*
X10115Y80927D01*
X10110Y80886D01*
X10117Y70283D01*
X10119Y70270D01*
X10118Y70260D01*
X10128Y70211D01*
X10130Y70141D01*
X10148Y70092D01*
X10157Y70040D01*
X10190Y69977D01*
X10215Y69910D01*
X10247Y69869D01*
X10272Y69823D01*
X10324Y69774D01*
X10368Y69718D01*
X10412Y69689D01*
X10450Y69654D01*
X10515Y69623D01*
X10575Y69585D01*
X10626Y69572D01*
X10673Y69550D01*
X10744Y69542D01*
X10814Y69525D01*
X10866Y69529D01*
X10918Y69523D01*
X10988Y69538D01*
X11059Y69544D01*
X11107Y69564D01*
X11158Y69575D01*
X11220Y69612D01*
X11285Y69640D01*
X11342Y69685D01*
X11369Y69702D01*
X11384Y69719D01*
X11416Y69745D01*
X14100Y72429D01*
X17928Y74015D01*
X22072Y74015D01*
X25900Y72429D01*
X28829Y69500D01*
X30415Y65672D01*
X30415Y61528D01*
X28829Y57700D01*
X25900Y54771D01*
X22072Y53185D01*
X17928Y53185D01*
X14100Y54771D01*
X11425Y57447D01*
X11366Y57489D01*
X11314Y57538D01*
X11267Y57560D01*
X11225Y57590D01*
X11156Y57611D01*
X11091Y57642D01*
X11039Y57647D01*
X10990Y57663D01*
X10918Y57661D01*
X10846Y57669D01*
X10796Y57658D01*
X10744Y57656D01*
X10676Y57631D01*
X10606Y57616D01*
X10562Y57590D01*
X10513Y57572D01*
X10457Y57527D01*
X10395Y57490D01*
X10361Y57450D01*
X10321Y57418D01*
X10282Y57358D01*
X10235Y57303D01*
X10216Y57255D01*
X10188Y57211D01*
X10170Y57141D01*
X10144Y57075D01*
X10136Y57004D01*
X10128Y56973D01*
X10130Y56949D01*
X10125Y56908D01*
X10133Y44899D01*
X10144Y44828D01*
X10146Y44757D01*
X10164Y44708D01*
X10173Y44656D01*
X10206Y44593D01*
X10231Y44526D01*
X10263Y44485D01*
X10288Y44439D01*
X10340Y44389D01*
X10384Y44334D01*
X10428Y44305D01*
X10466Y44269D01*
X10531Y44239D01*
X10591Y44201D01*
X10642Y44188D01*
X10689Y44166D01*
X10760Y44158D01*
X10830Y44141D01*
X10882Y44145D01*
X10934Y44139D01*
X11004Y44154D01*
X11075Y44160D01*
X11123Y44180D01*
X11174Y44191D01*
X11236Y44228D01*
X11301Y44256D01*
X11358Y44301D01*
X11385Y44318D01*
X11400Y44335D01*
X11432Y44361D01*
X14100Y47029D01*
X17928Y48615D01*
X22072Y48615D01*
X25900Y47029D01*
X28829Y44100D01*
X30415Y40272D01*
X30415Y36128D01*
X28829Y32300D01*
X25900Y29371D01*
X22072Y27785D01*
X17928Y27785D01*
X14100Y29371D01*
X11441Y32031D01*
X11382Y32073D01*
X11330Y32122D01*
X11283Y32144D01*
X11241Y32174D01*
X11172Y32195D01*
X11107Y32226D01*
X11055Y32231D01*
X11006Y32247D01*
X10934Y32245D01*
X10862Y32253D01*
X10812Y32242D01*
X10760Y32240D01*
X10692Y32216D01*
X10622Y32200D01*
X10578Y32174D01*
X10529Y32156D01*
X10473Y32111D01*
X10411Y32074D01*
X10377Y32035D01*
X10337Y32002D01*
X10298Y31942D01*
X10251Y31887D01*
X10232Y31839D01*
X10204Y31795D01*
X10186Y31725D01*
X10159Y31659D01*
X10152Y31588D01*
X10144Y31557D01*
X10146Y31533D01*
X10141Y31492D01*
X10154Y10922D01*
X10157Y10902D01*
X10155Y10883D01*
X10177Y10781D01*
X10194Y10679D01*
X10203Y10661D01*
X10207Y10642D01*
X10260Y10553D01*
X10309Y10461D01*
X10323Y10448D01*
X10333Y10431D01*
X10412Y10364D01*
X10487Y10292D01*
X10505Y10284D01*
X10520Y10271D01*
X10617Y10232D01*
X10711Y10189D01*
X10730Y10187D01*
X10748Y10179D01*
X10915Y10161D01*
X173964Y10161D01*
X174012Y10169D01*
G37*
%LPC*%
G36*
X246214Y241581D02*
X246214Y241581D01*
X243105Y244690D01*
X243105Y249086D01*
X246214Y252195D01*
X250169Y252195D01*
X250260Y252209D01*
X250350Y252217D01*
X250380Y252229D01*
X250412Y252234D01*
X250493Y252277D01*
X250577Y252313D01*
X250609Y252339D01*
X250630Y252350D01*
X250652Y252373D01*
X250708Y252418D01*
X262619Y264329D01*
X262687Y264423D01*
X262757Y264518D01*
X262759Y264524D01*
X262763Y264529D01*
X262797Y264640D01*
X262834Y264752D01*
X262834Y264758D01*
X262835Y264764D01*
X262832Y264881D01*
X262831Y264998D01*
X262829Y265005D01*
X262829Y265010D01*
X262823Y265028D01*
X262810Y265070D01*
X262810Y270503D01*
X264879Y275498D01*
X268702Y279321D01*
X273697Y281390D01*
X277840Y281390D01*
X277931Y281404D01*
X278021Y281412D01*
X278051Y281424D01*
X278083Y281429D01*
X278164Y281472D01*
X278248Y281508D01*
X278280Y281534D01*
X278301Y281545D01*
X278323Y281568D01*
X278379Y281613D01*
X293146Y296380D01*
X293199Y296454D01*
X293259Y296524D01*
X293271Y296554D01*
X293290Y296580D01*
X293317Y296667D01*
X293351Y296752D01*
X293355Y296793D01*
X293362Y296815D01*
X293361Y296847D01*
X293369Y296919D01*
X293369Y423933D01*
X293355Y424024D01*
X293347Y424114D01*
X293335Y424144D01*
X293330Y424176D01*
X293287Y424257D01*
X293251Y424341D01*
X293225Y424373D01*
X293214Y424394D01*
X293191Y424416D01*
X293146Y424472D01*
X279653Y437965D01*
X279653Y438049D01*
X279650Y438069D01*
X279652Y438088D01*
X279630Y438190D01*
X279614Y438292D01*
X279604Y438309D01*
X279600Y438329D01*
X279547Y438418D01*
X279498Y438509D01*
X279484Y438523D01*
X279474Y438540D01*
X279395Y438607D01*
X279320Y438679D01*
X279302Y438687D01*
X279287Y438700D01*
X279191Y438739D01*
X279097Y438782D01*
X279077Y438784D01*
X279059Y438792D01*
X278892Y438810D01*
X274397Y438810D01*
X269402Y440879D01*
X265579Y444702D01*
X263510Y449697D01*
X263510Y454152D01*
X263507Y454172D01*
X263509Y454191D01*
X263487Y454293D01*
X263471Y454395D01*
X263461Y454412D01*
X263457Y454432D01*
X263404Y454521D01*
X263355Y454612D01*
X263341Y454626D01*
X263331Y454643D01*
X263252Y454710D01*
X263177Y454782D01*
X263159Y454790D01*
X263144Y454803D01*
X263048Y454842D01*
X262954Y454885D01*
X262934Y454887D01*
X262916Y454895D01*
X262749Y454913D01*
X262705Y454913D01*
X237020Y480598D01*
X236946Y480651D01*
X236876Y480711D01*
X236846Y480723D01*
X236820Y480742D01*
X236733Y480769D01*
X236648Y480803D01*
X236607Y480807D01*
X236585Y480814D01*
X236553Y480813D01*
X236481Y480821D01*
X152139Y480821D01*
X152048Y480807D01*
X151958Y480799D01*
X151928Y480787D01*
X151896Y480782D01*
X151815Y480739D01*
X151731Y480703D01*
X151699Y480677D01*
X151678Y480666D01*
X151656Y480643D01*
X151600Y480598D01*
X115247Y444245D01*
X112594Y444245D01*
X112574Y444242D01*
X112555Y444244D01*
X112453Y444222D01*
X112351Y444206D01*
X112334Y444196D01*
X112314Y444192D01*
X112225Y444139D01*
X112134Y444090D01*
X112120Y444076D01*
X112103Y444066D01*
X112036Y443987D01*
X111964Y443912D01*
X111956Y443894D01*
X111943Y443879D01*
X111904Y443783D01*
X111861Y443689D01*
X111859Y443669D01*
X111851Y443651D01*
X111833Y443484D01*
X111833Y443283D01*
X110595Y440295D01*
X108309Y438009D01*
X105321Y436771D01*
X88879Y436771D01*
X85891Y438009D01*
X83605Y440295D01*
X82367Y443283D01*
X82367Y446517D01*
X83605Y449505D01*
X85891Y451791D01*
X88879Y453029D01*
X105321Y453029D01*
X108309Y451791D01*
X110595Y449505D01*
X110685Y449289D01*
X110746Y449189D01*
X110806Y449089D01*
X110811Y449085D01*
X110814Y449080D01*
X110904Y449005D01*
X110993Y448929D01*
X110999Y448927D01*
X111004Y448923D01*
X111112Y448881D01*
X111221Y448837D01*
X111229Y448836D01*
X111233Y448835D01*
X111252Y448834D01*
X111388Y448819D01*
X113037Y448819D01*
X113128Y448833D01*
X113218Y448841D01*
X113248Y448853D01*
X113280Y448858D01*
X113361Y448901D01*
X113445Y448937D01*
X113477Y448963D01*
X113498Y448974D01*
X113520Y448997D01*
X113576Y449042D01*
X149929Y485395D01*
X238691Y485395D01*
X264308Y459778D01*
X264345Y459752D01*
X264376Y459718D01*
X264444Y459680D01*
X264507Y459635D01*
X264551Y459621D01*
X264591Y459599D01*
X264668Y459585D01*
X264742Y459562D01*
X264788Y459564D01*
X264833Y459556D01*
X264910Y459567D01*
X264988Y459569D01*
X265031Y459585D01*
X265077Y459591D01*
X265146Y459627D01*
X265219Y459653D01*
X265255Y459682D01*
X265296Y459703D01*
X265350Y459758D01*
X265411Y459807D01*
X265436Y459846D01*
X265468Y459878D01*
X265534Y459998D01*
X265544Y460014D01*
X265546Y460019D01*
X265549Y460025D01*
X265579Y460098D01*
X269402Y463921D01*
X274397Y465990D01*
X279803Y465990D01*
X284798Y463921D01*
X288621Y460098D01*
X290690Y455103D01*
X290690Y449697D01*
X288621Y444702D01*
X284798Y440879D01*
X284725Y440849D01*
X284686Y440825D01*
X284643Y440809D01*
X284582Y440761D01*
X284516Y440720D01*
X284487Y440684D01*
X284451Y440655D01*
X284409Y440590D01*
X284360Y440530D01*
X284343Y440487D01*
X284318Y440449D01*
X284299Y440373D01*
X284271Y440300D01*
X284269Y440255D01*
X284258Y440210D01*
X284264Y440133D01*
X284261Y440055D01*
X284274Y440011D01*
X284277Y439965D01*
X284308Y439893D01*
X284329Y439818D01*
X284356Y439781D01*
X284374Y439739D01*
X284459Y439632D01*
X284470Y439616D01*
X284474Y439613D01*
X284478Y439608D01*
X297943Y426143D01*
X297943Y294709D01*
X283812Y280578D01*
X283786Y280541D01*
X283752Y280510D01*
X283714Y280442D01*
X283669Y280379D01*
X283655Y280335D01*
X283633Y280294D01*
X283619Y280218D01*
X283596Y280144D01*
X283598Y280098D01*
X283589Y280052D01*
X283601Y279975D01*
X283603Y279898D01*
X283619Y279854D01*
X283625Y279809D01*
X283660Y279740D01*
X283687Y279667D01*
X283716Y279631D01*
X283737Y279590D01*
X283792Y279535D01*
X283841Y279475D01*
X283880Y279450D01*
X283912Y279418D01*
X284032Y279352D01*
X284048Y279342D01*
X284053Y279340D01*
X284059Y279337D01*
X284098Y279321D01*
X287921Y275498D01*
X289990Y270503D01*
X289990Y265097D01*
X287921Y260102D01*
X284098Y256279D01*
X279103Y254210D01*
X273697Y254210D01*
X268702Y256279D01*
X265408Y259573D01*
X265392Y259585D01*
X265379Y259601D01*
X265292Y259657D01*
X265208Y259717D01*
X265189Y259723D01*
X265172Y259734D01*
X265072Y259759D01*
X264973Y259789D01*
X264953Y259789D01*
X264934Y259794D01*
X264831Y259786D01*
X264727Y259783D01*
X264708Y259776D01*
X264689Y259775D01*
X264594Y259734D01*
X264496Y259698D01*
X264480Y259686D01*
X264462Y259678D01*
X264331Y259573D01*
X253942Y249184D01*
X253889Y249110D01*
X253829Y249040D01*
X253817Y249010D01*
X253798Y248984D01*
X253771Y248897D01*
X253737Y248812D01*
X253733Y248771D01*
X253726Y248749D01*
X253727Y248717D01*
X253719Y248645D01*
X253719Y244690D01*
X250610Y241581D01*
X246214Y241581D01*
G37*
%LPD*%
%LPC*%
G36*
X169996Y209593D02*
X169996Y209593D01*
X164193Y215396D01*
X164193Y223604D01*
X165498Y224908D01*
X165509Y224924D01*
X165525Y224937D01*
X165581Y225024D01*
X165641Y225108D01*
X165647Y225127D01*
X165658Y225143D01*
X165683Y225244D01*
X165714Y225343D01*
X165713Y225363D01*
X165718Y225382D01*
X165710Y225485D01*
X165707Y225589D01*
X165700Y225607D01*
X165699Y225627D01*
X165658Y225722D01*
X165623Y225820D01*
X165610Y225835D01*
X165602Y225853D01*
X165498Y225984D01*
X134912Y256570D01*
X133349Y258133D01*
X133349Y361449D01*
X133335Y361540D01*
X133327Y361630D01*
X133315Y361660D01*
X133310Y361692D01*
X133267Y361773D01*
X133231Y361857D01*
X133205Y361889D01*
X133194Y361910D01*
X133171Y361932D01*
X133126Y361988D01*
X125217Y369897D01*
X125123Y369965D01*
X125028Y370035D01*
X125022Y370037D01*
X125017Y370041D01*
X124906Y370075D01*
X124794Y370111D01*
X124788Y370111D01*
X124782Y370113D01*
X124665Y370110D01*
X124548Y370109D01*
X124541Y370107D01*
X124536Y370107D01*
X124519Y370100D01*
X124387Y370062D01*
X123917Y369867D01*
X120683Y369867D01*
X117695Y371105D01*
X115409Y373391D01*
X114171Y376379D01*
X114171Y392821D01*
X115409Y395809D01*
X117695Y398095D01*
X120687Y399334D01*
X120787Y399396D01*
X120887Y399456D01*
X120891Y399461D01*
X120896Y399464D01*
X120971Y399554D01*
X121047Y399643D01*
X121049Y399649D01*
X121053Y399654D01*
X121095Y399762D01*
X121139Y399871D01*
X121140Y399879D01*
X121141Y399883D01*
X121142Y399901D01*
X121157Y400038D01*
X121157Y400235D01*
X151414Y430492D01*
X151467Y430566D01*
X151527Y430636D01*
X151539Y430666D01*
X151558Y430692D01*
X151585Y430779D01*
X151619Y430864D01*
X151623Y430905D01*
X151630Y430927D01*
X151629Y430959D01*
X151637Y431031D01*
X151637Y450527D01*
X163002Y461892D01*
X163029Y461929D01*
X163063Y461961D01*
X163100Y462029D01*
X163146Y462092D01*
X163159Y462136D01*
X163181Y462176D01*
X163195Y462253D01*
X163218Y462327D01*
X163217Y462373D01*
X163225Y462418D01*
X163214Y462495D01*
X163212Y462573D01*
X163196Y462616D01*
X163189Y462661D01*
X163154Y462731D01*
X163127Y462804D01*
X163099Y462840D01*
X163078Y462881D01*
X163022Y462935D01*
X162974Y462996D01*
X162935Y463021D01*
X162902Y463053D01*
X162782Y463119D01*
X162767Y463129D01*
X162762Y463130D01*
X162755Y463134D01*
X162091Y463409D01*
X159805Y465695D01*
X158567Y468683D01*
X158567Y471917D01*
X159805Y474905D01*
X162091Y477191D01*
X165079Y478429D01*
X181521Y478429D01*
X184509Y477191D01*
X186795Y474905D01*
X188033Y471917D01*
X188033Y468683D01*
X186795Y465695D01*
X184509Y463409D01*
X181521Y462171D01*
X170064Y462171D01*
X169974Y462157D01*
X169883Y462149D01*
X169854Y462137D01*
X169822Y462132D01*
X169741Y462089D01*
X169657Y462053D01*
X169625Y462027D01*
X169604Y462016D01*
X169582Y461993D01*
X169526Y461948D01*
X156434Y448856D01*
X156381Y448782D01*
X156321Y448712D01*
X156309Y448682D01*
X156290Y448656D01*
X156263Y448569D01*
X156229Y448484D01*
X156225Y448443D01*
X156218Y448421D01*
X156219Y448389D01*
X156211Y448317D01*
X156211Y428821D01*
X154648Y427258D01*
X126706Y399317D01*
X126680Y399279D01*
X126646Y399248D01*
X126608Y399180D01*
X126563Y399117D01*
X126549Y399073D01*
X126527Y399033D01*
X126513Y398956D01*
X126491Y398882D01*
X126492Y398836D01*
X126484Y398791D01*
X126495Y398714D01*
X126497Y398636D01*
X126513Y398593D01*
X126519Y398547D01*
X126555Y398478D01*
X126581Y398405D01*
X126610Y398369D01*
X126631Y398328D01*
X126686Y398274D01*
X126735Y398213D01*
X126774Y398188D01*
X126807Y398156D01*
X126890Y398110D01*
X129191Y395809D01*
X130429Y392821D01*
X130429Y376379D01*
X129183Y373371D01*
X129146Y373314D01*
X129086Y373230D01*
X129080Y373211D01*
X129069Y373194D01*
X129044Y373093D01*
X129013Y372995D01*
X129014Y372975D01*
X129009Y372955D01*
X129017Y372852D01*
X129020Y372749D01*
X129026Y372730D01*
X129028Y372710D01*
X129068Y372615D01*
X129104Y372518D01*
X129116Y372502D01*
X129124Y372484D01*
X129229Y372353D01*
X137923Y363659D01*
X137923Y260343D01*
X137937Y260252D01*
X137945Y260162D01*
X137957Y260132D01*
X137962Y260100D01*
X138005Y260019D01*
X138041Y259935D01*
X138067Y259903D01*
X138078Y259882D01*
X138101Y259860D01*
X138146Y259804D01*
X168732Y229218D01*
X168748Y229207D01*
X168760Y229191D01*
X168848Y229135D01*
X168931Y229075D01*
X168950Y229069D01*
X168967Y229058D01*
X169068Y229033D01*
X169166Y229002D01*
X169186Y229003D01*
X169206Y228998D01*
X169309Y229006D01*
X169412Y229009D01*
X169431Y229016D01*
X169451Y229017D01*
X169546Y229058D01*
X169643Y229093D01*
X169659Y229106D01*
X169677Y229114D01*
X169808Y229218D01*
X169996Y229407D01*
X178204Y229407D01*
X184007Y223604D01*
X184007Y215396D01*
X178204Y209593D01*
X169996Y209593D01*
G37*
%LPD*%
%LPC*%
G36*
X122683Y12667D02*
X122683Y12667D01*
X119695Y13905D01*
X117409Y16191D01*
X116171Y19179D01*
X116171Y35621D01*
X117409Y38609D01*
X119695Y40895D01*
X122683Y42133D01*
X125917Y42133D01*
X128905Y40895D01*
X129227Y40573D01*
X129243Y40562D01*
X129255Y40546D01*
X129343Y40490D01*
X129426Y40430D01*
X129445Y40424D01*
X129462Y40413D01*
X129563Y40388D01*
X129661Y40357D01*
X129681Y40358D01*
X129701Y40353D01*
X129804Y40361D01*
X129907Y40364D01*
X129926Y40370D01*
X129946Y40372D01*
X130041Y40412D01*
X130138Y40448D01*
X130154Y40461D01*
X130172Y40468D01*
X130303Y40573D01*
X139261Y49531D01*
X236481Y49531D01*
X236572Y49545D01*
X236662Y49553D01*
X236692Y49565D01*
X236724Y49570D01*
X236805Y49613D01*
X236889Y49649D01*
X236921Y49675D01*
X236942Y49686D01*
X236964Y49709D01*
X237020Y49754D01*
X284390Y97124D01*
X284401Y97140D01*
X284417Y97152D01*
X284473Y97239D01*
X284533Y97323D01*
X284539Y97342D01*
X284550Y97359D01*
X284575Y97459D01*
X284606Y97558D01*
X284605Y97578D01*
X284610Y97598D01*
X284602Y97701D01*
X284599Y97804D01*
X284592Y97823D01*
X284591Y97843D01*
X284550Y97938D01*
X284515Y98035D01*
X284502Y98051D01*
X284494Y98069D01*
X284390Y98200D01*
X284093Y98497D01*
X284093Y106704D01*
X289896Y112507D01*
X298104Y112507D01*
X303907Y106704D01*
X303907Y98496D01*
X298104Y92693D01*
X289896Y92693D01*
X288700Y93890D01*
X288684Y93901D01*
X288672Y93917D01*
X288584Y93973D01*
X288500Y94033D01*
X288481Y94039D01*
X288465Y94050D01*
X288364Y94075D01*
X288265Y94106D01*
X288245Y94105D01*
X288226Y94110D01*
X288123Y94102D01*
X288019Y94099D01*
X288001Y94092D01*
X287981Y94091D01*
X287886Y94050D01*
X287788Y94015D01*
X287773Y94002D01*
X287755Y93994D01*
X287624Y93890D01*
X238691Y44957D01*
X141471Y44957D01*
X141380Y44943D01*
X141290Y44935D01*
X141260Y44923D01*
X141228Y44918D01*
X141147Y44875D01*
X141063Y44839D01*
X141031Y44813D01*
X141010Y44802D01*
X140988Y44779D01*
X140932Y44734D01*
X132610Y36412D01*
X132542Y36318D01*
X132472Y36223D01*
X132470Y36217D01*
X132466Y36212D01*
X132432Y36101D01*
X132396Y35989D01*
X132396Y35983D01*
X132394Y35977D01*
X132397Y35860D01*
X132398Y35743D01*
X132400Y35736D01*
X132400Y35731D01*
X132407Y35714D01*
X132429Y35637D01*
X132429Y19179D01*
X131191Y16191D01*
X128905Y13905D01*
X125917Y12667D01*
X122683Y12667D01*
G37*
%LPD*%
%LPC*%
G36*
X173483Y88867D02*
X173483Y88867D01*
X170495Y90105D01*
X168209Y92391D01*
X166971Y95379D01*
X166971Y111821D01*
X168209Y114809D01*
X170495Y117095D01*
X173483Y118333D01*
X173736Y118333D01*
X173756Y118336D01*
X173775Y118334D01*
X173877Y118356D01*
X173979Y118372D01*
X173996Y118382D01*
X174016Y118386D01*
X174105Y118439D01*
X174196Y118488D01*
X174210Y118502D01*
X174227Y118512D01*
X174294Y118591D01*
X174366Y118666D01*
X174374Y118684D01*
X174387Y118699D01*
X174426Y118795D01*
X174469Y118889D01*
X174471Y118909D01*
X174479Y118927D01*
X174495Y119069D01*
X174497Y119094D01*
X174497Y119133D01*
X174483Y119224D01*
X174475Y119314D01*
X174463Y119344D01*
X174458Y119376D01*
X174415Y119457D01*
X174379Y119541D01*
X174353Y119573D01*
X174342Y119594D01*
X174319Y119616D01*
X174274Y119672D01*
X171449Y122497D01*
X171449Y127332D01*
X171446Y127352D01*
X171448Y127371D01*
X171426Y127473D01*
X171410Y127575D01*
X171400Y127592D01*
X171396Y127612D01*
X171343Y127701D01*
X171294Y127792D01*
X171280Y127806D01*
X171270Y127823D01*
X171191Y127890D01*
X171116Y127962D01*
X171098Y127970D01*
X171083Y127983D01*
X170987Y128022D01*
X170893Y128065D01*
X170873Y128067D01*
X170855Y128075D01*
X170688Y128093D01*
X168996Y128093D01*
X163193Y133896D01*
X163193Y142104D01*
X168996Y147907D01*
X177204Y147907D01*
X183007Y142104D01*
X183007Y133896D01*
X177204Y128093D01*
X176784Y128093D01*
X176764Y128090D01*
X176745Y128092D01*
X176643Y128070D01*
X176541Y128054D01*
X176524Y128044D01*
X176504Y128040D01*
X176415Y127987D01*
X176324Y127938D01*
X176310Y127924D01*
X176293Y127914D01*
X176226Y127835D01*
X176154Y127760D01*
X176146Y127742D01*
X176133Y127727D01*
X176094Y127631D01*
X176051Y127537D01*
X176049Y127517D01*
X176041Y127499D01*
X176023Y127332D01*
X176023Y124707D01*
X176037Y124616D01*
X176045Y124526D01*
X176057Y124496D01*
X176062Y124464D01*
X176105Y124383D01*
X176141Y124299D01*
X176167Y124267D01*
X176178Y124246D01*
X176201Y124224D01*
X176246Y124168D01*
X179071Y121343D01*
X179071Y117866D01*
X179089Y117752D01*
X179107Y117635D01*
X179109Y117630D01*
X179110Y117624D01*
X179165Y117521D01*
X179218Y117416D01*
X179223Y117412D01*
X179226Y117406D01*
X179310Y117326D01*
X179394Y117244D01*
X179400Y117240D01*
X179404Y117237D01*
X179421Y117229D01*
X179541Y117163D01*
X179705Y117095D01*
X181991Y114809D01*
X183229Y111821D01*
X183229Y95379D01*
X181991Y92391D01*
X179705Y90105D01*
X176717Y88867D01*
X173483Y88867D01*
G37*
%LPD*%
%LPC*%
G36*
X264403Y338810D02*
X264403Y338810D01*
X263510Y339703D01*
X263510Y365097D01*
X264403Y365990D01*
X289797Y365990D01*
X290690Y365097D01*
X290690Y339703D01*
X289797Y338810D01*
X264403Y338810D01*
G37*
%LPD*%
%LPC*%
G36*
X263703Y154210D02*
X263703Y154210D01*
X262810Y155103D01*
X262810Y180497D01*
X263703Y181390D01*
X289097Y181390D01*
X289990Y180497D01*
X289990Y155103D01*
X289097Y154210D01*
X263703Y154210D01*
G37*
%LPD*%
%LPC*%
G36*
X456518Y76825D02*
X456518Y76825D01*
X455625Y77718D01*
X455625Y98482D01*
X456518Y99375D01*
X477282Y99375D01*
X478175Y98482D01*
X478175Y77718D01*
X477282Y76825D01*
X456518Y76825D01*
G37*
%LPD*%
%LPC*%
G36*
X456518Y26825D02*
X456518Y26825D01*
X455625Y27718D01*
X455625Y48482D01*
X456518Y49375D01*
X477282Y49375D01*
X478175Y48482D01*
X478175Y27718D01*
X477282Y26825D01*
X456518Y26825D01*
G37*
%LPD*%
%LPC*%
G36*
X35878Y27785D02*
X35878Y27785D01*
X34985Y28678D01*
X34985Y47722D01*
X35878Y48615D01*
X54922Y48615D01*
X55815Y47722D01*
X55815Y28678D01*
X54922Y27785D01*
X35878Y27785D01*
G37*
%LPD*%
%LPC*%
G36*
X165079Y589171D02*
X165079Y589171D01*
X162091Y590409D01*
X159805Y592695D01*
X158567Y595683D01*
X158567Y598917D01*
X159805Y601905D01*
X162091Y604191D01*
X165079Y605429D01*
X181521Y605429D01*
X184509Y604191D01*
X186795Y601905D01*
X188033Y598917D01*
X188033Y595683D01*
X186795Y592695D01*
X184509Y590409D01*
X181521Y589171D01*
X165079Y589171D01*
G37*
%LPD*%
%LPC*%
G36*
X146083Y293667D02*
X146083Y293667D01*
X143095Y294905D01*
X140809Y297191D01*
X139571Y300179D01*
X139571Y316621D01*
X140809Y319609D01*
X143095Y321895D01*
X146083Y323133D01*
X149317Y323133D01*
X152305Y321895D01*
X154591Y319609D01*
X155829Y316621D01*
X155829Y300179D01*
X154591Y297191D01*
X152305Y294905D01*
X149317Y293667D01*
X146083Y293667D01*
G37*
%LPD*%
%LPC*%
G36*
X120683Y293667D02*
X120683Y293667D01*
X117695Y294905D01*
X115409Y297191D01*
X114171Y300179D01*
X114171Y316621D01*
X115409Y319609D01*
X117695Y321895D01*
X120683Y323133D01*
X123917Y323133D01*
X126905Y321895D01*
X129191Y319609D01*
X130429Y316621D01*
X130429Y300179D01*
X129191Y297191D01*
X126905Y294905D01*
X123917Y293667D01*
X120683Y293667D01*
G37*
%LPD*%
%LPC*%
G36*
X165079Y436771D02*
X165079Y436771D01*
X162091Y438009D01*
X159805Y440295D01*
X158567Y443283D01*
X158567Y446517D01*
X159805Y449505D01*
X162091Y451791D01*
X165079Y453029D01*
X181521Y453029D01*
X184509Y451791D01*
X186795Y449505D01*
X188033Y446517D01*
X188033Y443283D01*
X186795Y440295D01*
X184509Y438009D01*
X181521Y436771D01*
X165079Y436771D01*
G37*
%LPD*%
%LPC*%
G36*
X95283Y293667D02*
X95283Y293667D01*
X92295Y294905D01*
X90009Y297191D01*
X88771Y300179D01*
X88771Y316621D01*
X90009Y319609D01*
X92295Y321895D01*
X95283Y323133D01*
X98517Y323133D01*
X101505Y321895D01*
X103791Y319609D01*
X105029Y316621D01*
X105029Y300179D01*
X103791Y297191D01*
X101505Y294905D01*
X98517Y293667D01*
X95283Y293667D01*
G37*
%LPD*%
%LPC*%
G36*
X88879Y563771D02*
X88879Y563771D01*
X85891Y565009D01*
X83605Y567295D01*
X82367Y570283D01*
X82367Y573517D01*
X83605Y576505D01*
X85891Y578791D01*
X88879Y580029D01*
X105321Y580029D01*
X108309Y578791D01*
X110595Y576505D01*
X111833Y573517D01*
X111833Y570283D01*
X110595Y567295D01*
X108309Y565009D01*
X105321Y563771D01*
X88879Y563771D01*
G37*
%LPD*%
%LPC*%
G36*
X165079Y538371D02*
X165079Y538371D01*
X162091Y539609D01*
X159805Y541895D01*
X158567Y544883D01*
X158567Y548117D01*
X159805Y551105D01*
X162091Y553391D01*
X165079Y554629D01*
X181521Y554629D01*
X184509Y553391D01*
X186795Y551105D01*
X188033Y548117D01*
X188033Y544883D01*
X186795Y541895D01*
X184509Y539609D01*
X181521Y538371D01*
X165079Y538371D01*
G37*
%LPD*%
%LPC*%
G36*
X88879Y538371D02*
X88879Y538371D01*
X85891Y539609D01*
X83605Y541895D01*
X82367Y544883D01*
X82367Y548117D01*
X83605Y551105D01*
X85891Y553391D01*
X88879Y554629D01*
X105321Y554629D01*
X108309Y553391D01*
X110595Y551105D01*
X111833Y548117D01*
X111833Y544883D01*
X110595Y541895D01*
X108309Y539609D01*
X105321Y538371D01*
X88879Y538371D01*
G37*
%LPD*%
%LPC*%
G36*
X165079Y411371D02*
X165079Y411371D01*
X162091Y412609D01*
X159805Y414895D01*
X158567Y417883D01*
X158567Y421117D01*
X159805Y424105D01*
X162091Y426391D01*
X165079Y427629D01*
X181521Y427629D01*
X184509Y426391D01*
X186795Y424105D01*
X188033Y421117D01*
X188033Y417883D01*
X186795Y414895D01*
X184509Y412609D01*
X181521Y411371D01*
X165079Y411371D01*
G37*
%LPD*%
%LPC*%
G36*
X165079Y512971D02*
X165079Y512971D01*
X162091Y514209D01*
X159805Y516495D01*
X158567Y519483D01*
X158567Y522717D01*
X159805Y525705D01*
X162091Y527991D01*
X165079Y529229D01*
X181521Y529229D01*
X184509Y527991D01*
X186795Y525705D01*
X188033Y522717D01*
X188033Y519483D01*
X186795Y516495D01*
X184509Y514209D01*
X181521Y512971D01*
X165079Y512971D01*
G37*
%LPD*%
%LPC*%
G36*
X88879Y512971D02*
X88879Y512971D01*
X85891Y514209D01*
X83605Y516495D01*
X82367Y519483D01*
X82367Y522717D01*
X83605Y525705D01*
X85891Y527991D01*
X88879Y529229D01*
X105321Y529229D01*
X108309Y527991D01*
X110595Y525705D01*
X111833Y522717D01*
X111833Y519483D01*
X110595Y516495D01*
X108309Y514209D01*
X105321Y512971D01*
X88879Y512971D01*
G37*
%LPD*%
%LPC*%
G36*
X88879Y411371D02*
X88879Y411371D01*
X85891Y412609D01*
X83605Y414895D01*
X82367Y417883D01*
X82367Y421117D01*
X83605Y424105D01*
X85891Y426391D01*
X88879Y427629D01*
X105321Y427629D01*
X108309Y426391D01*
X110595Y424105D01*
X111833Y421117D01*
X111833Y417883D01*
X110595Y414895D01*
X108309Y412609D01*
X105321Y411371D01*
X88879Y411371D01*
G37*
%LPD*%
%LPC*%
G36*
X97283Y88867D02*
X97283Y88867D01*
X94295Y90105D01*
X92009Y92391D01*
X90771Y95379D01*
X90771Y111821D01*
X92009Y114809D01*
X94295Y117095D01*
X97283Y118333D01*
X100517Y118333D01*
X103505Y117095D01*
X105791Y114809D01*
X107029Y111821D01*
X107029Y95379D01*
X105791Y92391D01*
X103505Y90105D01*
X100517Y88867D01*
X97283Y88867D01*
G37*
%LPD*%
%LPC*%
G36*
X97283Y12667D02*
X97283Y12667D01*
X94295Y13905D01*
X92009Y16191D01*
X90771Y19179D01*
X90771Y35621D01*
X92009Y38609D01*
X94295Y40895D01*
X97283Y42133D01*
X100517Y42133D01*
X103505Y40895D01*
X105791Y38609D01*
X107029Y35621D01*
X107029Y19179D01*
X105791Y16191D01*
X103505Y13905D01*
X100517Y12667D01*
X97283Y12667D01*
G37*
%LPD*%
%LPC*%
G36*
X122683Y88867D02*
X122683Y88867D01*
X119695Y90105D01*
X117409Y92391D01*
X116171Y95379D01*
X116171Y111821D01*
X117409Y114809D01*
X119695Y117095D01*
X122683Y118333D01*
X125917Y118333D01*
X128905Y117095D01*
X131191Y114809D01*
X132429Y111821D01*
X132429Y95379D01*
X131191Y92391D01*
X128905Y90105D01*
X125917Y88867D01*
X122683Y88867D01*
G37*
%LPD*%
%LPC*%
G36*
X148083Y12667D02*
X148083Y12667D01*
X145095Y13905D01*
X142809Y16191D01*
X141571Y19179D01*
X141571Y35621D01*
X142809Y38609D01*
X145095Y40895D01*
X148083Y42133D01*
X151317Y42133D01*
X154305Y40895D01*
X156591Y38609D01*
X157829Y35621D01*
X157829Y19179D01*
X156591Y16191D01*
X154305Y13905D01*
X151317Y12667D01*
X148083Y12667D01*
G37*
%LPD*%
%LPC*%
G36*
X171483Y369867D02*
X171483Y369867D01*
X168495Y371105D01*
X166209Y373391D01*
X164971Y376379D01*
X164971Y392821D01*
X166209Y395809D01*
X168495Y398095D01*
X171483Y399333D01*
X174717Y399333D01*
X177705Y398095D01*
X179991Y395809D01*
X181229Y392821D01*
X181229Y376379D01*
X179991Y373391D01*
X177705Y371105D01*
X174717Y369867D01*
X171483Y369867D01*
G37*
%LPD*%
%LPC*%
G36*
X146083Y369867D02*
X146083Y369867D01*
X143095Y371105D01*
X140809Y373391D01*
X139571Y376379D01*
X139571Y392821D01*
X140809Y395809D01*
X143095Y398095D01*
X146083Y399333D01*
X149317Y399333D01*
X152305Y398095D01*
X154591Y395809D01*
X155829Y392821D01*
X155829Y376379D01*
X154591Y373391D01*
X152305Y371105D01*
X149317Y369867D01*
X146083Y369867D01*
G37*
%LPD*%
%LPC*%
G36*
X95283Y369867D02*
X95283Y369867D01*
X92295Y371105D01*
X90009Y373391D01*
X88771Y376379D01*
X88771Y392821D01*
X90009Y395809D01*
X92295Y398095D01*
X95283Y399333D01*
X98517Y399333D01*
X101505Y398095D01*
X103791Y395809D01*
X105029Y392821D01*
X105029Y376379D01*
X103791Y373391D01*
X101505Y371105D01*
X98517Y369867D01*
X95283Y369867D01*
G37*
%LPD*%
%LPC*%
G36*
X165079Y487571D02*
X165079Y487571D01*
X162091Y488809D01*
X159805Y491095D01*
X158567Y494083D01*
X158567Y497317D01*
X159805Y500305D01*
X162091Y502591D01*
X165079Y503829D01*
X181521Y503829D01*
X184509Y502591D01*
X186795Y500305D01*
X188033Y497317D01*
X188033Y494083D01*
X186795Y491095D01*
X184509Y488809D01*
X181521Y487571D01*
X165079Y487571D01*
G37*
%LPD*%
%LPC*%
G36*
X88879Y487571D02*
X88879Y487571D01*
X85891Y488809D01*
X83605Y491095D01*
X82367Y494083D01*
X82367Y497317D01*
X83605Y500305D01*
X85891Y502591D01*
X88879Y503829D01*
X105321Y503829D01*
X108309Y502591D01*
X110595Y500305D01*
X111833Y497317D01*
X111833Y494083D01*
X110595Y491095D01*
X108309Y488809D01*
X105321Y487571D01*
X88879Y487571D01*
G37*
%LPD*%
%LPC*%
G36*
X148083Y88867D02*
X148083Y88867D01*
X145095Y90105D01*
X142809Y92391D01*
X141571Y95379D01*
X141571Y111821D01*
X142809Y114809D01*
X145095Y117095D01*
X148083Y118333D01*
X151317Y118333D01*
X154305Y117095D01*
X156591Y114809D01*
X157829Y111821D01*
X157829Y95379D01*
X156591Y92391D01*
X154305Y90105D01*
X151317Y88867D01*
X148083Y88867D01*
G37*
%LPD*%
%LPC*%
G36*
X43328Y459585D02*
X43328Y459585D01*
X39500Y461171D01*
X36571Y464100D01*
X34985Y467928D01*
X34985Y472072D01*
X36571Y475900D01*
X39500Y478829D01*
X43328Y480415D01*
X47472Y480415D01*
X51300Y478829D01*
X54229Y475900D01*
X55815Y472072D01*
X55815Y467928D01*
X54229Y464100D01*
X51300Y461171D01*
X47472Y459585D01*
X43328Y459585D01*
G37*
%LPD*%
%LPC*%
G36*
X43328Y230985D02*
X43328Y230985D01*
X39500Y232571D01*
X36571Y235500D01*
X34985Y239328D01*
X34985Y243472D01*
X36571Y247300D01*
X39500Y250229D01*
X43328Y251815D01*
X47472Y251815D01*
X51300Y250229D01*
X54229Y247300D01*
X55815Y243472D01*
X55815Y239328D01*
X54229Y235500D01*
X51300Y232571D01*
X47472Y230985D01*
X43328Y230985D01*
G37*
%LPD*%
%LPC*%
G36*
X43328Y205585D02*
X43328Y205585D01*
X39500Y207171D01*
X36571Y210100D01*
X34985Y213928D01*
X34985Y218072D01*
X36571Y221900D01*
X39500Y224829D01*
X43328Y226415D01*
X47472Y226415D01*
X51300Y224829D01*
X54229Y221900D01*
X55815Y218072D01*
X55815Y213928D01*
X54229Y210100D01*
X51300Y207171D01*
X47472Y205585D01*
X43328Y205585D01*
G37*
%LPD*%
%LPC*%
G36*
X43328Y180185D02*
X43328Y180185D01*
X39500Y181771D01*
X36571Y184700D01*
X34985Y188528D01*
X34985Y192672D01*
X36571Y196500D01*
X39500Y199429D01*
X43328Y201015D01*
X47472Y201015D01*
X51300Y199429D01*
X54229Y196500D01*
X55815Y192672D01*
X55815Y188528D01*
X54229Y184700D01*
X51300Y181771D01*
X47472Y180185D01*
X43328Y180185D01*
G37*
%LPD*%
%LPC*%
G36*
X43328Y154785D02*
X43328Y154785D01*
X39500Y156371D01*
X36571Y159300D01*
X34985Y163128D01*
X34985Y167272D01*
X36571Y171100D01*
X39500Y174029D01*
X43328Y175615D01*
X47472Y175615D01*
X51300Y174029D01*
X54229Y171100D01*
X55815Y167272D01*
X55815Y163128D01*
X54229Y159300D01*
X51300Y156371D01*
X47472Y154785D01*
X43328Y154785D01*
G37*
%LPD*%
%LPC*%
G36*
X43328Y103985D02*
X43328Y103985D01*
X39500Y105571D01*
X36571Y108500D01*
X34985Y112328D01*
X34985Y116472D01*
X36571Y120300D01*
X39500Y123229D01*
X43328Y124815D01*
X47472Y124815D01*
X51300Y123229D01*
X54229Y120300D01*
X55815Y116472D01*
X55815Y112328D01*
X54229Y108500D01*
X51300Y105571D01*
X47472Y103985D01*
X43328Y103985D01*
G37*
%LPD*%
%LPC*%
G36*
X43328Y78585D02*
X43328Y78585D01*
X39500Y80171D01*
X36571Y83100D01*
X34985Y86928D01*
X34985Y91072D01*
X36571Y94900D01*
X39500Y97829D01*
X43328Y99415D01*
X47472Y99415D01*
X51300Y97829D01*
X54229Y94900D01*
X55815Y91072D01*
X55815Y86928D01*
X54229Y83100D01*
X51300Y80171D01*
X47472Y78585D01*
X43328Y78585D01*
G37*
%LPD*%
%LPC*%
G36*
X43328Y510385D02*
X43328Y510385D01*
X39500Y511971D01*
X36571Y514900D01*
X34985Y518728D01*
X34985Y522872D01*
X36571Y526700D01*
X39500Y529629D01*
X43328Y531215D01*
X47472Y531215D01*
X51300Y529629D01*
X54229Y526700D01*
X55815Y522872D01*
X55815Y518728D01*
X54229Y514900D01*
X51300Y511971D01*
X47472Y510385D01*
X43328Y510385D01*
G37*
%LPD*%
%LPC*%
G36*
X43328Y434185D02*
X43328Y434185D01*
X39500Y435771D01*
X36571Y438700D01*
X34985Y442528D01*
X34985Y446672D01*
X36571Y450500D01*
X39500Y453429D01*
X43328Y455015D01*
X47472Y455015D01*
X51300Y453429D01*
X54229Y450500D01*
X55815Y446672D01*
X55815Y442528D01*
X54229Y438700D01*
X51300Y435771D01*
X47472Y434185D01*
X43328Y434185D01*
G37*
%LPD*%
%LPC*%
G36*
X43328Y408785D02*
X43328Y408785D01*
X39500Y410371D01*
X36571Y413300D01*
X34985Y417128D01*
X34985Y421272D01*
X36571Y425100D01*
X39500Y428029D01*
X43328Y429615D01*
X47472Y429615D01*
X51300Y428029D01*
X54229Y425100D01*
X55815Y421272D01*
X55815Y417128D01*
X54229Y413300D01*
X51300Y410371D01*
X47472Y408785D01*
X43328Y408785D01*
G37*
%LPD*%
%LPC*%
G36*
X43328Y53185D02*
X43328Y53185D01*
X39500Y54771D01*
X36571Y57700D01*
X34985Y61528D01*
X34985Y65672D01*
X36571Y69500D01*
X39500Y72429D01*
X43328Y74015D01*
X47472Y74015D01*
X51300Y72429D01*
X54229Y69500D01*
X55815Y65672D01*
X55815Y61528D01*
X54229Y57700D01*
X51300Y54771D01*
X47472Y53185D01*
X43328Y53185D01*
G37*
%LPD*%
%LPC*%
G36*
X43328Y383385D02*
X43328Y383385D01*
X39500Y384971D01*
X36571Y387900D01*
X34985Y391728D01*
X34985Y395872D01*
X36571Y399700D01*
X39500Y402629D01*
X43328Y404215D01*
X47472Y404215D01*
X51300Y402629D01*
X54229Y399700D01*
X55815Y395872D01*
X55815Y391728D01*
X54229Y387900D01*
X51300Y384971D01*
X47472Y383385D01*
X43328Y383385D01*
G37*
%LPD*%
%LPC*%
G36*
X43328Y357985D02*
X43328Y357985D01*
X39500Y359571D01*
X36571Y362500D01*
X34985Y366328D01*
X34985Y370472D01*
X36571Y374300D01*
X39500Y377229D01*
X43328Y378815D01*
X47472Y378815D01*
X51300Y377229D01*
X54229Y374300D01*
X55815Y370472D01*
X55815Y366328D01*
X54229Y362500D01*
X51300Y359571D01*
X47472Y357985D01*
X43328Y357985D01*
G37*
%LPD*%
%LPC*%
G36*
X43328Y332585D02*
X43328Y332585D01*
X39500Y334171D01*
X36571Y337100D01*
X34985Y340928D01*
X34985Y345072D01*
X36571Y348900D01*
X39500Y351829D01*
X43328Y353415D01*
X47472Y353415D01*
X51300Y351829D01*
X54229Y348900D01*
X55815Y345072D01*
X55815Y340928D01*
X54229Y337100D01*
X51300Y334171D01*
X47472Y332585D01*
X43328Y332585D01*
G37*
%LPD*%
%LPC*%
G36*
X43328Y307185D02*
X43328Y307185D01*
X39500Y308771D01*
X36571Y311700D01*
X34985Y315528D01*
X34985Y319672D01*
X36571Y323500D01*
X39500Y326429D01*
X43328Y328015D01*
X47472Y328015D01*
X51300Y326429D01*
X54229Y323500D01*
X55815Y319672D01*
X55815Y315528D01*
X54229Y311700D01*
X51300Y308771D01*
X47472Y307185D01*
X43328Y307185D01*
G37*
%LPD*%
%LPC*%
G36*
X43328Y281785D02*
X43328Y281785D01*
X39500Y283371D01*
X36571Y286300D01*
X34985Y290128D01*
X34985Y294272D01*
X36571Y298100D01*
X39500Y301029D01*
X43328Y302615D01*
X47472Y302615D01*
X51300Y301029D01*
X54229Y298100D01*
X55815Y294272D01*
X55815Y290128D01*
X54229Y286300D01*
X51300Y283371D01*
X47472Y281785D01*
X43328Y281785D01*
G37*
%LPD*%
%LPC*%
G36*
X43328Y256385D02*
X43328Y256385D01*
X39500Y257971D01*
X36571Y260900D01*
X34985Y264728D01*
X34985Y268872D01*
X36571Y272700D01*
X39500Y275629D01*
X43328Y277215D01*
X47472Y277215D01*
X51300Y275629D01*
X54229Y272700D01*
X55815Y268872D01*
X55815Y264728D01*
X54229Y260900D01*
X51300Y257971D01*
X47472Y256385D01*
X43328Y256385D01*
G37*
%LPD*%
%LPC*%
G36*
X43328Y484985D02*
X43328Y484985D01*
X39500Y486571D01*
X36571Y489500D01*
X34985Y493328D01*
X34985Y497472D01*
X36571Y501300D01*
X39500Y504229D01*
X43328Y505815D01*
X47472Y505815D01*
X51300Y504229D01*
X54229Y501300D01*
X55815Y497472D01*
X55815Y493328D01*
X54229Y489500D01*
X51300Y486571D01*
X47472Y484985D01*
X43328Y484985D01*
G37*
%LPD*%
%LPC*%
G36*
X321396Y92693D02*
X321396Y92693D01*
X315593Y98496D01*
X315593Y106704D01*
X321396Y112507D01*
X329604Y112507D01*
X335407Y106704D01*
X335407Y98496D01*
X329604Y92693D01*
X321396Y92693D01*
G37*
%LPD*%
%LPC*%
G36*
X288196Y581793D02*
X288196Y581793D01*
X282393Y587596D01*
X282393Y595804D01*
X288196Y601607D01*
X296404Y601607D01*
X302207Y595804D01*
X302207Y587596D01*
X296404Y581793D01*
X288196Y581793D01*
G37*
%LPD*%
%LPC*%
G36*
X245396Y581693D02*
X245396Y581693D01*
X239593Y587496D01*
X239593Y595704D01*
X245396Y601507D01*
X253604Y601507D01*
X259407Y595704D01*
X259407Y587496D01*
X253604Y581693D01*
X245396Y581693D01*
G37*
%LPD*%
%LPC*%
G36*
X289896Y16493D02*
X289896Y16493D01*
X284093Y22296D01*
X284093Y30504D01*
X289896Y36307D01*
X298104Y36307D01*
X303907Y30504D01*
X303907Y22296D01*
X298104Y16493D01*
X289896Y16493D01*
G37*
%LPD*%
%LPC*%
G36*
X93796Y266593D02*
X93796Y266593D01*
X87993Y272396D01*
X87993Y280604D01*
X93796Y286407D01*
X102004Y286407D01*
X107807Y280604D01*
X107807Y272396D01*
X102004Y266593D01*
X93796Y266593D01*
G37*
%LPD*%
%LPC*%
G36*
X169996Y266593D02*
X169996Y266593D01*
X164193Y272396D01*
X164193Y280604D01*
X169996Y286407D01*
X178204Y286407D01*
X184007Y280604D01*
X184007Y272396D01*
X178204Y266593D01*
X169996Y266593D01*
G37*
%LPD*%
%LPC*%
G36*
X169496Y154593D02*
X169496Y154593D01*
X163693Y160396D01*
X163693Y168604D01*
X169496Y174407D01*
X177704Y174407D01*
X183507Y168604D01*
X183507Y160396D01*
X177704Y154593D01*
X169496Y154593D01*
G37*
%LPD*%
%LPC*%
G36*
X321396Y16493D02*
X321396Y16493D01*
X315593Y22296D01*
X315593Y30504D01*
X321396Y36307D01*
X329604Y36307D01*
X335407Y30504D01*
X335407Y22296D01*
X329604Y16493D01*
X321396Y16493D01*
G37*
%LPD*%
%LPC*%
G36*
X227396Y16493D02*
X227396Y16493D01*
X221593Y22296D01*
X221593Y30504D01*
X227396Y36307D01*
X235604Y36307D01*
X241407Y30504D01*
X241407Y22296D01*
X235604Y16493D01*
X227396Y16493D01*
G37*
%LPD*%
%LPC*%
G36*
X259396Y16493D02*
X259396Y16493D01*
X253593Y22296D01*
X253593Y30504D01*
X259396Y36307D01*
X267604Y36307D01*
X273407Y30504D01*
X273407Y22296D01*
X267604Y16493D01*
X259396Y16493D01*
G37*
%LPD*%
%LPC*%
G36*
X93796Y209593D02*
X93796Y209593D01*
X87993Y215396D01*
X87993Y223604D01*
X93796Y229407D01*
X102004Y229407D01*
X107807Y223604D01*
X107807Y215396D01*
X102004Y209593D01*
X93796Y209593D01*
G37*
%LPD*%
%LPC*%
G36*
X227396Y92693D02*
X227396Y92693D01*
X221593Y98496D01*
X221593Y106704D01*
X227396Y112507D01*
X235604Y112507D01*
X241407Y106704D01*
X241407Y98496D01*
X235604Y92693D01*
X227396Y92693D01*
G37*
%LPD*%
%LPC*%
G36*
X93296Y154593D02*
X93296Y154593D01*
X87493Y160396D01*
X87493Y168604D01*
X93296Y174407D01*
X101504Y174407D01*
X107307Y168604D01*
X107307Y160396D01*
X101504Y154593D01*
X93296Y154593D01*
G37*
%LPD*%
%LPC*%
G36*
X259396Y92693D02*
X259396Y92693D01*
X253593Y98496D01*
X253593Y106704D01*
X259396Y112507D01*
X267604Y112507D01*
X273407Y106704D01*
X273407Y98496D01*
X267604Y92693D01*
X259396Y92693D01*
G37*
%LPD*%
%LPC*%
G36*
X169996Y181593D02*
X169996Y181593D01*
X164193Y187396D01*
X164193Y195604D01*
X169996Y201407D01*
X178204Y201407D01*
X184007Y195604D01*
X184007Y187396D01*
X178204Y181593D01*
X169996Y181593D01*
G37*
%LPD*%
%LPC*%
G36*
X93796Y238093D02*
X93796Y238093D01*
X87993Y243896D01*
X87993Y252104D01*
X93796Y257907D01*
X102004Y257907D01*
X107807Y252104D01*
X107807Y243896D01*
X102004Y238093D01*
X93796Y238093D01*
G37*
%LPD*%
%LPC*%
G36*
X370423Y64623D02*
X370423Y64623D01*
X370423Y78289D01*
X372469Y77965D01*
X374750Y77224D01*
X376888Y76135D01*
X378829Y74725D01*
X380525Y73029D01*
X381935Y71088D01*
X383024Y68950D01*
X383765Y66669D01*
X384089Y64623D01*
X370423Y64623D01*
G37*
%LPD*%
%LPC*%
G36*
X370423Y61577D02*
X370423Y61577D01*
X384089Y61577D01*
X383765Y59531D01*
X383024Y57250D01*
X381935Y55112D01*
X380525Y53171D01*
X378829Y51475D01*
X376888Y50065D01*
X374750Y48976D01*
X372469Y48235D01*
X370423Y47911D01*
X370423Y61577D01*
G37*
%LPD*%
%LPC*%
G36*
X353711Y64623D02*
X353711Y64623D01*
X354035Y66669D01*
X354776Y68950D01*
X355865Y71088D01*
X357275Y73029D01*
X358971Y74725D01*
X360912Y76135D01*
X363050Y77224D01*
X365331Y77965D01*
X367377Y78289D01*
X367377Y64623D01*
X353711Y64623D01*
G37*
%LPD*%
%LPC*%
G36*
X365331Y48235D02*
X365331Y48235D01*
X363050Y48976D01*
X360912Y50065D01*
X358971Y51475D01*
X357275Y53171D01*
X355865Y55112D01*
X354776Y57250D01*
X354035Y59531D01*
X353711Y61577D01*
X367377Y61577D01*
X367377Y47911D01*
X365331Y48235D01*
G37*
%LPD*%
%LPC*%
G36*
X278623Y403923D02*
X278623Y403923D01*
X278623Y416947D01*
X280520Y416646D01*
X282707Y415936D01*
X284755Y414892D01*
X286615Y413541D01*
X288241Y411915D01*
X289592Y410055D01*
X290636Y408007D01*
X291346Y405820D01*
X291647Y403923D01*
X278623Y403923D01*
G37*
%LPD*%
%LPC*%
G36*
X277923Y219323D02*
X277923Y219323D01*
X277923Y232347D01*
X279820Y232046D01*
X282007Y231336D01*
X284055Y230292D01*
X285915Y228941D01*
X287541Y227315D01*
X288892Y225455D01*
X289936Y223407D01*
X290646Y221220D01*
X290947Y219323D01*
X277923Y219323D01*
G37*
%LPD*%
%LPC*%
G36*
X278623Y400877D02*
X278623Y400877D01*
X291647Y400877D01*
X291346Y398980D01*
X290636Y396793D01*
X289592Y394745D01*
X288241Y392885D01*
X286615Y391259D01*
X284755Y389908D01*
X282707Y388864D01*
X280520Y388154D01*
X278623Y387853D01*
X278623Y400877D01*
G37*
%LPD*%
%LPC*%
G36*
X262553Y403923D02*
X262553Y403923D01*
X262854Y405820D01*
X263564Y408007D01*
X264608Y410055D01*
X265959Y411915D01*
X267585Y413541D01*
X269445Y414892D01*
X271493Y415936D01*
X273680Y416646D01*
X275577Y416947D01*
X275577Y403923D01*
X262553Y403923D01*
G37*
%LPD*%
%LPC*%
G36*
X261853Y219323D02*
X261853Y219323D01*
X262154Y221220D01*
X262864Y223407D01*
X263908Y225455D01*
X265259Y227315D01*
X266885Y228941D01*
X268745Y230292D01*
X270793Y231336D01*
X272980Y232046D01*
X274877Y232347D01*
X274877Y219323D01*
X261853Y219323D01*
G37*
%LPD*%
%LPC*%
G36*
X277923Y216277D02*
X277923Y216277D01*
X290947Y216277D01*
X290646Y214380D01*
X289936Y212193D01*
X288892Y210145D01*
X287541Y208285D01*
X285915Y206659D01*
X284055Y205308D01*
X282007Y204264D01*
X279820Y203554D01*
X277923Y203253D01*
X277923Y216277D01*
G37*
%LPD*%
%LPC*%
G36*
X273680Y388154D02*
X273680Y388154D01*
X271493Y388864D01*
X269445Y389908D01*
X267585Y391259D01*
X265959Y392885D01*
X264608Y394745D01*
X263564Y396793D01*
X262854Y398980D01*
X262553Y400877D01*
X275577Y400877D01*
X275577Y387853D01*
X273680Y388154D01*
G37*
%LPD*%
%LPC*%
G36*
X272980Y203554D02*
X272980Y203554D01*
X270793Y204264D01*
X268745Y205308D01*
X266885Y206659D01*
X265259Y208285D01*
X263908Y210145D01*
X262864Y212193D01*
X262154Y214380D01*
X261853Y216277D01*
X274877Y216277D01*
X274877Y203253D01*
X272980Y203554D01*
G37*
%LPD*%
%LPC*%
G36*
X174623Y309923D02*
X174623Y309923D01*
X174623Y324025D01*
X175767Y323797D01*
X177432Y323108D01*
X178930Y322107D01*
X180203Y320834D01*
X181204Y319336D01*
X181893Y317671D01*
X182245Y315905D01*
X182245Y309923D01*
X174623Y309923D01*
G37*
%LPD*%
%LPC*%
G36*
X176623Y28923D02*
X176623Y28923D01*
X176623Y43025D01*
X177767Y42797D01*
X179432Y42108D01*
X180930Y41107D01*
X182203Y39834D01*
X183204Y38336D01*
X183893Y36671D01*
X184245Y34905D01*
X184245Y28923D01*
X176623Y28923D01*
G37*
%LPD*%
%LPC*%
G36*
X98623Y471823D02*
X98623Y471823D01*
X98623Y479445D01*
X104605Y479445D01*
X106371Y479093D01*
X108036Y478404D01*
X109534Y477403D01*
X110807Y476130D01*
X111808Y474632D01*
X112497Y472967D01*
X112725Y471823D01*
X98623Y471823D01*
G37*
%LPD*%
%LPC*%
G36*
X98623Y598823D02*
X98623Y598823D01*
X98623Y606445D01*
X104605Y606445D01*
X106371Y606093D01*
X108036Y605404D01*
X109534Y604403D01*
X110807Y603130D01*
X111808Y601632D01*
X112497Y599967D01*
X112725Y598823D01*
X98623Y598823D01*
G37*
%LPD*%
%LPC*%
G36*
X174623Y306877D02*
X174623Y306877D01*
X182245Y306877D01*
X182245Y300895D01*
X181893Y299129D01*
X181204Y297464D01*
X180203Y295966D01*
X178930Y294693D01*
X177432Y293692D01*
X175767Y293003D01*
X174623Y292775D01*
X174623Y306877D01*
G37*
%LPD*%
%LPC*%
G36*
X81475Y598823D02*
X81475Y598823D01*
X81703Y599967D01*
X82392Y601632D01*
X83393Y603130D01*
X84666Y604403D01*
X86164Y605404D01*
X87829Y606093D01*
X89595Y606445D01*
X95577Y606445D01*
X95577Y598823D01*
X81475Y598823D01*
G37*
%LPD*%
%LPC*%
G36*
X81475Y471823D02*
X81475Y471823D01*
X81703Y472967D01*
X82392Y474632D01*
X83393Y476130D01*
X84666Y477403D01*
X86164Y478404D01*
X87829Y479093D01*
X89595Y479445D01*
X95577Y479445D01*
X95577Y471823D01*
X81475Y471823D01*
G37*
%LPD*%
%LPC*%
G36*
X165955Y28923D02*
X165955Y28923D01*
X165955Y34905D01*
X166307Y36671D01*
X166996Y38336D01*
X167997Y39834D01*
X169270Y41107D01*
X170768Y42108D01*
X172433Y42797D01*
X173577Y43025D01*
X173577Y28923D01*
X165955Y28923D01*
G37*
%LPD*%
%LPC*%
G36*
X98623Y588155D02*
X98623Y588155D01*
X98623Y595777D01*
X112725Y595777D01*
X112497Y594633D01*
X111808Y592968D01*
X110807Y591470D01*
X109534Y590197D01*
X108036Y589196D01*
X106371Y588507D01*
X104605Y588155D01*
X98623Y588155D01*
G37*
%LPD*%
%LPC*%
G36*
X98623Y461155D02*
X98623Y461155D01*
X98623Y468777D01*
X112725Y468777D01*
X112497Y467633D01*
X111808Y465968D01*
X110807Y464470D01*
X109534Y463197D01*
X108036Y462196D01*
X106371Y461507D01*
X104605Y461155D01*
X98623Y461155D01*
G37*
%LPD*%
%LPC*%
G36*
X163955Y309923D02*
X163955Y309923D01*
X163955Y315905D01*
X164307Y317671D01*
X164996Y319336D01*
X165997Y320834D01*
X167270Y322107D01*
X168768Y323108D01*
X170433Y323797D01*
X171577Y324025D01*
X171577Y309923D01*
X163955Y309923D01*
G37*
%LPD*%
%LPC*%
G36*
X89595Y588155D02*
X89595Y588155D01*
X87829Y588507D01*
X86164Y589196D01*
X84666Y590197D01*
X83393Y591470D01*
X82392Y592968D01*
X81703Y594633D01*
X81475Y595777D01*
X95577Y595777D01*
X95577Y588155D01*
X89595Y588155D01*
G37*
%LPD*%
%LPC*%
G36*
X170433Y293003D02*
X170433Y293003D01*
X168768Y293692D01*
X167270Y294693D01*
X165997Y295966D01*
X164996Y297464D01*
X164307Y299129D01*
X163955Y300895D01*
X163955Y306877D01*
X171577Y306877D01*
X171577Y292775D01*
X170433Y293003D01*
G37*
%LPD*%
%LPC*%
G36*
X89595Y461155D02*
X89595Y461155D01*
X87829Y461507D01*
X86164Y462196D01*
X84666Y463197D01*
X83393Y464470D01*
X82392Y465968D01*
X81703Y467633D01*
X81475Y468777D01*
X95577Y468777D01*
X95577Y461155D01*
X89595Y461155D01*
G37*
%LPD*%
%LPC*%
G36*
X46923Y141323D02*
X46923Y141323D01*
X46923Y151132D01*
X48077Y150949D01*
X49788Y150393D01*
X51391Y149576D01*
X52847Y148519D01*
X54119Y147247D01*
X55176Y145791D01*
X55993Y144188D01*
X56549Y142477D01*
X56732Y141323D01*
X46923Y141323D01*
G37*
%LPD*%
%LPC*%
G36*
X21523Y90523D02*
X21523Y90523D01*
X21523Y100332D01*
X22677Y100149D01*
X24388Y99593D01*
X25991Y98776D01*
X27447Y97719D01*
X28719Y96447D01*
X29776Y94991D01*
X30593Y93388D01*
X31149Y91677D01*
X31332Y90523D01*
X21523Y90523D01*
G37*
%LPD*%
%LPC*%
G36*
X21523Y87477D02*
X21523Y87477D01*
X31332Y87477D01*
X31149Y86323D01*
X30593Y84612D01*
X29776Y83009D01*
X28719Y81553D01*
X27447Y80281D01*
X25991Y79224D01*
X24388Y78407D01*
X22677Y77851D01*
X21523Y77668D01*
X21523Y87477D01*
G37*
%LPD*%
%LPC*%
G36*
X46923Y138277D02*
X46923Y138277D01*
X56732Y138277D01*
X56549Y137123D01*
X55993Y135412D01*
X55176Y133809D01*
X54119Y132353D01*
X52847Y131081D01*
X51391Y130024D01*
X49788Y129207D01*
X48077Y128651D01*
X46923Y128468D01*
X46923Y138277D01*
G37*
%LPD*%
%LPC*%
G36*
X34068Y141323D02*
X34068Y141323D01*
X34251Y142477D01*
X34807Y144188D01*
X35624Y145791D01*
X36681Y147247D01*
X37953Y148519D01*
X39409Y149576D01*
X41012Y150393D01*
X42723Y150949D01*
X43877Y151132D01*
X43877Y141323D01*
X34068Y141323D01*
G37*
%LPD*%
%LPC*%
G36*
X42723Y128651D02*
X42723Y128651D01*
X41012Y129207D01*
X39409Y130024D01*
X37953Y131081D01*
X36681Y132353D01*
X35624Y133809D01*
X34807Y135412D01*
X34251Y137123D01*
X34068Y138277D01*
X43877Y138277D01*
X43877Y128468D01*
X42723Y128651D01*
G37*
%LPD*%
%LPC*%
G36*
X293823Y517023D02*
X293823Y517023D01*
X293823Y526423D01*
X296824Y526423D01*
X303223Y520024D01*
X303223Y517023D01*
X293823Y517023D01*
G37*
%LPD*%
%LPC*%
G36*
X251023Y516923D02*
X251023Y516923D01*
X251023Y526323D01*
X254024Y526323D01*
X260423Y519924D01*
X260423Y516923D01*
X251023Y516923D01*
G37*
%LPD*%
%LPC*%
G36*
X98423Y139523D02*
X98423Y139523D01*
X98423Y148923D01*
X101424Y148923D01*
X107823Y142524D01*
X107823Y139523D01*
X98423Y139523D01*
G37*
%LPD*%
%LPC*%
G36*
X175623Y249523D02*
X175623Y249523D01*
X175623Y258923D01*
X178624Y258923D01*
X185023Y252524D01*
X185023Y249523D01*
X175623Y249523D01*
G37*
%LPD*%
%LPC*%
G36*
X99423Y193023D02*
X99423Y193023D01*
X99423Y202423D01*
X102424Y202423D01*
X108823Y196024D01*
X108823Y193023D01*
X99423Y193023D01*
G37*
%LPD*%
%LPC*%
G36*
X85977Y139523D02*
X85977Y139523D01*
X85977Y142524D01*
X92376Y148923D01*
X95377Y148923D01*
X95377Y139523D01*
X85977Y139523D01*
G37*
%LPD*%
%LPC*%
G36*
X99423Y180577D02*
X99423Y180577D01*
X99423Y189977D01*
X108823Y189977D01*
X108823Y186976D01*
X102424Y180577D01*
X99423Y180577D01*
G37*
%LPD*%
%LPC*%
G36*
X98423Y127077D02*
X98423Y127077D01*
X98423Y136477D01*
X107823Y136477D01*
X107823Y133476D01*
X101424Y127077D01*
X98423Y127077D01*
G37*
%LPD*%
%LPC*%
G36*
X86977Y193023D02*
X86977Y193023D01*
X86977Y196024D01*
X93376Y202423D01*
X96377Y202423D01*
X96377Y193023D01*
X86977Y193023D01*
G37*
%LPD*%
%LPC*%
G36*
X175623Y237077D02*
X175623Y237077D01*
X175623Y246477D01*
X185023Y246477D01*
X185023Y243476D01*
X178624Y237077D01*
X175623Y237077D01*
G37*
%LPD*%
%LPC*%
G36*
X163177Y249523D02*
X163177Y249523D01*
X163177Y252524D01*
X169576Y258923D01*
X172577Y258923D01*
X172577Y249523D01*
X163177Y249523D01*
G37*
%LPD*%
%LPC*%
G36*
X281377Y517023D02*
X281377Y517023D01*
X281377Y520024D01*
X287776Y526423D01*
X290777Y526423D01*
X290777Y517023D01*
X281377Y517023D01*
G37*
%LPD*%
%LPC*%
G36*
X251023Y504477D02*
X251023Y504477D01*
X251023Y513877D01*
X260423Y513877D01*
X260423Y510876D01*
X254024Y504477D01*
X251023Y504477D01*
G37*
%LPD*%
%LPC*%
G36*
X293823Y504577D02*
X293823Y504577D01*
X293823Y513977D01*
X303223Y513977D01*
X303223Y510976D01*
X296824Y504577D01*
X293823Y504577D01*
G37*
%LPD*%
%LPC*%
G36*
X238577Y516923D02*
X238577Y516923D01*
X238577Y519924D01*
X244976Y526323D01*
X247977Y526323D01*
X247977Y516923D01*
X238577Y516923D01*
G37*
%LPD*%
%LPC*%
G36*
X93376Y180577D02*
X93376Y180577D01*
X86977Y186976D01*
X86977Y189977D01*
X96377Y189977D01*
X96377Y180577D01*
X93376Y180577D01*
G37*
%LPD*%
%LPC*%
G36*
X92376Y127077D02*
X92376Y127077D01*
X85977Y133476D01*
X85977Y136477D01*
X95377Y136477D01*
X95377Y127077D01*
X92376Y127077D01*
G37*
%LPD*%
%LPC*%
G36*
X169576Y237077D02*
X169576Y237077D01*
X163177Y243476D01*
X163177Y246477D01*
X172577Y246477D01*
X172577Y237077D01*
X169576Y237077D01*
G37*
%LPD*%
%LPC*%
G36*
X244976Y504477D02*
X244976Y504477D01*
X238577Y510876D01*
X238577Y513877D01*
X247977Y513877D01*
X247977Y504477D01*
X244976Y504477D01*
G37*
%LPD*%
%LPC*%
G36*
X287776Y504577D02*
X287776Y504577D01*
X281377Y510976D01*
X281377Y513977D01*
X290777Y513977D01*
X290777Y504577D01*
X287776Y504577D01*
G37*
%LPD*%
%LPC*%
G36*
X97099Y470299D02*
X97099Y470299D01*
X97099Y470301D01*
X97101Y470301D01*
X97101Y470299D01*
X97099Y470299D01*
G37*
%LPD*%
%LPC*%
G36*
X45399Y139799D02*
X45399Y139799D01*
X45399Y139801D01*
X45401Y139801D01*
X45401Y139799D01*
X45399Y139799D01*
G37*
%LPD*%
%LPC*%
G36*
X96899Y137999D02*
X96899Y137999D01*
X96899Y138001D01*
X96901Y138001D01*
X96901Y137999D01*
X96899Y137999D01*
G37*
%LPD*%
%LPC*%
G36*
X174099Y247999D02*
X174099Y247999D01*
X174099Y248001D01*
X174101Y248001D01*
X174101Y247999D01*
X174099Y247999D01*
G37*
%LPD*%
%LPC*%
G36*
X173099Y308399D02*
X173099Y308399D01*
X173099Y308401D01*
X173101Y308401D01*
X173101Y308399D01*
X173099Y308399D01*
G37*
%LPD*%
%LPC*%
G36*
X97899Y191499D02*
X97899Y191499D01*
X97899Y191501D01*
X97901Y191501D01*
X97901Y191499D01*
X97899Y191499D01*
G37*
%LPD*%
%LPC*%
G36*
X277099Y402399D02*
X277099Y402399D01*
X277099Y402401D01*
X277101Y402401D01*
X277101Y402399D01*
X277099Y402399D01*
G37*
%LPD*%
%LPC*%
G36*
X292299Y515499D02*
X292299Y515499D01*
X292299Y515501D01*
X292301Y515501D01*
X292301Y515499D01*
X292299Y515499D01*
G37*
%LPD*%
%LPC*%
G36*
X97099Y597299D02*
X97099Y597299D01*
X97099Y597301D01*
X97101Y597301D01*
X97101Y597299D01*
X97099Y597299D01*
G37*
%LPD*%
%LPC*%
G36*
X249499Y515399D02*
X249499Y515399D01*
X249499Y515401D01*
X249501Y515401D01*
X249501Y515399D01*
X249499Y515399D01*
G37*
%LPD*%
%LPC*%
G36*
X368899Y63099D02*
X368899Y63099D01*
X368899Y63101D01*
X368901Y63101D01*
X368901Y63099D01*
X368899Y63099D01*
G37*
%LPD*%
%LPC*%
G36*
X276399Y217799D02*
X276399Y217799D01*
X276399Y217801D01*
X276401Y217801D01*
X276401Y217799D01*
X276399Y217799D01*
G37*
%LPD*%
D10*
X368900Y63100D03*
D11*
X466900Y38100D03*
X466900Y88100D03*
D12*
X179904Y419500D02*
X166696Y419500D01*
X166696Y444900D02*
X179904Y444900D01*
X179904Y571900D02*
X166696Y571900D01*
X166696Y597300D02*
X179904Y597300D01*
X179904Y470300D02*
X166696Y470300D01*
X166696Y495700D02*
X179904Y495700D01*
X179904Y546500D02*
X166696Y546500D01*
X166696Y521100D02*
X179904Y521100D01*
X103704Y597300D02*
X90496Y597300D01*
X90496Y571900D02*
X103704Y571900D01*
X103704Y546500D02*
X90496Y546500D01*
X90496Y521100D02*
X103704Y521100D01*
X103704Y495700D02*
X90496Y495700D01*
X90496Y470300D02*
X103704Y470300D01*
X103704Y444900D02*
X90496Y444900D01*
X90496Y419500D02*
X103704Y419500D01*
D13*
X45400Y38200D03*
D14*
X20000Y38200D03*
X45400Y63600D03*
X20000Y63600D03*
X45400Y89000D03*
X20000Y89000D03*
X45400Y114400D03*
X20000Y114400D03*
X45400Y139800D03*
X20000Y139800D03*
X45400Y165200D03*
X20000Y165200D03*
X45400Y190600D03*
X20000Y190600D03*
X45400Y216000D03*
X20000Y216000D03*
X45400Y241400D03*
X20000Y241400D03*
X45400Y266800D03*
X20000Y266800D03*
X45400Y292200D03*
X20000Y292200D03*
X45400Y317600D03*
X20000Y317600D03*
X45400Y343000D03*
X20000Y343000D03*
X45400Y368400D03*
X20000Y368400D03*
X45400Y393800D03*
X20000Y393800D03*
X45400Y419200D03*
X20000Y419200D03*
X45400Y444600D03*
X20000Y444600D03*
X45400Y470000D03*
X20000Y470000D03*
X45400Y495400D03*
X20000Y495400D03*
X45400Y520800D03*
X20000Y520800D03*
D15*
X341700Y708500D03*
D16*
X291700Y708500D03*
D15*
X491100Y708700D03*
D16*
X441100Y708700D03*
D17*
X249500Y515400D03*
X249500Y591600D03*
X292300Y515500D03*
X292300Y591700D03*
D18*
X277100Y352400D03*
D19*
X277100Y402400D03*
X277100Y452400D03*
D18*
X276400Y167800D03*
D19*
X276400Y217800D03*
X276400Y267800D03*
D18*
X198500Y709500D03*
D19*
X148500Y709500D03*
X98500Y709500D03*
X48500Y709500D03*
D20*
X173600Y164500D03*
X97400Y164500D03*
D21*
X294000Y102600D03*
X294000Y26400D03*
X325500Y102600D03*
X325500Y26400D03*
X231500Y102600D03*
X231500Y26400D03*
X263500Y102600D03*
X263500Y26400D03*
D20*
X174100Y276500D03*
X97900Y276500D03*
D12*
X98900Y34004D02*
X98900Y20796D01*
X124300Y20796D02*
X124300Y34004D01*
X124300Y96996D02*
X124300Y110204D01*
X98900Y110204D02*
X98900Y96996D01*
X149700Y34004D02*
X149700Y20796D01*
X175100Y20796D02*
X175100Y34004D01*
X149700Y96996D02*
X149700Y110204D01*
X175100Y110204D02*
X175100Y96996D01*
X96900Y301796D02*
X96900Y315004D01*
X122300Y315004D02*
X122300Y301796D01*
X122300Y377996D02*
X122300Y391204D01*
X96900Y391204D02*
X96900Y377996D01*
X147700Y315004D02*
X147700Y301796D01*
X173100Y301796D02*
X173100Y315004D01*
X147700Y377996D02*
X147700Y391204D01*
X173100Y391204D02*
X173100Y377996D01*
D20*
X173100Y138000D03*
X96900Y138000D03*
D22*
X97900Y248000D03*
X174100Y248000D03*
X97900Y191500D03*
X174100Y191500D03*
X97900Y219500D03*
X174100Y219500D03*
D23*
X248412Y246888D02*
X268224Y266700D01*
X275844Y266700D01*
X276400Y267800D01*
X292608Y708660D02*
X316992Y708660D01*
X330708Y722376D01*
X428244Y722376D01*
X440436Y710184D01*
X292608Y708660D02*
X291700Y708500D01*
X440436Y710184D02*
X441100Y708700D01*
X109728Y445008D02*
X97536Y445008D01*
X109728Y445008D02*
X111252Y446532D01*
X114300Y446532D01*
X150876Y483108D01*
X237744Y483108D01*
X263652Y457200D01*
X265176Y457200D01*
X269748Y452628D01*
X275844Y452628D01*
X97536Y445008D02*
X97100Y444900D01*
X275844Y452628D02*
X277100Y452400D01*
X277368Y277368D02*
X277368Y268224D01*
X277368Y277368D02*
X295656Y295656D01*
X295656Y425196D01*
X281940Y438912D01*
X281940Y440436D01*
X277368Y445008D01*
X277368Y451104D01*
X277368Y268224D02*
X276400Y267800D01*
X277368Y451104D02*
X277100Y452400D01*
D24*
X248412Y246888D03*
D23*
X172212Y573024D02*
X169164Y573024D01*
X99060Y643128D01*
X99060Y708660D01*
X172212Y573024D02*
X173300Y571900D01*
X99060Y708660D02*
X98500Y709500D01*
X292608Y102108D02*
X237744Y47244D01*
X140208Y47244D01*
X124968Y32004D01*
X124968Y27432D01*
X292608Y102108D02*
X294000Y102600D01*
X124968Y27432D02*
X124300Y27400D01*
X173736Y123444D02*
X173736Y137160D01*
X173736Y123444D02*
X176784Y120396D01*
X176784Y105156D01*
X175260Y103632D01*
X173736Y137160D02*
X173100Y138000D01*
X175260Y103632D02*
X175100Y103600D01*
X123444Y385572D02*
X123444Y399288D01*
X153924Y429768D01*
X153924Y449580D01*
X173736Y469392D01*
X123444Y385572D02*
X122300Y384600D01*
X173736Y469392D02*
X173300Y470300D01*
X135636Y259080D02*
X173736Y220980D01*
X135636Y259080D02*
X135636Y362712D01*
X123444Y374904D01*
X123444Y384048D01*
X173736Y220980D02*
X174100Y219500D01*
X123444Y384048D02*
X122300Y384600D01*
M02*
