G04 EAGLE Gerber RS-274X export*
G75*
%MOMM*%
%FSLAX34Y34*%
%LPD*%
%INBottom Copper*%
%IPPOS*%
%AMOC8*
5,1,8,0,0,1.08239X$1,22.5*%
G01*
%ADD10C,2.540000*%
%ADD11R,1.950000X1.950000*%
%ADD12C,1.320800*%
%ADD13R,1.778000X1.778000*%
%ADD14C,1.778000*%
%ADD15R,2.032000X2.032000*%
%ADD16C,2.032000*%
%ADD17P,1.814519X8X112.500000*%
%ADD18R,2.413000X2.413000*%
%ADD19C,2.413000*%
%ADD20P,1.814519X8X202.500000*%
%ADD21P,1.814519X8X292.500000*%
%ADD22P,1.814519X8X22.500000*%
%ADD23C,0.152400*%
%ADD24C,0.756400*%


D10*
X368900Y63100D03*
D11*
X466900Y38100D03*
X466900Y88100D03*
D12*
X179904Y419500D02*
X166696Y419500D01*
X166696Y444900D02*
X179904Y444900D01*
X179904Y571900D02*
X166696Y571900D01*
X166696Y597300D02*
X179904Y597300D01*
X179904Y470300D02*
X166696Y470300D01*
X166696Y495700D02*
X179904Y495700D01*
X179904Y546500D02*
X166696Y546500D01*
X166696Y521100D02*
X179904Y521100D01*
X103704Y597300D02*
X90496Y597300D01*
X90496Y571900D02*
X103704Y571900D01*
X103704Y546500D02*
X90496Y546500D01*
X90496Y521100D02*
X103704Y521100D01*
X103704Y495700D02*
X90496Y495700D01*
X90496Y470300D02*
X103704Y470300D01*
X103704Y444900D02*
X90496Y444900D01*
X90496Y419500D02*
X103704Y419500D01*
D13*
X45400Y38200D03*
D14*
X20000Y38200D03*
X45400Y63600D03*
X20000Y63600D03*
X45400Y89000D03*
X20000Y89000D03*
X45400Y114400D03*
X20000Y114400D03*
X45400Y139800D03*
X20000Y139800D03*
X45400Y165200D03*
X20000Y165200D03*
X45400Y190600D03*
X20000Y190600D03*
X45400Y216000D03*
X20000Y216000D03*
X45400Y241400D03*
X20000Y241400D03*
X45400Y266800D03*
X20000Y266800D03*
X45400Y292200D03*
X20000Y292200D03*
X45400Y317600D03*
X20000Y317600D03*
X45400Y343000D03*
X20000Y343000D03*
X45400Y368400D03*
X20000Y368400D03*
X45400Y393800D03*
X20000Y393800D03*
X45400Y419200D03*
X20000Y419200D03*
X45400Y444600D03*
X20000Y444600D03*
X45400Y470000D03*
X20000Y470000D03*
X45400Y495400D03*
X20000Y495400D03*
X45400Y520800D03*
X20000Y520800D03*
D15*
X341700Y708500D03*
D16*
X291700Y708500D03*
D15*
X491100Y708700D03*
D16*
X441100Y708700D03*
D17*
X249500Y515400D03*
X249500Y591600D03*
X292300Y515500D03*
X292300Y591700D03*
D18*
X277100Y352400D03*
D19*
X277100Y402400D03*
X277100Y452400D03*
D18*
X276400Y167800D03*
D19*
X276400Y217800D03*
X276400Y267800D03*
D18*
X198500Y709500D03*
D19*
X148500Y709500D03*
X98500Y709500D03*
X48500Y709500D03*
D20*
X173600Y164500D03*
X97400Y164500D03*
D21*
X294000Y102600D03*
X294000Y26400D03*
X325500Y102600D03*
X325500Y26400D03*
X231500Y102600D03*
X231500Y26400D03*
X263500Y102600D03*
X263500Y26400D03*
D20*
X174100Y276500D03*
X97900Y276500D03*
D12*
X98900Y34004D02*
X98900Y20796D01*
X124300Y20796D02*
X124300Y34004D01*
X124300Y96996D02*
X124300Y110204D01*
X98900Y110204D02*
X98900Y96996D01*
X149700Y34004D02*
X149700Y20796D01*
X175100Y20796D02*
X175100Y34004D01*
X149700Y96996D02*
X149700Y110204D01*
X175100Y110204D02*
X175100Y96996D01*
X96900Y301796D02*
X96900Y315004D01*
X122300Y315004D02*
X122300Y301796D01*
X122300Y377996D02*
X122300Y391204D01*
X96900Y391204D02*
X96900Y377996D01*
X147700Y315004D02*
X147700Y301796D01*
X173100Y301796D02*
X173100Y315004D01*
X147700Y377996D02*
X147700Y391204D01*
X173100Y391204D02*
X173100Y377996D01*
D20*
X173100Y138000D03*
X96900Y138000D03*
D22*
X97900Y248000D03*
X174100Y248000D03*
X97900Y191500D03*
X174100Y191500D03*
X97900Y219500D03*
X174100Y219500D03*
D23*
X96012Y489204D02*
X96012Y495300D01*
X96012Y489204D02*
X64008Y457200D01*
X64008Y336804D01*
X45720Y318516D01*
X96012Y495300D02*
X97100Y495700D01*
X45720Y318516D02*
X45400Y317600D01*
X97536Y541020D02*
X97536Y545592D01*
X97536Y541020D02*
X112776Y525780D01*
X112776Y348996D01*
X60960Y297180D01*
X60960Y283464D01*
X45720Y268224D01*
X97536Y545592D02*
X97100Y546500D01*
X45720Y268224D02*
X45400Y266800D01*
X96012Y515112D02*
X96012Y519684D01*
X96012Y515112D02*
X60960Y480060D01*
X60960Y341376D01*
X48768Y329184D01*
X41148Y329184D01*
X33528Y321564D01*
X33528Y303276D01*
X44196Y292608D01*
X96012Y519684D02*
X97100Y521100D01*
X44196Y292608D02*
X45400Y292200D01*
X24384Y39624D02*
X21336Y39624D01*
X24384Y39624D02*
X36576Y51816D01*
X67056Y51816D01*
X114300Y99060D01*
X114300Y120396D01*
X173736Y179832D01*
X181356Y179832D01*
X248412Y246888D01*
X21336Y39624D02*
X20000Y38200D01*
X97536Y420624D02*
X97536Y443484D01*
X97536Y420624D02*
X97100Y419500D01*
X97536Y443484D02*
X97100Y444900D01*
X393192Y708660D02*
X440436Y708660D01*
X393192Y708660D02*
X277368Y592836D01*
X277368Y452628D01*
X440436Y708660D02*
X441100Y708700D01*
X277368Y452628D02*
X277100Y452400D01*
D24*
X248412Y246888D03*
D23*
X173736Y420624D02*
X173736Y425196D01*
X237744Y489204D01*
X237744Y580644D01*
X248412Y591312D01*
X173736Y420624D02*
X173300Y419500D01*
X248412Y591312D02*
X249500Y591600D01*
X341376Y684276D02*
X341376Y707136D01*
X341376Y684276D02*
X249936Y592836D01*
X341376Y707136D02*
X341700Y708500D01*
X249936Y592836D02*
X249500Y591600D01*
X172212Y443484D02*
X172212Y438912D01*
X156972Y423672D01*
X156972Y416052D01*
X163068Y409956D01*
X256032Y409956D01*
X303276Y457200D01*
X303276Y580644D01*
X292608Y591312D01*
X173300Y444900D02*
X172212Y443484D01*
X292608Y591312D02*
X292300Y591700D01*
X458724Y708660D02*
X490728Y708660D01*
X458724Y708660D02*
X330708Y580644D01*
X303276Y580644D01*
X490728Y708660D02*
X491100Y708700D01*
X173736Y527304D02*
X173736Y521208D01*
X173736Y527304D02*
X198120Y551688D01*
X198120Y708660D01*
X173736Y521208D02*
X173300Y521100D01*
X198120Y708660D02*
X198500Y709500D01*
X173736Y551688D02*
X173736Y547116D01*
X173736Y551688D02*
X188976Y566928D01*
X188976Y669036D01*
X149352Y708660D01*
X173736Y547116D02*
X173300Y546500D01*
X149352Y708660D02*
X148500Y709500D01*
X160020Y597408D02*
X172212Y597408D01*
X160020Y597408D02*
X48768Y708660D01*
X172212Y597408D02*
X173300Y597300D01*
X48768Y708660D02*
X48500Y709500D01*
X96012Y571500D02*
X96012Y565404D01*
X57912Y527304D01*
X57912Y364236D01*
X48768Y355092D01*
X41148Y355092D01*
X32004Y345948D01*
X32004Y329184D01*
X21336Y318516D01*
X96012Y571500D02*
X97100Y571900D01*
X21336Y318516D02*
X20000Y317600D01*
X147828Y307848D02*
X153924Y307848D01*
X173736Y288036D01*
X216408Y288036D01*
X254508Y249936D01*
X254508Y114300D01*
X242316Y102108D01*
X242316Y53340D01*
X219456Y30480D01*
X219456Y22860D01*
X227076Y15240D01*
X281940Y15240D01*
X292608Y25908D01*
X147828Y307848D02*
X147700Y308400D01*
X292608Y25908D02*
X294000Y26400D01*
X294132Y27432D02*
X324612Y27432D01*
X325500Y26400D01*
X294132Y27432D02*
X294000Y26400D01*
X123444Y27432D02*
X99060Y27432D01*
X98900Y27400D01*
X123444Y27432D02*
X124300Y27400D01*
X324612Y103632D02*
X324612Y120396D01*
X277368Y167640D01*
X324612Y103632D02*
X325500Y102600D01*
X277368Y167640D02*
X276400Y167800D01*
X173736Y335280D02*
X173736Y384048D01*
X173736Y335280D02*
X257556Y251460D01*
X257556Y112776D01*
X251460Y106680D01*
X251460Y38100D01*
X262128Y27432D01*
X173736Y384048D02*
X173100Y384600D01*
X262128Y27432D02*
X263500Y26400D01*
X240792Y27432D02*
X231648Y27432D01*
X240792Y27432D02*
X251460Y38100D01*
X231648Y27432D02*
X231500Y26400D01*
X149352Y103632D02*
X124968Y103632D01*
X124300Y103600D01*
X149352Y103632D02*
X149700Y103600D01*
X195072Y103632D02*
X230124Y103632D01*
X195072Y103632D02*
X178308Y120396D01*
X167640Y120396D01*
X150876Y103632D01*
X230124Y103632D02*
X231500Y102600D01*
X150876Y103632D02*
X149700Y103600D01*
X262128Y103632D02*
X262128Y153924D01*
X260604Y155448D01*
X260604Y336804D01*
X275844Y352044D01*
X262128Y103632D02*
X263500Y102600D01*
X275844Y352044D02*
X277100Y352400D01*
X99060Y124968D02*
X99060Y103632D01*
X99060Y124968D02*
X108204Y134112D01*
X108204Y152400D01*
X97536Y163068D01*
X99060Y103632D02*
X98900Y103600D01*
X97536Y163068D02*
X97400Y164500D01*
X96012Y336804D02*
X96012Y384048D01*
X96012Y336804D02*
X57912Y298704D01*
X57912Y288036D01*
X48768Y278892D01*
X41148Y278892D01*
X33528Y271272D01*
X33528Y236220D01*
X41148Y228600D01*
X48768Y228600D01*
X86868Y190500D01*
X86868Y173736D01*
X96012Y164592D01*
X96012Y384048D02*
X96900Y384600D01*
X96012Y164592D02*
X97400Y164500D01*
X28956Y64008D02*
X21336Y64008D01*
X28956Y64008D02*
X42672Y77724D01*
X73152Y77724D01*
X97536Y102108D01*
X21336Y64008D02*
X20000Y63600D01*
X97536Y102108D02*
X98900Y103600D01*
X173736Y138684D02*
X173736Y163068D01*
X173736Y138684D02*
X173100Y138000D01*
X173736Y163068D02*
X173600Y164500D01*
X150876Y79248D02*
X150876Y27432D01*
X150876Y79248D02*
X173736Y102108D01*
X150876Y27432D02*
X149700Y27400D01*
X173736Y102108D02*
X175100Y103600D01*
X97536Y277368D02*
X97536Y307848D01*
X96900Y308400D01*
X97536Y277368D02*
X97900Y276500D01*
X172212Y489204D02*
X172212Y495300D01*
X172212Y489204D02*
X153924Y470916D01*
X153924Y397764D01*
X156972Y394716D01*
X156972Y368808D01*
X97536Y309372D01*
X172212Y495300D02*
X173300Y495700D01*
X97536Y309372D02*
X96900Y308400D01*
X123444Y307848D02*
X128016Y307848D01*
X143256Y292608D02*
X158496Y277368D01*
X143256Y292608D02*
X128016Y307848D01*
X158496Y277368D02*
X173736Y277368D01*
X123444Y307848D02*
X122300Y308400D01*
X173736Y277368D02*
X174100Y276500D01*
X143256Y292608D02*
X99060Y248412D01*
X97900Y248000D01*
X146304Y377952D02*
X146304Y384048D01*
X146304Y377952D02*
X86868Y318516D01*
X86868Y231648D01*
X97536Y220980D01*
X146304Y384048D02*
X147700Y384600D01*
X97536Y220980D02*
X97900Y219500D01*
X126492Y192024D02*
X173736Y192024D01*
X126492Y192024D02*
X99060Y219456D01*
X173736Y192024D02*
X174100Y191500D01*
X99060Y219456D02*
X97900Y219500D01*
M02*
