G04 EAGLE Gerber RS-274X export*
G75*
%MOMM*%
%FSLAX34Y34*%
%LPD*%
%INSilkscreen Bottom*%
%IPPOS*%
%AMOC8*
5,1,8,0,0,1.08239X$1,22.5*%
G01*
%ADD10C,0.076200*%


D10*
X253619Y535692D02*
X247890Y534055D01*
X247890Y538147D01*
X249527Y536919D02*
X246253Y536919D01*
X246253Y541017D02*
X246662Y541017D01*
X246662Y541426D01*
X246253Y541426D01*
X246253Y541017D01*
X252801Y544296D02*
X253619Y544296D01*
X253619Y548388D01*
X246253Y546342D01*
X246253Y555772D02*
X253619Y555772D01*
X251164Y559046D02*
X248708Y555772D01*
X249731Y557204D02*
X246253Y559046D01*
X251164Y561931D02*
X251260Y561933D01*
X251357Y561939D01*
X251453Y561948D01*
X251548Y561961D01*
X251643Y561978D01*
X251737Y561999D01*
X251830Y562023D01*
X251923Y562051D01*
X252014Y562083D01*
X252103Y562118D01*
X252192Y562157D01*
X252279Y562199D01*
X252364Y562244D01*
X252447Y562293D01*
X252528Y562345D01*
X252607Y562400D01*
X252684Y562458D01*
X252758Y562519D01*
X252830Y562583D01*
X252900Y562650D01*
X252967Y562720D01*
X253031Y562792D01*
X253092Y562866D01*
X253150Y562943D01*
X253205Y563022D01*
X253257Y563103D01*
X253306Y563186D01*
X253351Y563271D01*
X253393Y563358D01*
X253432Y563447D01*
X253467Y563536D01*
X253499Y563627D01*
X253527Y563720D01*
X253551Y563813D01*
X253572Y563907D01*
X253589Y564002D01*
X253602Y564097D01*
X253611Y564193D01*
X253617Y564290D01*
X253619Y564386D01*
X251164Y561931D02*
X250345Y561931D01*
X250252Y561933D01*
X250160Y561938D01*
X250067Y561948D01*
X249975Y561961D01*
X249884Y561977D01*
X249793Y561998D01*
X249704Y562021D01*
X249615Y562049D01*
X249527Y562080D01*
X249441Y562114D01*
X249357Y562152D01*
X249273Y562193D01*
X249192Y562238D01*
X249112Y562286D01*
X249035Y562337D01*
X248959Y562391D01*
X248886Y562448D01*
X248815Y562507D01*
X248746Y562570D01*
X248680Y562635D01*
X248617Y562703D01*
X248557Y562774D01*
X248499Y562846D01*
X248444Y562921D01*
X248393Y562999D01*
X248344Y563078D01*
X248299Y563159D01*
X248299Y563158D02*
X246253Y563158D01*
X246253Y561931D01*
X251164Y566841D02*
X251260Y566839D01*
X251357Y566833D01*
X251453Y566824D01*
X251548Y566811D01*
X251643Y566794D01*
X251737Y566773D01*
X251830Y566749D01*
X251923Y566721D01*
X252014Y566689D01*
X252103Y566654D01*
X252192Y566615D01*
X252279Y566573D01*
X252364Y566528D01*
X252447Y566479D01*
X252528Y566427D01*
X252607Y566372D01*
X252684Y566314D01*
X252758Y566253D01*
X252830Y566189D01*
X252900Y566122D01*
X252967Y566052D01*
X253031Y565980D01*
X253092Y565906D01*
X253150Y565829D01*
X253205Y565750D01*
X253257Y565669D01*
X253306Y565586D01*
X253351Y565501D01*
X253393Y565414D01*
X253432Y565325D01*
X253467Y565236D01*
X253499Y565145D01*
X253527Y565052D01*
X253551Y564959D01*
X253572Y564865D01*
X253589Y564770D01*
X253602Y564675D01*
X253611Y564579D01*
X253617Y564482D01*
X253619Y564386D01*
X251164Y566841D02*
X250345Y566841D01*
X250345Y566842D02*
X250252Y566840D01*
X250160Y566835D01*
X250067Y566825D01*
X249975Y566812D01*
X249884Y566796D01*
X249793Y566775D01*
X249704Y566752D01*
X249615Y566724D01*
X249527Y566693D01*
X249441Y566659D01*
X249357Y566621D01*
X249273Y566580D01*
X249192Y566535D01*
X249112Y566487D01*
X249035Y566436D01*
X248959Y566382D01*
X248886Y566325D01*
X248815Y566266D01*
X248746Y566203D01*
X248680Y566138D01*
X248617Y566070D01*
X248557Y565999D01*
X248499Y565927D01*
X248444Y565852D01*
X248393Y565774D01*
X248344Y565695D01*
X248299Y565614D01*
X246253Y565614D01*
X246253Y566841D01*
X290890Y535055D02*
X296619Y536692D01*
X290890Y535055D02*
X290890Y539147D01*
X292527Y537919D02*
X289253Y537919D01*
X289253Y542017D02*
X289662Y542017D01*
X289662Y542426D01*
X289253Y542426D01*
X289253Y542017D01*
X295801Y545296D02*
X296619Y545296D01*
X296619Y549388D01*
X289253Y547342D01*
X289253Y556772D02*
X296619Y556772D01*
X294164Y560046D02*
X291708Y556772D01*
X292731Y558204D02*
X289253Y560046D01*
X294164Y562931D02*
X294260Y562933D01*
X294357Y562939D01*
X294453Y562948D01*
X294548Y562961D01*
X294643Y562978D01*
X294737Y562999D01*
X294830Y563023D01*
X294923Y563051D01*
X295014Y563083D01*
X295103Y563118D01*
X295192Y563157D01*
X295279Y563199D01*
X295364Y563244D01*
X295447Y563293D01*
X295528Y563345D01*
X295607Y563400D01*
X295684Y563458D01*
X295758Y563519D01*
X295830Y563583D01*
X295900Y563650D01*
X295967Y563720D01*
X296031Y563792D01*
X296092Y563866D01*
X296150Y563943D01*
X296205Y564022D01*
X296257Y564103D01*
X296306Y564186D01*
X296351Y564271D01*
X296393Y564358D01*
X296432Y564447D01*
X296467Y564536D01*
X296499Y564627D01*
X296527Y564720D01*
X296551Y564813D01*
X296572Y564907D01*
X296589Y565002D01*
X296602Y565097D01*
X296611Y565193D01*
X296617Y565290D01*
X296619Y565386D01*
X294164Y562931D02*
X293345Y562931D01*
X293252Y562933D01*
X293160Y562938D01*
X293067Y562948D01*
X292975Y562961D01*
X292884Y562977D01*
X292793Y562998D01*
X292704Y563021D01*
X292615Y563049D01*
X292527Y563080D01*
X292441Y563114D01*
X292357Y563152D01*
X292273Y563193D01*
X292192Y563238D01*
X292112Y563286D01*
X292035Y563337D01*
X291959Y563391D01*
X291886Y563448D01*
X291815Y563507D01*
X291746Y563570D01*
X291680Y563635D01*
X291617Y563703D01*
X291557Y563774D01*
X291499Y563846D01*
X291444Y563921D01*
X291393Y563999D01*
X291344Y564078D01*
X291299Y564159D01*
X291299Y564158D02*
X289253Y564158D01*
X289253Y562931D01*
X294164Y567841D02*
X294260Y567839D01*
X294357Y567833D01*
X294453Y567824D01*
X294548Y567811D01*
X294643Y567794D01*
X294737Y567773D01*
X294830Y567749D01*
X294923Y567721D01*
X295014Y567689D01*
X295103Y567654D01*
X295192Y567615D01*
X295279Y567573D01*
X295364Y567528D01*
X295447Y567479D01*
X295528Y567427D01*
X295607Y567372D01*
X295684Y567314D01*
X295758Y567253D01*
X295830Y567189D01*
X295900Y567122D01*
X295967Y567052D01*
X296031Y566980D01*
X296092Y566906D01*
X296150Y566829D01*
X296205Y566750D01*
X296257Y566669D01*
X296306Y566586D01*
X296351Y566501D01*
X296393Y566414D01*
X296432Y566325D01*
X296467Y566236D01*
X296499Y566145D01*
X296527Y566052D01*
X296551Y565959D01*
X296572Y565865D01*
X296589Y565770D01*
X296602Y565675D01*
X296611Y565579D01*
X296617Y565482D01*
X296619Y565386D01*
X294164Y567841D02*
X293345Y567841D01*
X293345Y567842D02*
X293252Y567840D01*
X293160Y567835D01*
X293067Y567825D01*
X292975Y567812D01*
X292884Y567796D01*
X292793Y567775D01*
X292704Y567752D01*
X292615Y567724D01*
X292527Y567693D01*
X292441Y567659D01*
X292357Y567621D01*
X292273Y567580D01*
X292192Y567535D01*
X292112Y567487D01*
X292035Y567436D01*
X291959Y567382D01*
X291886Y567325D01*
X291815Y567266D01*
X291746Y567203D01*
X291680Y567138D01*
X291617Y567070D01*
X291557Y566999D01*
X291499Y566927D01*
X291444Y566852D01*
X291393Y566774D01*
X291344Y566695D01*
X291299Y566614D01*
X289253Y566614D01*
X289253Y567841D01*
X278619Y708746D02*
X273708Y708746D01*
X276164Y711201D02*
X276164Y706290D01*
X270407Y705881D02*
X267952Y705881D01*
X267872Y705883D01*
X267792Y705889D01*
X267712Y705899D01*
X267633Y705912D01*
X267554Y705930D01*
X267477Y705951D01*
X267401Y705977D01*
X267326Y706006D01*
X267252Y706038D01*
X267180Y706074D01*
X267110Y706114D01*
X267043Y706157D01*
X266977Y706203D01*
X266914Y706253D01*
X266853Y706305D01*
X266794Y706360D01*
X266739Y706419D01*
X266687Y706479D01*
X266637Y706543D01*
X266591Y706608D01*
X266548Y706676D01*
X266508Y706746D01*
X266472Y706818D01*
X266440Y706892D01*
X266411Y706966D01*
X266386Y707043D01*
X266364Y707120D01*
X266346Y707199D01*
X266333Y707278D01*
X266323Y707357D01*
X266317Y707438D01*
X266315Y707518D01*
X266315Y708336D01*
X266317Y708414D01*
X266322Y708492D01*
X266332Y708569D01*
X266345Y708646D01*
X266361Y708722D01*
X266381Y708797D01*
X266405Y708871D01*
X266432Y708944D01*
X266463Y709016D01*
X266497Y709086D01*
X266534Y709155D01*
X266575Y709221D01*
X266619Y709286D01*
X266665Y709348D01*
X266715Y709408D01*
X266767Y709466D01*
X266822Y709521D01*
X266880Y709573D01*
X266940Y709623D01*
X267002Y709669D01*
X267067Y709713D01*
X267134Y709754D01*
X267202Y709791D01*
X267272Y709825D01*
X267344Y709856D01*
X267417Y709883D01*
X267491Y709907D01*
X267566Y709927D01*
X267642Y709943D01*
X267719Y709956D01*
X267796Y709966D01*
X267874Y709971D01*
X267952Y709973D01*
X270407Y709973D01*
X270407Y713247D01*
X266315Y713247D01*
X263501Y713247D02*
X261046Y705881D01*
X258590Y713247D01*
X422208Y708246D02*
X427119Y708246D01*
X424664Y710701D02*
X424664Y705790D01*
X418907Y705381D02*
X416452Y705381D01*
X416372Y705383D01*
X416292Y705389D01*
X416212Y705399D01*
X416133Y705412D01*
X416054Y705430D01*
X415977Y705451D01*
X415901Y705477D01*
X415826Y705506D01*
X415752Y705538D01*
X415680Y705574D01*
X415610Y705614D01*
X415543Y705657D01*
X415477Y705703D01*
X415414Y705753D01*
X415353Y705805D01*
X415294Y705860D01*
X415239Y705919D01*
X415187Y705979D01*
X415137Y706043D01*
X415091Y706108D01*
X415048Y706176D01*
X415008Y706246D01*
X414972Y706318D01*
X414940Y706392D01*
X414911Y706466D01*
X414886Y706543D01*
X414864Y706620D01*
X414846Y706699D01*
X414833Y706778D01*
X414823Y706857D01*
X414817Y706938D01*
X414815Y707018D01*
X414815Y707836D01*
X414817Y707914D01*
X414822Y707992D01*
X414832Y708069D01*
X414845Y708146D01*
X414861Y708222D01*
X414881Y708297D01*
X414905Y708371D01*
X414932Y708444D01*
X414963Y708516D01*
X414997Y708586D01*
X415034Y708655D01*
X415075Y708721D01*
X415119Y708786D01*
X415165Y708848D01*
X415215Y708908D01*
X415267Y708966D01*
X415322Y709021D01*
X415380Y709073D01*
X415440Y709123D01*
X415502Y709169D01*
X415567Y709213D01*
X415634Y709254D01*
X415702Y709291D01*
X415772Y709325D01*
X415844Y709356D01*
X415917Y709383D01*
X415991Y709407D01*
X416066Y709427D01*
X416142Y709443D01*
X416219Y709456D01*
X416296Y709466D01*
X416374Y709471D01*
X416452Y709473D01*
X418907Y709473D01*
X418907Y712747D01*
X414815Y712747D01*
X412001Y712747D02*
X409546Y705381D01*
X407090Y712747D01*
X56391Y676881D02*
X54754Y676881D01*
X56391Y676881D02*
X56460Y676883D01*
X56528Y676889D01*
X56597Y676898D01*
X56664Y676912D01*
X56731Y676929D01*
X56797Y676950D01*
X56861Y676974D01*
X56924Y677003D01*
X56985Y677034D01*
X57044Y677069D01*
X57102Y677107D01*
X57157Y677149D01*
X57209Y677193D01*
X57259Y677241D01*
X57307Y677291D01*
X57351Y677343D01*
X57393Y677398D01*
X57431Y677456D01*
X57466Y677515D01*
X57497Y677576D01*
X57526Y677639D01*
X57550Y677703D01*
X57571Y677769D01*
X57588Y677836D01*
X57602Y677903D01*
X57611Y677972D01*
X57617Y678040D01*
X57619Y678109D01*
X57619Y680564D01*
X57617Y680633D01*
X57611Y680701D01*
X57602Y680770D01*
X57588Y680837D01*
X57571Y680904D01*
X57550Y680970D01*
X57526Y681034D01*
X57497Y681097D01*
X57466Y681158D01*
X57431Y681217D01*
X57393Y681275D01*
X57351Y681330D01*
X57307Y681382D01*
X57259Y681432D01*
X57209Y681480D01*
X57157Y681524D01*
X57102Y681566D01*
X57044Y681604D01*
X56985Y681639D01*
X56924Y681670D01*
X56861Y681699D01*
X56797Y681723D01*
X56731Y681744D01*
X56664Y681761D01*
X56597Y681775D01*
X56528Y681784D01*
X56460Y681790D01*
X56391Y681792D01*
X54754Y681792D01*
X51776Y684247D02*
X51776Y676881D01*
X51776Y681792D02*
X49730Y681792D01*
X49661Y681790D01*
X49593Y681784D01*
X49524Y681775D01*
X49457Y681761D01*
X49390Y681744D01*
X49324Y681723D01*
X49260Y681699D01*
X49197Y681670D01*
X49136Y681639D01*
X49077Y681604D01*
X49019Y681566D01*
X48964Y681524D01*
X48912Y681480D01*
X48862Y681432D01*
X48814Y681382D01*
X48770Y681330D01*
X48729Y681275D01*
X48690Y681217D01*
X48655Y681158D01*
X48624Y681097D01*
X48595Y681034D01*
X48571Y680970D01*
X48550Y680904D01*
X48533Y680837D01*
X48519Y680770D01*
X48510Y680702D01*
X48504Y680633D01*
X48502Y680564D01*
X48502Y676881D01*
X41213Y678518D02*
X39576Y684247D01*
X41213Y678518D02*
X37120Y678518D01*
X38348Y680155D02*
X38348Y676881D01*
X104754Y676381D02*
X106391Y676381D01*
X106460Y676383D01*
X106528Y676389D01*
X106597Y676398D01*
X106664Y676412D01*
X106731Y676429D01*
X106797Y676450D01*
X106861Y676474D01*
X106924Y676503D01*
X106985Y676534D01*
X107044Y676569D01*
X107102Y676607D01*
X107157Y676649D01*
X107209Y676693D01*
X107259Y676741D01*
X107307Y676791D01*
X107351Y676843D01*
X107393Y676898D01*
X107431Y676956D01*
X107466Y677015D01*
X107497Y677076D01*
X107526Y677139D01*
X107550Y677203D01*
X107571Y677269D01*
X107588Y677336D01*
X107602Y677403D01*
X107611Y677472D01*
X107617Y677540D01*
X107619Y677609D01*
X107619Y680064D01*
X107617Y680133D01*
X107611Y680201D01*
X107602Y680270D01*
X107588Y680337D01*
X107571Y680404D01*
X107550Y680470D01*
X107526Y680534D01*
X107497Y680597D01*
X107466Y680658D01*
X107431Y680717D01*
X107393Y680775D01*
X107351Y680830D01*
X107307Y680882D01*
X107259Y680932D01*
X107209Y680980D01*
X107157Y681024D01*
X107102Y681066D01*
X107044Y681104D01*
X106985Y681139D01*
X106924Y681170D01*
X106861Y681199D01*
X106797Y681223D01*
X106731Y681244D01*
X106664Y681261D01*
X106597Y681275D01*
X106528Y681284D01*
X106460Y681290D01*
X106391Y681292D01*
X104754Y681292D01*
X101776Y683747D02*
X101776Y676381D01*
X101776Y681292D02*
X99730Y681292D01*
X99661Y681290D01*
X99593Y681284D01*
X99524Y681275D01*
X99457Y681261D01*
X99390Y681244D01*
X99324Y681223D01*
X99260Y681199D01*
X99197Y681170D01*
X99136Y681139D01*
X99077Y681104D01*
X99019Y681066D01*
X98964Y681024D01*
X98912Y680980D01*
X98862Y680932D01*
X98814Y680882D01*
X98770Y680830D01*
X98729Y680775D01*
X98690Y680717D01*
X98655Y680658D01*
X98624Y680597D01*
X98595Y680534D01*
X98571Y680470D01*
X98550Y680404D01*
X98533Y680337D01*
X98519Y680270D01*
X98510Y680202D01*
X98504Y680133D01*
X98502Y680064D01*
X98502Y676381D01*
X91213Y676381D02*
X88757Y676381D01*
X88677Y676383D01*
X88597Y676389D01*
X88517Y676399D01*
X88438Y676412D01*
X88359Y676430D01*
X88282Y676451D01*
X88206Y676477D01*
X88131Y676506D01*
X88057Y676538D01*
X87985Y676574D01*
X87915Y676614D01*
X87848Y676657D01*
X87782Y676703D01*
X87719Y676753D01*
X87658Y676805D01*
X87599Y676860D01*
X87544Y676919D01*
X87492Y676979D01*
X87442Y677043D01*
X87396Y677108D01*
X87353Y677176D01*
X87313Y677246D01*
X87277Y677318D01*
X87245Y677392D01*
X87216Y677466D01*
X87191Y677543D01*
X87169Y677620D01*
X87151Y677699D01*
X87138Y677778D01*
X87128Y677857D01*
X87122Y677938D01*
X87120Y678018D01*
X87120Y678836D01*
X87122Y678914D01*
X87127Y678992D01*
X87137Y679069D01*
X87150Y679146D01*
X87166Y679222D01*
X87186Y679297D01*
X87210Y679371D01*
X87237Y679444D01*
X87268Y679516D01*
X87302Y679586D01*
X87339Y679655D01*
X87380Y679721D01*
X87424Y679786D01*
X87470Y679848D01*
X87520Y679908D01*
X87572Y679966D01*
X87627Y680021D01*
X87685Y680073D01*
X87745Y680123D01*
X87807Y680169D01*
X87872Y680213D01*
X87939Y680254D01*
X88007Y680291D01*
X88077Y680325D01*
X88149Y680356D01*
X88222Y680383D01*
X88296Y680407D01*
X88371Y680427D01*
X88447Y680443D01*
X88524Y680456D01*
X88601Y680466D01*
X88679Y680471D01*
X88757Y680473D01*
X91213Y680473D01*
X91213Y683747D01*
X87120Y683747D01*
X156254Y676881D02*
X157891Y676881D01*
X157960Y676883D01*
X158028Y676889D01*
X158097Y676898D01*
X158164Y676912D01*
X158231Y676929D01*
X158297Y676950D01*
X158361Y676974D01*
X158424Y677003D01*
X158485Y677034D01*
X158544Y677069D01*
X158602Y677107D01*
X158657Y677149D01*
X158709Y677193D01*
X158759Y677241D01*
X158807Y677291D01*
X158851Y677343D01*
X158893Y677398D01*
X158931Y677456D01*
X158966Y677515D01*
X158997Y677576D01*
X159026Y677639D01*
X159050Y677703D01*
X159071Y677769D01*
X159088Y677836D01*
X159102Y677903D01*
X159111Y677972D01*
X159117Y678040D01*
X159119Y678109D01*
X159119Y680564D01*
X159117Y680633D01*
X159111Y680701D01*
X159102Y680770D01*
X159088Y680837D01*
X159071Y680904D01*
X159050Y680970D01*
X159026Y681034D01*
X158997Y681097D01*
X158966Y681158D01*
X158931Y681217D01*
X158893Y681275D01*
X158851Y681330D01*
X158807Y681382D01*
X158759Y681432D01*
X158709Y681480D01*
X158657Y681524D01*
X158602Y681566D01*
X158544Y681604D01*
X158485Y681639D01*
X158424Y681670D01*
X158361Y681699D01*
X158297Y681723D01*
X158231Y681744D01*
X158164Y681761D01*
X158097Y681775D01*
X158028Y681784D01*
X157960Y681790D01*
X157891Y681792D01*
X156254Y681792D01*
X153276Y684247D02*
X153276Y676881D01*
X153276Y681792D02*
X151230Y681792D01*
X151161Y681790D01*
X151093Y681784D01*
X151024Y681775D01*
X150957Y681761D01*
X150890Y681744D01*
X150824Y681723D01*
X150760Y681699D01*
X150697Y681670D01*
X150636Y681639D01*
X150577Y681604D01*
X150519Y681566D01*
X150464Y681524D01*
X150412Y681480D01*
X150362Y681432D01*
X150314Y681382D01*
X150270Y681330D01*
X150229Y681275D01*
X150190Y681217D01*
X150155Y681158D01*
X150124Y681097D01*
X150095Y681034D01*
X150071Y680970D01*
X150050Y680904D01*
X150033Y680837D01*
X150019Y680770D01*
X150010Y680702D01*
X150004Y680633D01*
X150002Y680564D01*
X150002Y676881D01*
X142713Y680973D02*
X140257Y680973D01*
X140177Y680971D01*
X140097Y680965D01*
X140017Y680955D01*
X139938Y680942D01*
X139859Y680924D01*
X139782Y680903D01*
X139706Y680877D01*
X139631Y680848D01*
X139557Y680816D01*
X139485Y680780D01*
X139415Y680740D01*
X139348Y680697D01*
X139282Y680651D01*
X139219Y680601D01*
X139158Y680549D01*
X139099Y680494D01*
X139044Y680435D01*
X138992Y680375D01*
X138942Y680311D01*
X138896Y680245D01*
X138853Y680178D01*
X138813Y680108D01*
X138777Y680036D01*
X138745Y679962D01*
X138716Y679888D01*
X138690Y679811D01*
X138669Y679734D01*
X138651Y679655D01*
X138638Y679576D01*
X138628Y679496D01*
X138622Y679416D01*
X138620Y679336D01*
X138620Y678927D01*
X138622Y678838D01*
X138628Y678749D01*
X138638Y678660D01*
X138651Y678572D01*
X138668Y678484D01*
X138690Y678397D01*
X138715Y678312D01*
X138743Y678227D01*
X138776Y678144D01*
X138812Y678062D01*
X138851Y677982D01*
X138894Y677904D01*
X138940Y677828D01*
X138990Y677753D01*
X139043Y677681D01*
X139099Y677612D01*
X139158Y677545D01*
X139219Y677480D01*
X139284Y677419D01*
X139351Y677360D01*
X139420Y677304D01*
X139492Y677251D01*
X139567Y677201D01*
X139643Y677155D01*
X139721Y677112D01*
X139801Y677073D01*
X139883Y677037D01*
X139966Y677004D01*
X140051Y676976D01*
X140136Y676951D01*
X140223Y676929D01*
X140311Y676912D01*
X140399Y676899D01*
X140488Y676889D01*
X140577Y676883D01*
X140666Y676881D01*
X140755Y676883D01*
X140844Y676889D01*
X140933Y676899D01*
X141021Y676912D01*
X141109Y676929D01*
X141196Y676951D01*
X141281Y676976D01*
X141366Y677004D01*
X141449Y677037D01*
X141531Y677073D01*
X141611Y677112D01*
X141689Y677155D01*
X141765Y677201D01*
X141840Y677251D01*
X141912Y677304D01*
X141981Y677360D01*
X142048Y677419D01*
X142113Y677480D01*
X142174Y677545D01*
X142233Y677612D01*
X142289Y677681D01*
X142342Y677753D01*
X142392Y677828D01*
X142438Y677904D01*
X142481Y677982D01*
X142520Y678062D01*
X142556Y678144D01*
X142589Y678227D01*
X142617Y678312D01*
X142642Y678397D01*
X142664Y678484D01*
X142681Y678572D01*
X142694Y678660D01*
X142704Y678749D01*
X142710Y678838D01*
X142712Y678927D01*
X142713Y678927D02*
X142713Y680973D01*
X142711Y681085D01*
X142705Y681196D01*
X142696Y681308D01*
X142683Y681419D01*
X142665Y681529D01*
X142645Y681639D01*
X142620Y681748D01*
X142592Y681856D01*
X142560Y681963D01*
X142524Y682069D01*
X142485Y682174D01*
X142442Y682277D01*
X142396Y682379D01*
X142346Y682479D01*
X142293Y682578D01*
X142236Y682674D01*
X142177Y682769D01*
X142114Y682861D01*
X142048Y682951D01*
X141979Y683039D01*
X141907Y683125D01*
X141832Y683208D01*
X141754Y683288D01*
X141674Y683366D01*
X141591Y683441D01*
X141505Y683513D01*
X141417Y683582D01*
X141327Y683648D01*
X141235Y683711D01*
X141140Y683770D01*
X141044Y683827D01*
X140945Y683880D01*
X140845Y683930D01*
X140743Y683976D01*
X140640Y684019D01*
X140535Y684058D01*
X140429Y684094D01*
X140322Y684126D01*
X140214Y684154D01*
X140105Y684179D01*
X139995Y684199D01*
X139885Y684217D01*
X139774Y684230D01*
X139662Y684239D01*
X139551Y684245D01*
X139439Y684247D01*
X209254Y676881D02*
X210891Y676881D01*
X210960Y676883D01*
X211028Y676889D01*
X211097Y676898D01*
X211164Y676912D01*
X211231Y676929D01*
X211297Y676950D01*
X211361Y676974D01*
X211424Y677003D01*
X211485Y677034D01*
X211544Y677069D01*
X211602Y677107D01*
X211657Y677149D01*
X211709Y677193D01*
X211759Y677241D01*
X211807Y677291D01*
X211851Y677343D01*
X211893Y677398D01*
X211931Y677456D01*
X211966Y677515D01*
X211997Y677576D01*
X212026Y677639D01*
X212050Y677703D01*
X212071Y677769D01*
X212088Y677836D01*
X212102Y677903D01*
X212111Y677972D01*
X212117Y678040D01*
X212119Y678109D01*
X212119Y680564D01*
X212117Y680633D01*
X212111Y680701D01*
X212102Y680770D01*
X212088Y680837D01*
X212071Y680904D01*
X212050Y680970D01*
X212026Y681034D01*
X211997Y681097D01*
X211966Y681158D01*
X211931Y681217D01*
X211893Y681275D01*
X211851Y681330D01*
X211807Y681382D01*
X211759Y681432D01*
X211709Y681480D01*
X211657Y681524D01*
X211602Y681566D01*
X211544Y681604D01*
X211485Y681639D01*
X211424Y681670D01*
X211361Y681699D01*
X211297Y681723D01*
X211231Y681744D01*
X211164Y681761D01*
X211097Y681775D01*
X211028Y681784D01*
X210960Y681790D01*
X210891Y681792D01*
X209254Y681792D01*
X206276Y684247D02*
X206276Y676881D01*
X206276Y681792D02*
X204230Y681792D01*
X204161Y681790D01*
X204093Y681784D01*
X204024Y681775D01*
X203957Y681761D01*
X203890Y681744D01*
X203824Y681723D01*
X203760Y681699D01*
X203697Y681670D01*
X203636Y681639D01*
X203577Y681604D01*
X203519Y681566D01*
X203464Y681524D01*
X203412Y681480D01*
X203362Y681432D01*
X203314Y681382D01*
X203270Y681330D01*
X203229Y681275D01*
X203190Y681217D01*
X203155Y681158D01*
X203124Y681097D01*
X203095Y681034D01*
X203071Y680970D01*
X203050Y680904D01*
X203033Y680837D01*
X203019Y680770D01*
X203010Y680702D01*
X203004Y680633D01*
X203002Y680564D01*
X203002Y676881D01*
X195713Y683429D02*
X195713Y684247D01*
X191620Y684247D01*
X193666Y676881D01*
X149973Y142119D02*
X152019Y140482D01*
X149973Y142119D02*
X149973Y134753D01*
X152019Y134753D02*
X147927Y134753D01*
X144704Y138436D02*
X144702Y138589D01*
X144696Y138742D01*
X144687Y138894D01*
X144673Y139047D01*
X144656Y139199D01*
X144635Y139350D01*
X144610Y139501D01*
X144581Y139651D01*
X144549Y139801D01*
X144512Y139949D01*
X144472Y140097D01*
X144429Y140244D01*
X144381Y140389D01*
X144330Y140533D01*
X144276Y140676D01*
X144217Y140818D01*
X144156Y140957D01*
X144090Y141096D01*
X144064Y141166D01*
X144034Y141235D01*
X144002Y141303D01*
X143965Y141369D01*
X143926Y141433D01*
X143883Y141495D01*
X143838Y141554D01*
X143789Y141612D01*
X143738Y141666D01*
X143684Y141719D01*
X143627Y141768D01*
X143568Y141815D01*
X143507Y141858D01*
X143444Y141899D01*
X143379Y141936D01*
X143312Y141971D01*
X143243Y142001D01*
X143173Y142029D01*
X143102Y142052D01*
X143030Y142073D01*
X142957Y142089D01*
X142883Y142102D01*
X142808Y142112D01*
X142733Y142117D01*
X142658Y142119D01*
X142583Y142117D01*
X142508Y142112D01*
X142433Y142102D01*
X142359Y142089D01*
X142286Y142073D01*
X142214Y142052D01*
X142143Y142029D01*
X142073Y142001D01*
X142004Y141971D01*
X141937Y141936D01*
X141872Y141899D01*
X141809Y141858D01*
X141748Y141815D01*
X141689Y141768D01*
X141632Y141719D01*
X141578Y141666D01*
X141527Y141612D01*
X141479Y141554D01*
X141433Y141495D01*
X141390Y141433D01*
X141351Y141369D01*
X141315Y141303D01*
X141282Y141236D01*
X141252Y141166D01*
X141226Y141096D01*
X141161Y140958D01*
X141099Y140818D01*
X141041Y140676D01*
X140986Y140533D01*
X140935Y140389D01*
X140887Y140244D01*
X140844Y140097D01*
X140804Y139950D01*
X140767Y139801D01*
X140735Y139651D01*
X140706Y139501D01*
X140681Y139350D01*
X140660Y139199D01*
X140643Y139047D01*
X140629Y138894D01*
X140620Y138742D01*
X140614Y138589D01*
X140612Y138436D01*
X144705Y138436D02*
X144703Y138283D01*
X144697Y138130D01*
X144688Y137977D01*
X144674Y137825D01*
X144657Y137673D01*
X144636Y137522D01*
X144611Y137371D01*
X144582Y137220D01*
X144550Y137071D01*
X144513Y136922D01*
X144473Y136775D01*
X144430Y136628D01*
X144382Y136483D01*
X144331Y136338D01*
X144276Y136196D01*
X144218Y136054D01*
X144156Y135914D01*
X144091Y135776D01*
X144090Y135776D02*
X144064Y135706D01*
X144034Y135636D01*
X144002Y135569D01*
X143965Y135503D01*
X143926Y135439D01*
X143883Y135377D01*
X143837Y135318D01*
X143789Y135260D01*
X143738Y135206D01*
X143684Y135153D01*
X143627Y135104D01*
X143568Y135057D01*
X143507Y135014D01*
X143444Y134973D01*
X143379Y134936D01*
X143312Y134901D01*
X143243Y134871D01*
X143173Y134843D01*
X143102Y134820D01*
X143030Y134799D01*
X142957Y134783D01*
X142883Y134770D01*
X142808Y134760D01*
X142733Y134755D01*
X142658Y134753D01*
X141226Y135776D02*
X141161Y135914D01*
X141099Y136054D01*
X141041Y136196D01*
X140986Y136339D01*
X140935Y136483D01*
X140887Y136628D01*
X140844Y136775D01*
X140804Y136923D01*
X140767Y137071D01*
X140735Y137221D01*
X140706Y137371D01*
X140681Y137522D01*
X140660Y137673D01*
X140643Y137825D01*
X140629Y137978D01*
X140620Y138130D01*
X140614Y138283D01*
X140612Y138436D01*
X141226Y135776D02*
X141252Y135705D01*
X141282Y135636D01*
X141315Y135569D01*
X141351Y135503D01*
X141390Y135439D01*
X141433Y135377D01*
X141479Y135318D01*
X141527Y135260D01*
X141578Y135206D01*
X141632Y135153D01*
X141689Y135104D01*
X141748Y135057D01*
X141809Y135014D01*
X141872Y134973D01*
X141937Y134936D01*
X142004Y134901D01*
X142073Y134871D01*
X142143Y134843D01*
X142214Y134820D01*
X142286Y134799D01*
X142359Y134783D01*
X142433Y134770D01*
X142508Y134760D01*
X142583Y134755D01*
X142658Y134753D01*
X144295Y136390D02*
X141021Y140482D01*
X133228Y142119D02*
X133228Y134753D01*
X133228Y137208D02*
X129954Y139664D01*
X131796Y138231D02*
X129954Y134753D01*
X127069Y139664D02*
X127067Y139760D01*
X127061Y139857D01*
X127052Y139953D01*
X127039Y140048D01*
X127022Y140143D01*
X127001Y140237D01*
X126977Y140330D01*
X126949Y140423D01*
X126917Y140514D01*
X126882Y140603D01*
X126843Y140692D01*
X126801Y140779D01*
X126756Y140864D01*
X126707Y140947D01*
X126655Y141028D01*
X126600Y141107D01*
X126542Y141184D01*
X126481Y141258D01*
X126417Y141330D01*
X126350Y141400D01*
X126280Y141467D01*
X126208Y141531D01*
X126134Y141592D01*
X126057Y141650D01*
X125978Y141705D01*
X125897Y141757D01*
X125814Y141806D01*
X125729Y141851D01*
X125642Y141893D01*
X125553Y141932D01*
X125464Y141967D01*
X125373Y141999D01*
X125280Y142027D01*
X125187Y142051D01*
X125093Y142072D01*
X124998Y142089D01*
X124903Y142102D01*
X124807Y142111D01*
X124710Y142117D01*
X124614Y142119D01*
X127069Y139664D02*
X127069Y138845D01*
X127067Y138752D01*
X127062Y138660D01*
X127052Y138567D01*
X127039Y138475D01*
X127023Y138384D01*
X127002Y138293D01*
X126979Y138204D01*
X126951Y138115D01*
X126920Y138027D01*
X126886Y137941D01*
X126848Y137857D01*
X126807Y137773D01*
X126762Y137692D01*
X126714Y137612D01*
X126663Y137535D01*
X126609Y137459D01*
X126552Y137386D01*
X126493Y137315D01*
X126430Y137246D01*
X126365Y137180D01*
X126297Y137117D01*
X126226Y137057D01*
X126154Y136999D01*
X126079Y136944D01*
X126001Y136893D01*
X125922Y136844D01*
X125841Y136799D01*
X125842Y136799D02*
X125842Y134753D01*
X127069Y134753D01*
X122159Y139664D02*
X122161Y139763D01*
X122167Y139862D01*
X122177Y139960D01*
X122191Y140058D01*
X122209Y140155D01*
X122230Y140252D01*
X122256Y140347D01*
X122285Y140441D01*
X122319Y140535D01*
X122355Y140626D01*
X122396Y140716D01*
X122440Y140805D01*
X122488Y140892D01*
X122539Y140976D01*
X122594Y141059D01*
X122651Y141139D01*
X122712Y141217D01*
X122776Y141292D01*
X122843Y141365D01*
X122913Y141435D01*
X122986Y141502D01*
X123061Y141566D01*
X123139Y141627D01*
X123219Y141684D01*
X123302Y141739D01*
X123387Y141790D01*
X123473Y141838D01*
X123562Y141882D01*
X123652Y141923D01*
X123743Y141959D01*
X123837Y141993D01*
X123931Y142022D01*
X124026Y142048D01*
X124123Y142069D01*
X124220Y142087D01*
X124318Y142101D01*
X124416Y142111D01*
X124515Y142117D01*
X124614Y142119D01*
X122159Y139664D02*
X122159Y138845D01*
X122158Y138845D02*
X122160Y138752D01*
X122165Y138660D01*
X122175Y138567D01*
X122188Y138475D01*
X122204Y138384D01*
X122225Y138293D01*
X122248Y138204D01*
X122276Y138115D01*
X122307Y138027D01*
X122341Y137941D01*
X122379Y137857D01*
X122420Y137773D01*
X122465Y137692D01*
X122513Y137612D01*
X122564Y137535D01*
X122618Y137459D01*
X122675Y137386D01*
X122734Y137315D01*
X122797Y137246D01*
X122862Y137180D01*
X122930Y137117D01*
X123001Y137057D01*
X123073Y136999D01*
X123148Y136944D01*
X123226Y136893D01*
X123305Y136844D01*
X123386Y136799D01*
X123386Y134753D01*
X122159Y134753D01*
X236119Y43712D02*
X234482Y41665D01*
X236119Y43712D02*
X228753Y43712D01*
X228753Y45758D02*
X228753Y41665D01*
X232436Y48981D02*
X232589Y48983D01*
X232742Y48989D01*
X232894Y48998D01*
X233047Y49012D01*
X233199Y49029D01*
X233350Y49050D01*
X233501Y49075D01*
X233651Y49104D01*
X233801Y49136D01*
X233949Y49173D01*
X234097Y49213D01*
X234244Y49256D01*
X234389Y49304D01*
X234533Y49355D01*
X234676Y49409D01*
X234818Y49468D01*
X234957Y49529D01*
X235096Y49595D01*
X235166Y49621D01*
X235236Y49651D01*
X235303Y49684D01*
X235369Y49720D01*
X235433Y49759D01*
X235495Y49802D01*
X235554Y49848D01*
X235612Y49896D01*
X235666Y49947D01*
X235719Y50001D01*
X235768Y50058D01*
X235815Y50117D01*
X235858Y50178D01*
X235899Y50241D01*
X235936Y50306D01*
X235971Y50373D01*
X236001Y50442D01*
X236029Y50512D01*
X236052Y50583D01*
X236073Y50655D01*
X236089Y50728D01*
X236102Y50802D01*
X236112Y50877D01*
X236117Y50952D01*
X236119Y51027D01*
X236117Y51102D01*
X236112Y51177D01*
X236102Y51252D01*
X236089Y51326D01*
X236073Y51399D01*
X236052Y51471D01*
X236029Y51542D01*
X236001Y51612D01*
X235971Y51681D01*
X235936Y51748D01*
X235899Y51813D01*
X235858Y51876D01*
X235815Y51937D01*
X235768Y51996D01*
X235719Y52053D01*
X235666Y52107D01*
X235612Y52158D01*
X235554Y52207D01*
X235495Y52252D01*
X235433Y52295D01*
X235369Y52334D01*
X235303Y52371D01*
X235235Y52403D01*
X235166Y52433D01*
X235096Y52459D01*
X234958Y52524D01*
X234818Y52586D01*
X234676Y52644D01*
X234533Y52699D01*
X234389Y52750D01*
X234244Y52798D01*
X234097Y52841D01*
X233950Y52881D01*
X233801Y52918D01*
X233651Y52950D01*
X233501Y52979D01*
X233350Y53004D01*
X233199Y53025D01*
X233047Y53042D01*
X232894Y53056D01*
X232742Y53065D01*
X232589Y53071D01*
X232436Y53073D01*
X232436Y48980D02*
X232283Y48982D01*
X232130Y48988D01*
X231977Y48997D01*
X231825Y49011D01*
X231673Y49028D01*
X231522Y49049D01*
X231371Y49074D01*
X231220Y49103D01*
X231071Y49135D01*
X230922Y49172D01*
X230775Y49212D01*
X230628Y49255D01*
X230483Y49303D01*
X230338Y49354D01*
X230196Y49409D01*
X230054Y49467D01*
X229914Y49529D01*
X229776Y49594D01*
X229776Y49595D02*
X229705Y49621D01*
X229636Y49651D01*
X229569Y49684D01*
X229503Y49720D01*
X229439Y49759D01*
X229377Y49802D01*
X229318Y49848D01*
X229260Y49896D01*
X229206Y49947D01*
X229153Y50001D01*
X229104Y50058D01*
X229057Y50117D01*
X229014Y50178D01*
X228973Y50241D01*
X228936Y50306D01*
X228901Y50373D01*
X228871Y50442D01*
X228843Y50512D01*
X228820Y50583D01*
X228799Y50655D01*
X228783Y50728D01*
X228770Y50802D01*
X228760Y50877D01*
X228755Y50952D01*
X228753Y51027D01*
X229776Y52459D02*
X229914Y52524D01*
X230054Y52586D01*
X230196Y52644D01*
X230339Y52699D01*
X230483Y52750D01*
X230628Y52798D01*
X230775Y52841D01*
X230923Y52881D01*
X231071Y52918D01*
X231221Y52950D01*
X231371Y52979D01*
X231522Y53004D01*
X231673Y53025D01*
X231825Y53042D01*
X231978Y53056D01*
X232130Y53065D01*
X232283Y53071D01*
X232436Y53073D01*
X229776Y52459D02*
X229706Y52433D01*
X229636Y52403D01*
X229569Y52371D01*
X229503Y52334D01*
X229439Y52295D01*
X229377Y52252D01*
X229318Y52206D01*
X229260Y52158D01*
X229206Y52107D01*
X229153Y52053D01*
X229104Y51996D01*
X229057Y51937D01*
X229014Y51876D01*
X228973Y51813D01*
X228936Y51748D01*
X228901Y51681D01*
X228871Y51612D01*
X228843Y51542D01*
X228820Y51471D01*
X228799Y51399D01*
X228783Y51326D01*
X228770Y51252D01*
X228760Y51177D01*
X228755Y51102D01*
X228753Y51027D01*
X230390Y49390D02*
X234482Y52664D01*
X232436Y56296D02*
X232589Y56298D01*
X232742Y56304D01*
X232894Y56313D01*
X233047Y56327D01*
X233199Y56344D01*
X233350Y56365D01*
X233501Y56390D01*
X233651Y56419D01*
X233801Y56451D01*
X233949Y56488D01*
X234097Y56528D01*
X234244Y56571D01*
X234389Y56619D01*
X234533Y56670D01*
X234676Y56724D01*
X234818Y56783D01*
X234957Y56844D01*
X235096Y56910D01*
X235166Y56936D01*
X235236Y56966D01*
X235303Y56999D01*
X235369Y57035D01*
X235433Y57074D01*
X235495Y57117D01*
X235554Y57163D01*
X235612Y57211D01*
X235666Y57262D01*
X235719Y57316D01*
X235768Y57373D01*
X235815Y57432D01*
X235858Y57493D01*
X235899Y57556D01*
X235936Y57621D01*
X235971Y57688D01*
X236001Y57757D01*
X236029Y57827D01*
X236052Y57898D01*
X236073Y57970D01*
X236089Y58043D01*
X236102Y58117D01*
X236112Y58192D01*
X236117Y58267D01*
X236119Y58342D01*
X236117Y58417D01*
X236112Y58492D01*
X236102Y58567D01*
X236089Y58641D01*
X236073Y58714D01*
X236052Y58786D01*
X236029Y58857D01*
X236001Y58927D01*
X235971Y58996D01*
X235936Y59063D01*
X235899Y59128D01*
X235858Y59191D01*
X235815Y59252D01*
X235768Y59311D01*
X235719Y59368D01*
X235666Y59422D01*
X235612Y59473D01*
X235554Y59522D01*
X235495Y59567D01*
X235433Y59610D01*
X235369Y59649D01*
X235303Y59686D01*
X235235Y59718D01*
X235166Y59748D01*
X235096Y59774D01*
X234958Y59839D01*
X234818Y59901D01*
X234676Y59959D01*
X234533Y60014D01*
X234389Y60065D01*
X234244Y60113D01*
X234097Y60156D01*
X233950Y60196D01*
X233801Y60233D01*
X233651Y60265D01*
X233501Y60294D01*
X233350Y60319D01*
X233199Y60340D01*
X233047Y60357D01*
X232894Y60371D01*
X232742Y60380D01*
X232589Y60386D01*
X232436Y60388D01*
X232436Y56295D02*
X232283Y56297D01*
X232130Y56303D01*
X231977Y56312D01*
X231825Y56326D01*
X231673Y56343D01*
X231522Y56364D01*
X231371Y56389D01*
X231220Y56418D01*
X231071Y56450D01*
X230922Y56487D01*
X230775Y56527D01*
X230628Y56570D01*
X230483Y56618D01*
X230338Y56669D01*
X230196Y56724D01*
X230054Y56782D01*
X229914Y56844D01*
X229776Y56909D01*
X229776Y56910D02*
X229705Y56936D01*
X229636Y56966D01*
X229569Y56999D01*
X229503Y57035D01*
X229439Y57074D01*
X229377Y57117D01*
X229318Y57163D01*
X229260Y57211D01*
X229206Y57262D01*
X229153Y57316D01*
X229104Y57373D01*
X229057Y57432D01*
X229014Y57493D01*
X228973Y57556D01*
X228936Y57621D01*
X228901Y57688D01*
X228871Y57757D01*
X228843Y57827D01*
X228820Y57898D01*
X228799Y57970D01*
X228783Y58043D01*
X228770Y58117D01*
X228760Y58192D01*
X228755Y58267D01*
X228753Y58342D01*
X229776Y59774D02*
X229914Y59839D01*
X230054Y59901D01*
X230196Y59959D01*
X230339Y60014D01*
X230483Y60065D01*
X230628Y60113D01*
X230775Y60156D01*
X230923Y60196D01*
X231071Y60233D01*
X231221Y60265D01*
X231371Y60294D01*
X231522Y60319D01*
X231673Y60340D01*
X231825Y60357D01*
X231978Y60371D01*
X232130Y60380D01*
X232283Y60386D01*
X232436Y60388D01*
X229776Y59774D02*
X229706Y59748D01*
X229636Y59718D01*
X229569Y59686D01*
X229503Y59649D01*
X229439Y59610D01*
X229377Y59567D01*
X229318Y59521D01*
X229260Y59473D01*
X229206Y59422D01*
X229153Y59368D01*
X229104Y59311D01*
X229057Y59252D01*
X229014Y59191D01*
X228973Y59128D01*
X228936Y59063D01*
X228901Y58996D01*
X228871Y58927D01*
X228843Y58857D01*
X228820Y58786D01*
X228799Y58714D01*
X228783Y58641D01*
X228770Y58567D01*
X228760Y58492D01*
X228755Y58417D01*
X228753Y58342D01*
X230390Y56705D02*
X234482Y59979D01*
X236119Y67772D02*
X228753Y67772D01*
X231208Y67772D02*
X233664Y71046D01*
X232231Y69204D02*
X228753Y71046D01*
X233664Y73931D02*
X233760Y73933D01*
X233857Y73939D01*
X233953Y73948D01*
X234048Y73961D01*
X234143Y73978D01*
X234237Y73999D01*
X234330Y74023D01*
X234423Y74051D01*
X234514Y74083D01*
X234603Y74118D01*
X234692Y74157D01*
X234779Y74199D01*
X234864Y74244D01*
X234947Y74293D01*
X235028Y74345D01*
X235107Y74400D01*
X235184Y74458D01*
X235258Y74519D01*
X235330Y74583D01*
X235400Y74650D01*
X235467Y74720D01*
X235531Y74792D01*
X235592Y74866D01*
X235650Y74943D01*
X235705Y75022D01*
X235757Y75103D01*
X235806Y75186D01*
X235851Y75271D01*
X235893Y75358D01*
X235932Y75447D01*
X235967Y75536D01*
X235999Y75627D01*
X236027Y75720D01*
X236051Y75813D01*
X236072Y75907D01*
X236089Y76002D01*
X236102Y76097D01*
X236111Y76193D01*
X236117Y76290D01*
X236119Y76386D01*
X233664Y73931D02*
X232845Y73931D01*
X232752Y73933D01*
X232660Y73938D01*
X232567Y73948D01*
X232475Y73961D01*
X232384Y73977D01*
X232293Y73998D01*
X232204Y74021D01*
X232115Y74049D01*
X232027Y74080D01*
X231941Y74114D01*
X231857Y74152D01*
X231773Y74193D01*
X231692Y74238D01*
X231612Y74286D01*
X231535Y74337D01*
X231459Y74391D01*
X231386Y74448D01*
X231315Y74507D01*
X231246Y74570D01*
X231180Y74635D01*
X231117Y74703D01*
X231057Y74774D01*
X230999Y74846D01*
X230944Y74921D01*
X230893Y74999D01*
X230844Y75078D01*
X230799Y75159D01*
X230799Y75158D02*
X228753Y75158D01*
X228753Y73931D01*
X233664Y78841D02*
X233760Y78839D01*
X233857Y78833D01*
X233953Y78824D01*
X234048Y78811D01*
X234143Y78794D01*
X234237Y78773D01*
X234330Y78749D01*
X234423Y78721D01*
X234514Y78689D01*
X234603Y78654D01*
X234692Y78615D01*
X234779Y78573D01*
X234864Y78528D01*
X234947Y78479D01*
X235028Y78427D01*
X235107Y78372D01*
X235184Y78314D01*
X235258Y78253D01*
X235330Y78189D01*
X235400Y78122D01*
X235467Y78052D01*
X235531Y77980D01*
X235592Y77906D01*
X235650Y77829D01*
X235705Y77750D01*
X235757Y77669D01*
X235806Y77586D01*
X235851Y77501D01*
X235893Y77414D01*
X235932Y77325D01*
X235967Y77236D01*
X235999Y77145D01*
X236027Y77052D01*
X236051Y76959D01*
X236072Y76865D01*
X236089Y76770D01*
X236102Y76675D01*
X236111Y76579D01*
X236117Y76482D01*
X236119Y76386D01*
X233664Y78841D02*
X232845Y78841D01*
X232845Y78842D02*
X232752Y78840D01*
X232660Y78835D01*
X232567Y78825D01*
X232475Y78812D01*
X232384Y78796D01*
X232293Y78775D01*
X232204Y78752D01*
X232115Y78724D01*
X232027Y78693D01*
X231941Y78659D01*
X231857Y78621D01*
X231773Y78580D01*
X231692Y78535D01*
X231612Y78487D01*
X231535Y78436D01*
X231459Y78382D01*
X231386Y78325D01*
X231315Y78266D01*
X231246Y78203D01*
X231180Y78138D01*
X231117Y78070D01*
X231057Y77999D01*
X230999Y77927D01*
X230944Y77852D01*
X230893Y77774D01*
X230844Y77695D01*
X230799Y77614D01*
X228753Y77614D01*
X228753Y78841D01*
X153019Y166982D02*
X150973Y168619D01*
X150973Y161253D01*
X153019Y161253D02*
X148927Y161253D01*
X145704Y164936D02*
X145702Y165089D01*
X145696Y165242D01*
X145687Y165394D01*
X145673Y165547D01*
X145656Y165699D01*
X145635Y165850D01*
X145610Y166001D01*
X145581Y166151D01*
X145549Y166301D01*
X145512Y166449D01*
X145472Y166597D01*
X145429Y166744D01*
X145381Y166889D01*
X145330Y167033D01*
X145276Y167176D01*
X145217Y167318D01*
X145156Y167457D01*
X145090Y167596D01*
X145064Y167666D01*
X145034Y167735D01*
X145002Y167803D01*
X144965Y167869D01*
X144926Y167933D01*
X144883Y167995D01*
X144838Y168054D01*
X144789Y168112D01*
X144738Y168166D01*
X144684Y168219D01*
X144627Y168268D01*
X144568Y168315D01*
X144507Y168358D01*
X144444Y168399D01*
X144379Y168436D01*
X144312Y168471D01*
X144243Y168501D01*
X144173Y168529D01*
X144102Y168552D01*
X144030Y168573D01*
X143957Y168589D01*
X143883Y168602D01*
X143808Y168612D01*
X143733Y168617D01*
X143658Y168619D01*
X143583Y168617D01*
X143508Y168612D01*
X143433Y168602D01*
X143359Y168589D01*
X143286Y168573D01*
X143214Y168552D01*
X143143Y168529D01*
X143073Y168501D01*
X143004Y168471D01*
X142937Y168436D01*
X142872Y168399D01*
X142809Y168358D01*
X142748Y168315D01*
X142689Y168268D01*
X142632Y168219D01*
X142578Y168166D01*
X142527Y168112D01*
X142479Y168054D01*
X142433Y167995D01*
X142390Y167933D01*
X142351Y167869D01*
X142315Y167803D01*
X142282Y167736D01*
X142252Y167666D01*
X142226Y167596D01*
X142161Y167458D01*
X142099Y167318D01*
X142041Y167176D01*
X141986Y167033D01*
X141935Y166889D01*
X141887Y166744D01*
X141844Y166597D01*
X141804Y166450D01*
X141767Y166301D01*
X141735Y166151D01*
X141706Y166001D01*
X141681Y165850D01*
X141660Y165699D01*
X141643Y165547D01*
X141629Y165394D01*
X141620Y165242D01*
X141614Y165089D01*
X141612Y164936D01*
X145705Y164936D02*
X145703Y164783D01*
X145697Y164630D01*
X145688Y164477D01*
X145674Y164325D01*
X145657Y164173D01*
X145636Y164022D01*
X145611Y163871D01*
X145582Y163720D01*
X145550Y163571D01*
X145513Y163422D01*
X145473Y163275D01*
X145430Y163128D01*
X145382Y162983D01*
X145331Y162838D01*
X145276Y162696D01*
X145218Y162554D01*
X145156Y162414D01*
X145091Y162276D01*
X145090Y162276D02*
X145064Y162206D01*
X145034Y162136D01*
X145002Y162069D01*
X144965Y162003D01*
X144926Y161939D01*
X144883Y161877D01*
X144837Y161818D01*
X144789Y161760D01*
X144738Y161706D01*
X144684Y161653D01*
X144627Y161604D01*
X144568Y161557D01*
X144507Y161514D01*
X144444Y161473D01*
X144379Y161436D01*
X144312Y161401D01*
X144243Y161371D01*
X144173Y161343D01*
X144102Y161320D01*
X144030Y161299D01*
X143957Y161283D01*
X143883Y161270D01*
X143808Y161260D01*
X143733Y161255D01*
X143658Y161253D01*
X142226Y162276D02*
X142161Y162414D01*
X142099Y162554D01*
X142041Y162696D01*
X141986Y162839D01*
X141935Y162983D01*
X141887Y163128D01*
X141844Y163275D01*
X141804Y163423D01*
X141767Y163571D01*
X141735Y163721D01*
X141706Y163871D01*
X141681Y164022D01*
X141660Y164173D01*
X141643Y164325D01*
X141629Y164478D01*
X141620Y164630D01*
X141614Y164783D01*
X141612Y164936D01*
X142226Y162276D02*
X142252Y162205D01*
X142282Y162136D01*
X142315Y162069D01*
X142351Y162003D01*
X142390Y161939D01*
X142433Y161877D01*
X142479Y161818D01*
X142527Y161760D01*
X142578Y161706D01*
X142632Y161653D01*
X142689Y161604D01*
X142748Y161557D01*
X142809Y161514D01*
X142872Y161473D01*
X142937Y161436D01*
X143004Y161401D01*
X143073Y161371D01*
X143143Y161343D01*
X143214Y161320D01*
X143286Y161299D01*
X143359Y161283D01*
X143433Y161270D01*
X143508Y161260D01*
X143583Y161255D01*
X143658Y161253D01*
X145295Y162890D02*
X142021Y166982D01*
X134228Y168619D02*
X134228Y161253D01*
X134228Y163708D02*
X130954Y166164D01*
X132796Y164731D02*
X130954Y161253D01*
X128069Y166164D02*
X128067Y166260D01*
X128061Y166357D01*
X128052Y166453D01*
X128039Y166548D01*
X128022Y166643D01*
X128001Y166737D01*
X127977Y166830D01*
X127949Y166923D01*
X127917Y167014D01*
X127882Y167103D01*
X127843Y167192D01*
X127801Y167279D01*
X127756Y167364D01*
X127707Y167447D01*
X127655Y167528D01*
X127600Y167607D01*
X127542Y167684D01*
X127481Y167758D01*
X127417Y167830D01*
X127350Y167900D01*
X127280Y167967D01*
X127208Y168031D01*
X127134Y168092D01*
X127057Y168150D01*
X126978Y168205D01*
X126897Y168257D01*
X126814Y168306D01*
X126729Y168351D01*
X126642Y168393D01*
X126553Y168432D01*
X126464Y168467D01*
X126373Y168499D01*
X126280Y168527D01*
X126187Y168551D01*
X126093Y168572D01*
X125998Y168589D01*
X125903Y168602D01*
X125807Y168611D01*
X125710Y168617D01*
X125614Y168619D01*
X128069Y166164D02*
X128069Y165345D01*
X128067Y165252D01*
X128062Y165160D01*
X128052Y165067D01*
X128039Y164975D01*
X128023Y164884D01*
X128002Y164793D01*
X127979Y164704D01*
X127951Y164615D01*
X127920Y164527D01*
X127886Y164441D01*
X127848Y164357D01*
X127807Y164273D01*
X127762Y164192D01*
X127714Y164112D01*
X127663Y164035D01*
X127609Y163959D01*
X127552Y163886D01*
X127493Y163815D01*
X127430Y163746D01*
X127365Y163680D01*
X127297Y163617D01*
X127226Y163557D01*
X127154Y163499D01*
X127079Y163444D01*
X127001Y163393D01*
X126922Y163344D01*
X126841Y163299D01*
X126842Y163299D02*
X126842Y161253D01*
X128069Y161253D01*
X123159Y166164D02*
X123161Y166263D01*
X123167Y166362D01*
X123177Y166460D01*
X123191Y166558D01*
X123209Y166655D01*
X123230Y166752D01*
X123256Y166847D01*
X123285Y166941D01*
X123319Y167035D01*
X123355Y167126D01*
X123396Y167216D01*
X123440Y167305D01*
X123488Y167392D01*
X123539Y167476D01*
X123594Y167559D01*
X123651Y167639D01*
X123712Y167717D01*
X123776Y167792D01*
X123843Y167865D01*
X123913Y167935D01*
X123986Y168002D01*
X124061Y168066D01*
X124139Y168127D01*
X124219Y168184D01*
X124302Y168239D01*
X124387Y168290D01*
X124473Y168338D01*
X124562Y168382D01*
X124652Y168423D01*
X124743Y168459D01*
X124837Y168493D01*
X124931Y168522D01*
X125026Y168548D01*
X125123Y168569D01*
X125220Y168587D01*
X125318Y168601D01*
X125416Y168611D01*
X125515Y168617D01*
X125614Y168619D01*
X123159Y166164D02*
X123159Y165345D01*
X123158Y165345D02*
X123160Y165252D01*
X123165Y165160D01*
X123175Y165067D01*
X123188Y164975D01*
X123204Y164884D01*
X123225Y164793D01*
X123248Y164704D01*
X123276Y164615D01*
X123307Y164527D01*
X123341Y164441D01*
X123379Y164357D01*
X123420Y164273D01*
X123465Y164192D01*
X123513Y164112D01*
X123564Y164035D01*
X123618Y163959D01*
X123675Y163886D01*
X123734Y163815D01*
X123797Y163746D01*
X123862Y163680D01*
X123930Y163617D01*
X124001Y163557D01*
X124073Y163499D01*
X124148Y163444D01*
X124226Y163393D01*
X124305Y163344D01*
X124386Y163299D01*
X124386Y161253D01*
X123159Y161253D01*
X151473Y195619D02*
X153519Y193982D01*
X151473Y195619D02*
X151473Y188253D01*
X153519Y188253D02*
X149427Y188253D01*
X146204Y191936D02*
X146202Y192089D01*
X146196Y192242D01*
X146187Y192394D01*
X146173Y192547D01*
X146156Y192699D01*
X146135Y192850D01*
X146110Y193001D01*
X146081Y193151D01*
X146049Y193301D01*
X146012Y193449D01*
X145972Y193597D01*
X145929Y193744D01*
X145881Y193889D01*
X145830Y194033D01*
X145776Y194176D01*
X145717Y194318D01*
X145656Y194457D01*
X145590Y194596D01*
X145564Y194666D01*
X145534Y194735D01*
X145502Y194803D01*
X145465Y194869D01*
X145426Y194933D01*
X145383Y194995D01*
X145338Y195054D01*
X145289Y195112D01*
X145238Y195166D01*
X145184Y195219D01*
X145127Y195268D01*
X145068Y195315D01*
X145007Y195358D01*
X144944Y195399D01*
X144879Y195436D01*
X144812Y195471D01*
X144743Y195501D01*
X144673Y195529D01*
X144602Y195552D01*
X144530Y195573D01*
X144457Y195589D01*
X144383Y195602D01*
X144308Y195612D01*
X144233Y195617D01*
X144158Y195619D01*
X144083Y195617D01*
X144008Y195612D01*
X143933Y195602D01*
X143859Y195589D01*
X143786Y195573D01*
X143714Y195552D01*
X143643Y195529D01*
X143573Y195501D01*
X143504Y195471D01*
X143437Y195436D01*
X143372Y195399D01*
X143309Y195358D01*
X143248Y195315D01*
X143189Y195268D01*
X143132Y195219D01*
X143078Y195166D01*
X143027Y195112D01*
X142979Y195054D01*
X142933Y194995D01*
X142890Y194933D01*
X142851Y194869D01*
X142815Y194803D01*
X142782Y194736D01*
X142752Y194666D01*
X142726Y194596D01*
X142661Y194458D01*
X142599Y194318D01*
X142541Y194176D01*
X142486Y194033D01*
X142435Y193889D01*
X142387Y193744D01*
X142344Y193597D01*
X142304Y193450D01*
X142267Y193301D01*
X142235Y193151D01*
X142206Y193001D01*
X142181Y192850D01*
X142160Y192699D01*
X142143Y192547D01*
X142129Y192394D01*
X142120Y192242D01*
X142114Y192089D01*
X142112Y191936D01*
X146205Y191936D02*
X146203Y191783D01*
X146197Y191630D01*
X146188Y191477D01*
X146174Y191325D01*
X146157Y191173D01*
X146136Y191022D01*
X146111Y190871D01*
X146082Y190720D01*
X146050Y190571D01*
X146013Y190422D01*
X145973Y190275D01*
X145930Y190128D01*
X145882Y189983D01*
X145831Y189838D01*
X145776Y189696D01*
X145718Y189554D01*
X145656Y189414D01*
X145591Y189276D01*
X145590Y189276D02*
X145564Y189206D01*
X145534Y189136D01*
X145502Y189069D01*
X145465Y189003D01*
X145426Y188939D01*
X145383Y188877D01*
X145337Y188818D01*
X145289Y188760D01*
X145238Y188706D01*
X145184Y188653D01*
X145127Y188604D01*
X145068Y188557D01*
X145007Y188514D01*
X144944Y188473D01*
X144879Y188436D01*
X144812Y188401D01*
X144743Y188371D01*
X144673Y188343D01*
X144602Y188320D01*
X144530Y188299D01*
X144457Y188283D01*
X144383Y188270D01*
X144308Y188260D01*
X144233Y188255D01*
X144158Y188253D01*
X142726Y189276D02*
X142661Y189414D01*
X142599Y189554D01*
X142541Y189696D01*
X142486Y189839D01*
X142435Y189983D01*
X142387Y190128D01*
X142344Y190275D01*
X142304Y190423D01*
X142267Y190571D01*
X142235Y190721D01*
X142206Y190871D01*
X142181Y191022D01*
X142160Y191173D01*
X142143Y191325D01*
X142129Y191478D01*
X142120Y191630D01*
X142114Y191783D01*
X142112Y191936D01*
X142726Y189276D02*
X142752Y189205D01*
X142782Y189136D01*
X142815Y189069D01*
X142851Y189003D01*
X142890Y188939D01*
X142933Y188877D01*
X142979Y188818D01*
X143027Y188760D01*
X143078Y188706D01*
X143132Y188653D01*
X143189Y188604D01*
X143248Y188557D01*
X143309Y188514D01*
X143372Y188473D01*
X143437Y188436D01*
X143504Y188401D01*
X143573Y188371D01*
X143643Y188343D01*
X143714Y188320D01*
X143786Y188299D01*
X143859Y188283D01*
X143933Y188270D01*
X144008Y188260D01*
X144083Y188255D01*
X144158Y188253D01*
X145795Y189890D02*
X142521Y193982D01*
X134728Y195619D02*
X134728Y188253D01*
X134728Y190708D02*
X131454Y193164D01*
X133296Y191731D02*
X131454Y188253D01*
X128569Y193164D02*
X128567Y193260D01*
X128561Y193357D01*
X128552Y193453D01*
X128539Y193548D01*
X128522Y193643D01*
X128501Y193737D01*
X128477Y193830D01*
X128449Y193923D01*
X128417Y194014D01*
X128382Y194103D01*
X128343Y194192D01*
X128301Y194279D01*
X128256Y194364D01*
X128207Y194447D01*
X128155Y194528D01*
X128100Y194607D01*
X128042Y194684D01*
X127981Y194758D01*
X127917Y194830D01*
X127850Y194900D01*
X127780Y194967D01*
X127708Y195031D01*
X127634Y195092D01*
X127557Y195150D01*
X127478Y195205D01*
X127397Y195257D01*
X127314Y195306D01*
X127229Y195351D01*
X127142Y195393D01*
X127053Y195432D01*
X126964Y195467D01*
X126873Y195499D01*
X126780Y195527D01*
X126687Y195551D01*
X126593Y195572D01*
X126498Y195589D01*
X126403Y195602D01*
X126307Y195611D01*
X126210Y195617D01*
X126114Y195619D01*
X128569Y193164D02*
X128569Y192345D01*
X128567Y192252D01*
X128562Y192160D01*
X128552Y192067D01*
X128539Y191975D01*
X128523Y191884D01*
X128502Y191793D01*
X128479Y191704D01*
X128451Y191615D01*
X128420Y191527D01*
X128386Y191441D01*
X128348Y191357D01*
X128307Y191273D01*
X128262Y191192D01*
X128214Y191112D01*
X128163Y191035D01*
X128109Y190959D01*
X128052Y190886D01*
X127993Y190815D01*
X127930Y190746D01*
X127865Y190680D01*
X127797Y190617D01*
X127726Y190557D01*
X127654Y190499D01*
X127579Y190444D01*
X127501Y190393D01*
X127422Y190344D01*
X127341Y190299D01*
X127342Y190299D02*
X127342Y188253D01*
X128569Y188253D01*
X123659Y193164D02*
X123661Y193263D01*
X123667Y193362D01*
X123677Y193460D01*
X123691Y193558D01*
X123709Y193655D01*
X123730Y193752D01*
X123756Y193847D01*
X123785Y193941D01*
X123819Y194035D01*
X123855Y194126D01*
X123896Y194216D01*
X123940Y194305D01*
X123988Y194392D01*
X124039Y194476D01*
X124094Y194559D01*
X124151Y194639D01*
X124212Y194717D01*
X124276Y194792D01*
X124343Y194865D01*
X124413Y194935D01*
X124486Y195002D01*
X124561Y195066D01*
X124639Y195127D01*
X124719Y195184D01*
X124802Y195239D01*
X124887Y195290D01*
X124973Y195338D01*
X125062Y195382D01*
X125152Y195423D01*
X125243Y195459D01*
X125337Y195493D01*
X125431Y195522D01*
X125526Y195548D01*
X125623Y195569D01*
X125720Y195587D01*
X125818Y195601D01*
X125916Y195611D01*
X126015Y195617D01*
X126114Y195619D01*
X123659Y193164D02*
X123659Y192345D01*
X123658Y192345D02*
X123660Y192252D01*
X123665Y192160D01*
X123675Y192067D01*
X123688Y191975D01*
X123704Y191884D01*
X123725Y191793D01*
X123748Y191704D01*
X123776Y191615D01*
X123807Y191527D01*
X123841Y191441D01*
X123879Y191357D01*
X123920Y191273D01*
X123965Y191192D01*
X124013Y191112D01*
X124064Y191035D01*
X124118Y190959D01*
X124175Y190886D01*
X124234Y190815D01*
X124297Y190746D01*
X124362Y190680D01*
X124430Y190617D01*
X124501Y190557D01*
X124573Y190499D01*
X124648Y190444D01*
X124726Y190393D01*
X124805Y190344D01*
X124886Y190299D01*
X124886Y188253D01*
X123659Y188253D01*
X152019Y221982D02*
X149973Y223619D01*
X149973Y216253D01*
X152019Y216253D02*
X147927Y216253D01*
X144704Y219936D02*
X144702Y220089D01*
X144696Y220242D01*
X144687Y220394D01*
X144673Y220547D01*
X144656Y220699D01*
X144635Y220850D01*
X144610Y221001D01*
X144581Y221151D01*
X144549Y221301D01*
X144512Y221449D01*
X144472Y221597D01*
X144429Y221744D01*
X144381Y221889D01*
X144330Y222033D01*
X144276Y222176D01*
X144217Y222318D01*
X144156Y222457D01*
X144090Y222596D01*
X144064Y222666D01*
X144034Y222735D01*
X144002Y222803D01*
X143965Y222869D01*
X143926Y222933D01*
X143883Y222995D01*
X143838Y223054D01*
X143789Y223112D01*
X143738Y223166D01*
X143684Y223219D01*
X143627Y223268D01*
X143568Y223315D01*
X143507Y223358D01*
X143444Y223399D01*
X143379Y223436D01*
X143312Y223471D01*
X143243Y223501D01*
X143173Y223529D01*
X143102Y223552D01*
X143030Y223573D01*
X142957Y223589D01*
X142883Y223602D01*
X142808Y223612D01*
X142733Y223617D01*
X142658Y223619D01*
X142583Y223617D01*
X142508Y223612D01*
X142433Y223602D01*
X142359Y223589D01*
X142286Y223573D01*
X142214Y223552D01*
X142143Y223529D01*
X142073Y223501D01*
X142004Y223471D01*
X141937Y223436D01*
X141872Y223399D01*
X141809Y223358D01*
X141748Y223315D01*
X141689Y223268D01*
X141632Y223219D01*
X141578Y223166D01*
X141527Y223112D01*
X141479Y223054D01*
X141433Y222995D01*
X141390Y222933D01*
X141351Y222869D01*
X141315Y222803D01*
X141282Y222736D01*
X141252Y222666D01*
X141226Y222596D01*
X141161Y222458D01*
X141099Y222318D01*
X141041Y222176D01*
X140986Y222033D01*
X140935Y221889D01*
X140887Y221744D01*
X140844Y221597D01*
X140804Y221450D01*
X140767Y221301D01*
X140735Y221151D01*
X140706Y221001D01*
X140681Y220850D01*
X140660Y220699D01*
X140643Y220547D01*
X140629Y220394D01*
X140620Y220242D01*
X140614Y220089D01*
X140612Y219936D01*
X144705Y219936D02*
X144703Y219783D01*
X144697Y219630D01*
X144688Y219477D01*
X144674Y219325D01*
X144657Y219173D01*
X144636Y219022D01*
X144611Y218871D01*
X144582Y218720D01*
X144550Y218571D01*
X144513Y218422D01*
X144473Y218275D01*
X144430Y218128D01*
X144382Y217983D01*
X144331Y217838D01*
X144276Y217696D01*
X144218Y217554D01*
X144156Y217414D01*
X144091Y217276D01*
X144090Y217276D02*
X144064Y217206D01*
X144034Y217136D01*
X144002Y217069D01*
X143965Y217003D01*
X143926Y216939D01*
X143883Y216877D01*
X143837Y216818D01*
X143789Y216760D01*
X143738Y216706D01*
X143684Y216653D01*
X143627Y216604D01*
X143568Y216557D01*
X143507Y216514D01*
X143444Y216473D01*
X143379Y216436D01*
X143312Y216401D01*
X143243Y216371D01*
X143173Y216343D01*
X143102Y216320D01*
X143030Y216299D01*
X142957Y216283D01*
X142883Y216270D01*
X142808Y216260D01*
X142733Y216255D01*
X142658Y216253D01*
X141226Y217276D02*
X141161Y217414D01*
X141099Y217554D01*
X141041Y217696D01*
X140986Y217839D01*
X140935Y217983D01*
X140887Y218128D01*
X140844Y218275D01*
X140804Y218423D01*
X140767Y218571D01*
X140735Y218721D01*
X140706Y218871D01*
X140681Y219022D01*
X140660Y219173D01*
X140643Y219325D01*
X140629Y219478D01*
X140620Y219630D01*
X140614Y219783D01*
X140612Y219936D01*
X141226Y217276D02*
X141252Y217205D01*
X141282Y217136D01*
X141315Y217069D01*
X141351Y217003D01*
X141390Y216939D01*
X141433Y216877D01*
X141479Y216818D01*
X141527Y216760D01*
X141578Y216706D01*
X141632Y216653D01*
X141689Y216604D01*
X141748Y216557D01*
X141809Y216514D01*
X141872Y216473D01*
X141937Y216436D01*
X142004Y216401D01*
X142073Y216371D01*
X142143Y216343D01*
X142214Y216320D01*
X142286Y216299D01*
X142359Y216283D01*
X142433Y216270D01*
X142508Y216260D01*
X142583Y216255D01*
X142658Y216253D01*
X144295Y217890D02*
X141021Y221982D01*
X133228Y223619D02*
X133228Y216253D01*
X133228Y218708D02*
X129954Y221164D01*
X131796Y219731D02*
X129954Y216253D01*
X127069Y221164D02*
X127067Y221260D01*
X127061Y221357D01*
X127052Y221453D01*
X127039Y221548D01*
X127022Y221643D01*
X127001Y221737D01*
X126977Y221830D01*
X126949Y221923D01*
X126917Y222014D01*
X126882Y222103D01*
X126843Y222192D01*
X126801Y222279D01*
X126756Y222364D01*
X126707Y222447D01*
X126655Y222528D01*
X126600Y222607D01*
X126542Y222684D01*
X126481Y222758D01*
X126417Y222830D01*
X126350Y222900D01*
X126280Y222967D01*
X126208Y223031D01*
X126134Y223092D01*
X126057Y223150D01*
X125978Y223205D01*
X125897Y223257D01*
X125814Y223306D01*
X125729Y223351D01*
X125642Y223393D01*
X125553Y223432D01*
X125464Y223467D01*
X125373Y223499D01*
X125280Y223527D01*
X125187Y223551D01*
X125093Y223572D01*
X124998Y223589D01*
X124903Y223602D01*
X124807Y223611D01*
X124710Y223617D01*
X124614Y223619D01*
X127069Y221164D02*
X127069Y220345D01*
X127067Y220252D01*
X127062Y220160D01*
X127052Y220067D01*
X127039Y219975D01*
X127023Y219884D01*
X127002Y219793D01*
X126979Y219704D01*
X126951Y219615D01*
X126920Y219527D01*
X126886Y219441D01*
X126848Y219357D01*
X126807Y219273D01*
X126762Y219192D01*
X126714Y219112D01*
X126663Y219035D01*
X126609Y218959D01*
X126552Y218886D01*
X126493Y218815D01*
X126430Y218746D01*
X126365Y218680D01*
X126297Y218617D01*
X126226Y218557D01*
X126154Y218499D01*
X126079Y218444D01*
X126001Y218393D01*
X125922Y218344D01*
X125841Y218299D01*
X125842Y218299D02*
X125842Y216253D01*
X127069Y216253D01*
X122159Y221164D02*
X122161Y221263D01*
X122167Y221362D01*
X122177Y221460D01*
X122191Y221558D01*
X122209Y221655D01*
X122230Y221752D01*
X122256Y221847D01*
X122285Y221941D01*
X122319Y222035D01*
X122355Y222126D01*
X122396Y222216D01*
X122440Y222305D01*
X122488Y222392D01*
X122539Y222476D01*
X122594Y222559D01*
X122651Y222639D01*
X122712Y222717D01*
X122776Y222792D01*
X122843Y222865D01*
X122913Y222935D01*
X122986Y223002D01*
X123061Y223066D01*
X123139Y223127D01*
X123219Y223184D01*
X123302Y223239D01*
X123387Y223290D01*
X123473Y223338D01*
X123562Y223382D01*
X123652Y223423D01*
X123743Y223459D01*
X123837Y223493D01*
X123931Y223522D01*
X124026Y223548D01*
X124123Y223569D01*
X124220Y223587D01*
X124318Y223601D01*
X124416Y223611D01*
X124515Y223617D01*
X124614Y223619D01*
X122159Y221164D02*
X122159Y220345D01*
X122158Y220345D02*
X122160Y220252D01*
X122165Y220160D01*
X122175Y220067D01*
X122188Y219975D01*
X122204Y219884D01*
X122225Y219793D01*
X122248Y219704D01*
X122276Y219615D01*
X122307Y219527D01*
X122341Y219441D01*
X122379Y219357D01*
X122420Y219273D01*
X122465Y219192D01*
X122513Y219112D01*
X122564Y219035D01*
X122618Y218959D01*
X122675Y218886D01*
X122734Y218815D01*
X122797Y218746D01*
X122862Y218680D01*
X122930Y218617D01*
X123001Y218557D01*
X123073Y218499D01*
X123148Y218444D01*
X123226Y218393D01*
X123305Y218344D01*
X123386Y218299D01*
X123386Y216253D01*
X122159Y216253D01*
X150473Y252119D02*
X152519Y250482D01*
X150473Y252119D02*
X150473Y244753D01*
X152519Y244753D02*
X148427Y244753D01*
X145204Y248436D02*
X145202Y248589D01*
X145196Y248742D01*
X145187Y248894D01*
X145173Y249047D01*
X145156Y249199D01*
X145135Y249350D01*
X145110Y249501D01*
X145081Y249651D01*
X145049Y249801D01*
X145012Y249949D01*
X144972Y250097D01*
X144929Y250244D01*
X144881Y250389D01*
X144830Y250533D01*
X144776Y250676D01*
X144717Y250818D01*
X144656Y250957D01*
X144590Y251096D01*
X144564Y251166D01*
X144534Y251235D01*
X144502Y251303D01*
X144465Y251369D01*
X144426Y251433D01*
X144383Y251495D01*
X144338Y251554D01*
X144289Y251612D01*
X144238Y251666D01*
X144184Y251719D01*
X144127Y251768D01*
X144068Y251815D01*
X144007Y251858D01*
X143944Y251899D01*
X143879Y251936D01*
X143812Y251971D01*
X143743Y252001D01*
X143673Y252029D01*
X143602Y252052D01*
X143530Y252073D01*
X143457Y252089D01*
X143383Y252102D01*
X143308Y252112D01*
X143233Y252117D01*
X143158Y252119D01*
X143083Y252117D01*
X143008Y252112D01*
X142933Y252102D01*
X142859Y252089D01*
X142786Y252073D01*
X142714Y252052D01*
X142643Y252029D01*
X142573Y252001D01*
X142504Y251971D01*
X142437Y251936D01*
X142372Y251899D01*
X142309Y251858D01*
X142248Y251815D01*
X142189Y251768D01*
X142132Y251719D01*
X142078Y251666D01*
X142027Y251612D01*
X141979Y251554D01*
X141933Y251495D01*
X141890Y251433D01*
X141851Y251369D01*
X141815Y251303D01*
X141782Y251236D01*
X141752Y251166D01*
X141726Y251096D01*
X141661Y250958D01*
X141599Y250818D01*
X141541Y250676D01*
X141486Y250533D01*
X141435Y250389D01*
X141387Y250244D01*
X141344Y250097D01*
X141304Y249950D01*
X141267Y249801D01*
X141235Y249651D01*
X141206Y249501D01*
X141181Y249350D01*
X141160Y249199D01*
X141143Y249047D01*
X141129Y248894D01*
X141120Y248742D01*
X141114Y248589D01*
X141112Y248436D01*
X145205Y248436D02*
X145203Y248283D01*
X145197Y248130D01*
X145188Y247977D01*
X145174Y247825D01*
X145157Y247673D01*
X145136Y247522D01*
X145111Y247371D01*
X145082Y247220D01*
X145050Y247071D01*
X145013Y246922D01*
X144973Y246775D01*
X144930Y246628D01*
X144882Y246483D01*
X144831Y246338D01*
X144776Y246196D01*
X144718Y246054D01*
X144656Y245914D01*
X144591Y245776D01*
X144590Y245776D02*
X144564Y245706D01*
X144534Y245636D01*
X144502Y245569D01*
X144465Y245503D01*
X144426Y245439D01*
X144383Y245377D01*
X144337Y245318D01*
X144289Y245260D01*
X144238Y245206D01*
X144184Y245153D01*
X144127Y245104D01*
X144068Y245057D01*
X144007Y245014D01*
X143944Y244973D01*
X143879Y244936D01*
X143812Y244901D01*
X143743Y244871D01*
X143673Y244843D01*
X143602Y244820D01*
X143530Y244799D01*
X143457Y244783D01*
X143383Y244770D01*
X143308Y244760D01*
X143233Y244755D01*
X143158Y244753D01*
X141726Y245776D02*
X141661Y245914D01*
X141599Y246054D01*
X141541Y246196D01*
X141486Y246339D01*
X141435Y246483D01*
X141387Y246628D01*
X141344Y246775D01*
X141304Y246923D01*
X141267Y247071D01*
X141235Y247221D01*
X141206Y247371D01*
X141181Y247522D01*
X141160Y247673D01*
X141143Y247825D01*
X141129Y247978D01*
X141120Y248130D01*
X141114Y248283D01*
X141112Y248436D01*
X141726Y245776D02*
X141752Y245705D01*
X141782Y245636D01*
X141815Y245569D01*
X141851Y245503D01*
X141890Y245439D01*
X141933Y245377D01*
X141979Y245318D01*
X142027Y245260D01*
X142078Y245206D01*
X142132Y245153D01*
X142189Y245104D01*
X142248Y245057D01*
X142309Y245014D01*
X142372Y244973D01*
X142437Y244936D01*
X142504Y244901D01*
X142573Y244871D01*
X142643Y244843D01*
X142714Y244820D01*
X142786Y244799D01*
X142859Y244783D01*
X142933Y244770D01*
X143008Y244760D01*
X143083Y244755D01*
X143158Y244753D01*
X144795Y246390D02*
X141521Y250482D01*
X133728Y252119D02*
X133728Y244753D01*
X133728Y247208D02*
X130454Y249664D01*
X132296Y248231D02*
X130454Y244753D01*
X127569Y249664D02*
X127567Y249760D01*
X127561Y249857D01*
X127552Y249953D01*
X127539Y250048D01*
X127522Y250143D01*
X127501Y250237D01*
X127477Y250330D01*
X127449Y250423D01*
X127417Y250514D01*
X127382Y250603D01*
X127343Y250692D01*
X127301Y250779D01*
X127256Y250864D01*
X127207Y250947D01*
X127155Y251028D01*
X127100Y251107D01*
X127042Y251184D01*
X126981Y251258D01*
X126917Y251330D01*
X126850Y251400D01*
X126780Y251467D01*
X126708Y251531D01*
X126634Y251592D01*
X126557Y251650D01*
X126478Y251705D01*
X126397Y251757D01*
X126314Y251806D01*
X126229Y251851D01*
X126142Y251893D01*
X126053Y251932D01*
X125964Y251967D01*
X125873Y251999D01*
X125780Y252027D01*
X125687Y252051D01*
X125593Y252072D01*
X125498Y252089D01*
X125403Y252102D01*
X125307Y252111D01*
X125210Y252117D01*
X125114Y252119D01*
X127569Y249664D02*
X127569Y248845D01*
X127567Y248752D01*
X127562Y248660D01*
X127552Y248567D01*
X127539Y248475D01*
X127523Y248384D01*
X127502Y248293D01*
X127479Y248204D01*
X127451Y248115D01*
X127420Y248027D01*
X127386Y247941D01*
X127348Y247857D01*
X127307Y247773D01*
X127262Y247692D01*
X127214Y247612D01*
X127163Y247535D01*
X127109Y247459D01*
X127052Y247386D01*
X126993Y247315D01*
X126930Y247246D01*
X126865Y247180D01*
X126797Y247117D01*
X126726Y247057D01*
X126654Y246999D01*
X126579Y246944D01*
X126501Y246893D01*
X126422Y246844D01*
X126341Y246799D01*
X126342Y246799D02*
X126342Y244753D01*
X127569Y244753D01*
X122659Y249664D02*
X122661Y249763D01*
X122667Y249862D01*
X122677Y249960D01*
X122691Y250058D01*
X122709Y250155D01*
X122730Y250252D01*
X122756Y250347D01*
X122785Y250441D01*
X122819Y250535D01*
X122855Y250626D01*
X122896Y250716D01*
X122940Y250805D01*
X122988Y250892D01*
X123039Y250976D01*
X123094Y251059D01*
X123151Y251139D01*
X123212Y251217D01*
X123276Y251292D01*
X123343Y251365D01*
X123413Y251435D01*
X123486Y251502D01*
X123561Y251566D01*
X123639Y251627D01*
X123719Y251684D01*
X123802Y251739D01*
X123887Y251790D01*
X123973Y251838D01*
X124062Y251882D01*
X124152Y251923D01*
X124243Y251959D01*
X124337Y251993D01*
X124431Y252022D01*
X124526Y252048D01*
X124623Y252069D01*
X124720Y252087D01*
X124818Y252101D01*
X124916Y252111D01*
X125015Y252117D01*
X125114Y252119D01*
X122659Y249664D02*
X122659Y248845D01*
X122658Y248845D02*
X122660Y248752D01*
X122665Y248660D01*
X122675Y248567D01*
X122688Y248475D01*
X122704Y248384D01*
X122725Y248293D01*
X122748Y248204D01*
X122776Y248115D01*
X122807Y248027D01*
X122841Y247941D01*
X122879Y247857D01*
X122920Y247773D01*
X122965Y247692D01*
X123013Y247612D01*
X123064Y247535D01*
X123118Y247459D01*
X123175Y247386D01*
X123234Y247315D01*
X123297Y247246D01*
X123362Y247180D01*
X123430Y247117D01*
X123501Y247057D01*
X123573Y246999D01*
X123648Y246944D01*
X123726Y246893D01*
X123805Y246844D01*
X123886Y246799D01*
X123886Y244753D01*
X122659Y244753D01*
X150973Y280119D02*
X153019Y278482D01*
X150973Y280119D02*
X150973Y272753D01*
X153019Y272753D02*
X148927Y272753D01*
X145704Y276436D02*
X145702Y276589D01*
X145696Y276742D01*
X145687Y276894D01*
X145673Y277047D01*
X145656Y277199D01*
X145635Y277350D01*
X145610Y277501D01*
X145581Y277651D01*
X145549Y277801D01*
X145512Y277949D01*
X145472Y278097D01*
X145429Y278244D01*
X145381Y278389D01*
X145330Y278533D01*
X145276Y278676D01*
X145217Y278818D01*
X145156Y278957D01*
X145090Y279096D01*
X145064Y279166D01*
X145034Y279235D01*
X145002Y279303D01*
X144965Y279369D01*
X144926Y279433D01*
X144883Y279495D01*
X144838Y279554D01*
X144789Y279612D01*
X144738Y279666D01*
X144684Y279719D01*
X144627Y279768D01*
X144568Y279815D01*
X144507Y279858D01*
X144444Y279899D01*
X144379Y279936D01*
X144312Y279971D01*
X144243Y280001D01*
X144173Y280029D01*
X144102Y280052D01*
X144030Y280073D01*
X143957Y280089D01*
X143883Y280102D01*
X143808Y280112D01*
X143733Y280117D01*
X143658Y280119D01*
X143583Y280117D01*
X143508Y280112D01*
X143433Y280102D01*
X143359Y280089D01*
X143286Y280073D01*
X143214Y280052D01*
X143143Y280029D01*
X143073Y280001D01*
X143004Y279971D01*
X142937Y279936D01*
X142872Y279899D01*
X142809Y279858D01*
X142748Y279815D01*
X142689Y279768D01*
X142632Y279719D01*
X142578Y279666D01*
X142527Y279612D01*
X142479Y279554D01*
X142433Y279495D01*
X142390Y279433D01*
X142351Y279369D01*
X142315Y279303D01*
X142282Y279236D01*
X142252Y279166D01*
X142226Y279096D01*
X142161Y278958D01*
X142099Y278818D01*
X142041Y278676D01*
X141986Y278533D01*
X141935Y278389D01*
X141887Y278244D01*
X141844Y278097D01*
X141804Y277950D01*
X141767Y277801D01*
X141735Y277651D01*
X141706Y277501D01*
X141681Y277350D01*
X141660Y277199D01*
X141643Y277047D01*
X141629Y276894D01*
X141620Y276742D01*
X141614Y276589D01*
X141612Y276436D01*
X145705Y276436D02*
X145703Y276283D01*
X145697Y276130D01*
X145688Y275977D01*
X145674Y275825D01*
X145657Y275673D01*
X145636Y275522D01*
X145611Y275371D01*
X145582Y275220D01*
X145550Y275071D01*
X145513Y274922D01*
X145473Y274775D01*
X145430Y274628D01*
X145382Y274483D01*
X145331Y274338D01*
X145276Y274196D01*
X145218Y274054D01*
X145156Y273914D01*
X145091Y273776D01*
X145090Y273776D02*
X145064Y273706D01*
X145034Y273636D01*
X145002Y273569D01*
X144965Y273503D01*
X144926Y273439D01*
X144883Y273377D01*
X144837Y273318D01*
X144789Y273260D01*
X144738Y273206D01*
X144684Y273153D01*
X144627Y273104D01*
X144568Y273057D01*
X144507Y273014D01*
X144444Y272973D01*
X144379Y272936D01*
X144312Y272901D01*
X144243Y272871D01*
X144173Y272843D01*
X144102Y272820D01*
X144030Y272799D01*
X143957Y272783D01*
X143883Y272770D01*
X143808Y272760D01*
X143733Y272755D01*
X143658Y272753D01*
X142226Y273776D02*
X142161Y273914D01*
X142099Y274054D01*
X142041Y274196D01*
X141986Y274339D01*
X141935Y274483D01*
X141887Y274628D01*
X141844Y274775D01*
X141804Y274923D01*
X141767Y275071D01*
X141735Y275221D01*
X141706Y275371D01*
X141681Y275522D01*
X141660Y275673D01*
X141643Y275825D01*
X141629Y275978D01*
X141620Y276130D01*
X141614Y276283D01*
X141612Y276436D01*
X142226Y273776D02*
X142252Y273705D01*
X142282Y273636D01*
X142315Y273569D01*
X142351Y273503D01*
X142390Y273439D01*
X142433Y273377D01*
X142479Y273318D01*
X142527Y273260D01*
X142578Y273206D01*
X142632Y273153D01*
X142689Y273104D01*
X142748Y273057D01*
X142809Y273014D01*
X142872Y272973D01*
X142937Y272936D01*
X143004Y272901D01*
X143073Y272871D01*
X143143Y272843D01*
X143214Y272820D01*
X143286Y272799D01*
X143359Y272783D01*
X143433Y272770D01*
X143508Y272760D01*
X143583Y272755D01*
X143658Y272753D01*
X145295Y274390D02*
X142021Y278482D01*
X134228Y280119D02*
X134228Y272753D01*
X134228Y275208D02*
X130954Y277664D01*
X132796Y276231D02*
X130954Y272753D01*
X128069Y277664D02*
X128067Y277760D01*
X128061Y277857D01*
X128052Y277953D01*
X128039Y278048D01*
X128022Y278143D01*
X128001Y278237D01*
X127977Y278330D01*
X127949Y278423D01*
X127917Y278514D01*
X127882Y278603D01*
X127843Y278692D01*
X127801Y278779D01*
X127756Y278864D01*
X127707Y278947D01*
X127655Y279028D01*
X127600Y279107D01*
X127542Y279184D01*
X127481Y279258D01*
X127417Y279330D01*
X127350Y279400D01*
X127280Y279467D01*
X127208Y279531D01*
X127134Y279592D01*
X127057Y279650D01*
X126978Y279705D01*
X126897Y279757D01*
X126814Y279806D01*
X126729Y279851D01*
X126642Y279893D01*
X126553Y279932D01*
X126464Y279967D01*
X126373Y279999D01*
X126280Y280027D01*
X126187Y280051D01*
X126093Y280072D01*
X125998Y280089D01*
X125903Y280102D01*
X125807Y280111D01*
X125710Y280117D01*
X125614Y280119D01*
X128069Y277664D02*
X128069Y276845D01*
X128067Y276752D01*
X128062Y276660D01*
X128052Y276567D01*
X128039Y276475D01*
X128023Y276384D01*
X128002Y276293D01*
X127979Y276204D01*
X127951Y276115D01*
X127920Y276027D01*
X127886Y275941D01*
X127848Y275857D01*
X127807Y275773D01*
X127762Y275692D01*
X127714Y275612D01*
X127663Y275535D01*
X127609Y275459D01*
X127552Y275386D01*
X127493Y275315D01*
X127430Y275246D01*
X127365Y275180D01*
X127297Y275117D01*
X127226Y275057D01*
X127154Y274999D01*
X127079Y274944D01*
X127001Y274893D01*
X126922Y274844D01*
X126841Y274799D01*
X126842Y274799D02*
X126842Y272753D01*
X128069Y272753D01*
X123159Y277664D02*
X123161Y277763D01*
X123167Y277862D01*
X123177Y277960D01*
X123191Y278058D01*
X123209Y278155D01*
X123230Y278252D01*
X123256Y278347D01*
X123285Y278441D01*
X123319Y278535D01*
X123355Y278626D01*
X123396Y278716D01*
X123440Y278805D01*
X123488Y278892D01*
X123539Y278976D01*
X123594Y279059D01*
X123651Y279139D01*
X123712Y279217D01*
X123776Y279292D01*
X123843Y279365D01*
X123913Y279435D01*
X123986Y279502D01*
X124061Y279566D01*
X124139Y279627D01*
X124219Y279684D01*
X124302Y279739D01*
X124387Y279790D01*
X124473Y279838D01*
X124562Y279882D01*
X124652Y279923D01*
X124743Y279959D01*
X124837Y279993D01*
X124931Y280022D01*
X125026Y280048D01*
X125123Y280069D01*
X125220Y280087D01*
X125318Y280101D01*
X125416Y280111D01*
X125515Y280117D01*
X125614Y280119D01*
X123159Y277664D02*
X123159Y276845D01*
X123158Y276845D02*
X123160Y276752D01*
X123165Y276660D01*
X123175Y276567D01*
X123188Y276475D01*
X123204Y276384D01*
X123225Y276293D01*
X123248Y276204D01*
X123276Y276115D01*
X123307Y276027D01*
X123341Y275941D01*
X123379Y275857D01*
X123420Y275773D01*
X123465Y275692D01*
X123513Y275612D01*
X123564Y275535D01*
X123618Y275459D01*
X123675Y275386D01*
X123734Y275315D01*
X123797Y275246D01*
X123862Y275180D01*
X123930Y275117D01*
X124001Y275057D01*
X124073Y274999D01*
X124148Y274944D01*
X124226Y274893D01*
X124305Y274844D01*
X124386Y274799D01*
X124386Y272753D01*
X123159Y272753D01*
X267119Y43712D02*
X265482Y41665D01*
X267119Y43712D02*
X259753Y43712D01*
X259753Y45758D02*
X259753Y41665D01*
X263436Y48981D02*
X263589Y48983D01*
X263742Y48989D01*
X263894Y48998D01*
X264047Y49012D01*
X264199Y49029D01*
X264350Y49050D01*
X264501Y49075D01*
X264651Y49104D01*
X264801Y49136D01*
X264949Y49173D01*
X265097Y49213D01*
X265244Y49256D01*
X265389Y49304D01*
X265533Y49355D01*
X265676Y49409D01*
X265818Y49468D01*
X265957Y49529D01*
X266096Y49595D01*
X266166Y49621D01*
X266236Y49651D01*
X266303Y49684D01*
X266369Y49720D01*
X266433Y49759D01*
X266495Y49802D01*
X266554Y49848D01*
X266612Y49896D01*
X266666Y49947D01*
X266719Y50001D01*
X266768Y50058D01*
X266815Y50117D01*
X266858Y50178D01*
X266899Y50241D01*
X266936Y50306D01*
X266971Y50373D01*
X267001Y50442D01*
X267029Y50512D01*
X267052Y50583D01*
X267073Y50655D01*
X267089Y50728D01*
X267102Y50802D01*
X267112Y50877D01*
X267117Y50952D01*
X267119Y51027D01*
X267117Y51102D01*
X267112Y51177D01*
X267102Y51252D01*
X267089Y51326D01*
X267073Y51399D01*
X267052Y51471D01*
X267029Y51542D01*
X267001Y51612D01*
X266971Y51681D01*
X266936Y51748D01*
X266899Y51813D01*
X266858Y51876D01*
X266815Y51937D01*
X266768Y51996D01*
X266719Y52053D01*
X266666Y52107D01*
X266612Y52158D01*
X266554Y52207D01*
X266495Y52252D01*
X266433Y52295D01*
X266369Y52334D01*
X266303Y52371D01*
X266235Y52403D01*
X266166Y52433D01*
X266096Y52459D01*
X265958Y52524D01*
X265818Y52586D01*
X265676Y52644D01*
X265533Y52699D01*
X265389Y52750D01*
X265244Y52798D01*
X265097Y52841D01*
X264950Y52881D01*
X264801Y52918D01*
X264651Y52950D01*
X264501Y52979D01*
X264350Y53004D01*
X264199Y53025D01*
X264047Y53042D01*
X263894Y53056D01*
X263742Y53065D01*
X263589Y53071D01*
X263436Y53073D01*
X263436Y48980D02*
X263283Y48982D01*
X263130Y48988D01*
X262977Y48997D01*
X262825Y49011D01*
X262673Y49028D01*
X262522Y49049D01*
X262371Y49074D01*
X262220Y49103D01*
X262071Y49135D01*
X261922Y49172D01*
X261775Y49212D01*
X261628Y49255D01*
X261483Y49303D01*
X261338Y49354D01*
X261196Y49409D01*
X261054Y49467D01*
X260914Y49529D01*
X260776Y49594D01*
X260776Y49595D02*
X260705Y49621D01*
X260636Y49651D01*
X260569Y49684D01*
X260503Y49720D01*
X260439Y49759D01*
X260377Y49802D01*
X260318Y49848D01*
X260260Y49896D01*
X260206Y49947D01*
X260153Y50001D01*
X260104Y50058D01*
X260057Y50117D01*
X260014Y50178D01*
X259973Y50241D01*
X259936Y50306D01*
X259901Y50373D01*
X259871Y50442D01*
X259843Y50512D01*
X259820Y50583D01*
X259799Y50655D01*
X259783Y50728D01*
X259770Y50802D01*
X259760Y50877D01*
X259755Y50952D01*
X259753Y51027D01*
X260776Y52459D02*
X260914Y52524D01*
X261054Y52586D01*
X261196Y52644D01*
X261339Y52699D01*
X261483Y52750D01*
X261628Y52798D01*
X261775Y52841D01*
X261923Y52881D01*
X262071Y52918D01*
X262221Y52950D01*
X262371Y52979D01*
X262522Y53004D01*
X262673Y53025D01*
X262825Y53042D01*
X262978Y53056D01*
X263130Y53065D01*
X263283Y53071D01*
X263436Y53073D01*
X260776Y52459D02*
X260706Y52433D01*
X260636Y52403D01*
X260569Y52371D01*
X260503Y52334D01*
X260439Y52295D01*
X260377Y52252D01*
X260318Y52206D01*
X260260Y52158D01*
X260206Y52107D01*
X260153Y52053D01*
X260104Y51996D01*
X260057Y51937D01*
X260014Y51876D01*
X259973Y51813D01*
X259936Y51748D01*
X259901Y51681D01*
X259871Y51612D01*
X259843Y51542D01*
X259820Y51471D01*
X259799Y51399D01*
X259783Y51326D01*
X259770Y51252D01*
X259760Y51177D01*
X259755Y51102D01*
X259753Y51027D01*
X261390Y49390D02*
X265482Y52664D01*
X263436Y56296D02*
X263589Y56298D01*
X263742Y56304D01*
X263894Y56313D01*
X264047Y56327D01*
X264199Y56344D01*
X264350Y56365D01*
X264501Y56390D01*
X264651Y56419D01*
X264801Y56451D01*
X264949Y56488D01*
X265097Y56528D01*
X265244Y56571D01*
X265389Y56619D01*
X265533Y56670D01*
X265676Y56724D01*
X265818Y56783D01*
X265957Y56844D01*
X266096Y56910D01*
X266166Y56936D01*
X266236Y56966D01*
X266303Y56999D01*
X266369Y57035D01*
X266433Y57074D01*
X266495Y57117D01*
X266554Y57163D01*
X266612Y57211D01*
X266666Y57262D01*
X266719Y57316D01*
X266768Y57373D01*
X266815Y57432D01*
X266858Y57493D01*
X266899Y57556D01*
X266936Y57621D01*
X266971Y57688D01*
X267001Y57757D01*
X267029Y57827D01*
X267052Y57898D01*
X267073Y57970D01*
X267089Y58043D01*
X267102Y58117D01*
X267112Y58192D01*
X267117Y58267D01*
X267119Y58342D01*
X267117Y58417D01*
X267112Y58492D01*
X267102Y58567D01*
X267089Y58641D01*
X267073Y58714D01*
X267052Y58786D01*
X267029Y58857D01*
X267001Y58927D01*
X266971Y58996D01*
X266936Y59063D01*
X266899Y59128D01*
X266858Y59191D01*
X266815Y59252D01*
X266768Y59311D01*
X266719Y59368D01*
X266666Y59422D01*
X266612Y59473D01*
X266554Y59522D01*
X266495Y59567D01*
X266433Y59610D01*
X266369Y59649D01*
X266303Y59686D01*
X266235Y59718D01*
X266166Y59748D01*
X266096Y59774D01*
X265958Y59839D01*
X265818Y59901D01*
X265676Y59959D01*
X265533Y60014D01*
X265389Y60065D01*
X265244Y60113D01*
X265097Y60156D01*
X264950Y60196D01*
X264801Y60233D01*
X264651Y60265D01*
X264501Y60294D01*
X264350Y60319D01*
X264199Y60340D01*
X264047Y60357D01*
X263894Y60371D01*
X263742Y60380D01*
X263589Y60386D01*
X263436Y60388D01*
X263436Y56295D02*
X263283Y56297D01*
X263130Y56303D01*
X262977Y56312D01*
X262825Y56326D01*
X262673Y56343D01*
X262522Y56364D01*
X262371Y56389D01*
X262220Y56418D01*
X262071Y56450D01*
X261922Y56487D01*
X261775Y56527D01*
X261628Y56570D01*
X261483Y56618D01*
X261338Y56669D01*
X261196Y56724D01*
X261054Y56782D01*
X260914Y56844D01*
X260776Y56909D01*
X260776Y56910D02*
X260705Y56936D01*
X260636Y56966D01*
X260569Y56999D01*
X260503Y57035D01*
X260439Y57074D01*
X260377Y57117D01*
X260318Y57163D01*
X260260Y57211D01*
X260206Y57262D01*
X260153Y57316D01*
X260104Y57373D01*
X260057Y57432D01*
X260014Y57493D01*
X259973Y57556D01*
X259936Y57621D01*
X259901Y57688D01*
X259871Y57757D01*
X259843Y57827D01*
X259820Y57898D01*
X259799Y57970D01*
X259783Y58043D01*
X259770Y58117D01*
X259760Y58192D01*
X259755Y58267D01*
X259753Y58342D01*
X260776Y59774D02*
X260914Y59839D01*
X261054Y59901D01*
X261196Y59959D01*
X261339Y60014D01*
X261483Y60065D01*
X261628Y60113D01*
X261775Y60156D01*
X261923Y60196D01*
X262071Y60233D01*
X262221Y60265D01*
X262371Y60294D01*
X262522Y60319D01*
X262673Y60340D01*
X262825Y60357D01*
X262978Y60371D01*
X263130Y60380D01*
X263283Y60386D01*
X263436Y60388D01*
X260776Y59774D02*
X260706Y59748D01*
X260636Y59718D01*
X260569Y59686D01*
X260503Y59649D01*
X260439Y59610D01*
X260377Y59567D01*
X260318Y59521D01*
X260260Y59473D01*
X260206Y59422D01*
X260153Y59368D01*
X260104Y59311D01*
X260057Y59252D01*
X260014Y59191D01*
X259973Y59128D01*
X259936Y59063D01*
X259901Y58996D01*
X259871Y58927D01*
X259843Y58857D01*
X259820Y58786D01*
X259799Y58714D01*
X259783Y58641D01*
X259770Y58567D01*
X259760Y58492D01*
X259755Y58417D01*
X259753Y58342D01*
X261390Y56705D02*
X265482Y59979D01*
X267119Y67772D02*
X259753Y67772D01*
X262208Y67772D02*
X264664Y71046D01*
X263231Y69204D02*
X259753Y71046D01*
X264664Y73931D02*
X264760Y73933D01*
X264857Y73939D01*
X264953Y73948D01*
X265048Y73961D01*
X265143Y73978D01*
X265237Y73999D01*
X265330Y74023D01*
X265423Y74051D01*
X265514Y74083D01*
X265603Y74118D01*
X265692Y74157D01*
X265779Y74199D01*
X265864Y74244D01*
X265947Y74293D01*
X266028Y74345D01*
X266107Y74400D01*
X266184Y74458D01*
X266258Y74519D01*
X266330Y74583D01*
X266400Y74650D01*
X266467Y74720D01*
X266531Y74792D01*
X266592Y74866D01*
X266650Y74943D01*
X266705Y75022D01*
X266757Y75103D01*
X266806Y75186D01*
X266851Y75271D01*
X266893Y75358D01*
X266932Y75447D01*
X266967Y75536D01*
X266999Y75627D01*
X267027Y75720D01*
X267051Y75813D01*
X267072Y75907D01*
X267089Y76002D01*
X267102Y76097D01*
X267111Y76193D01*
X267117Y76290D01*
X267119Y76386D01*
X264664Y73931D02*
X263845Y73931D01*
X263752Y73933D01*
X263660Y73938D01*
X263567Y73948D01*
X263475Y73961D01*
X263384Y73977D01*
X263293Y73998D01*
X263204Y74021D01*
X263115Y74049D01*
X263027Y74080D01*
X262941Y74114D01*
X262857Y74152D01*
X262773Y74193D01*
X262692Y74238D01*
X262612Y74286D01*
X262535Y74337D01*
X262459Y74391D01*
X262386Y74448D01*
X262315Y74507D01*
X262246Y74570D01*
X262180Y74635D01*
X262117Y74703D01*
X262057Y74774D01*
X261999Y74846D01*
X261944Y74921D01*
X261893Y74999D01*
X261844Y75078D01*
X261799Y75159D01*
X261799Y75158D02*
X259753Y75158D01*
X259753Y73931D01*
X264664Y78841D02*
X264760Y78839D01*
X264857Y78833D01*
X264953Y78824D01*
X265048Y78811D01*
X265143Y78794D01*
X265237Y78773D01*
X265330Y78749D01*
X265423Y78721D01*
X265514Y78689D01*
X265603Y78654D01*
X265692Y78615D01*
X265779Y78573D01*
X265864Y78528D01*
X265947Y78479D01*
X266028Y78427D01*
X266107Y78372D01*
X266184Y78314D01*
X266258Y78253D01*
X266330Y78189D01*
X266400Y78122D01*
X266467Y78052D01*
X266531Y77980D01*
X266592Y77906D01*
X266650Y77829D01*
X266705Y77750D01*
X266757Y77669D01*
X266806Y77586D01*
X266851Y77501D01*
X266893Y77414D01*
X266932Y77325D01*
X266967Y77236D01*
X266999Y77145D01*
X267027Y77052D01*
X267051Y76959D01*
X267072Y76865D01*
X267089Y76770D01*
X267102Y76675D01*
X267111Y76579D01*
X267117Y76482D01*
X267119Y76386D01*
X264664Y78841D02*
X263845Y78841D01*
X263845Y78842D02*
X263752Y78840D01*
X263660Y78835D01*
X263567Y78825D01*
X263475Y78812D01*
X263384Y78796D01*
X263293Y78775D01*
X263204Y78752D01*
X263115Y78724D01*
X263027Y78693D01*
X262941Y78659D01*
X262857Y78621D01*
X262773Y78580D01*
X262692Y78535D01*
X262612Y78487D01*
X262535Y78436D01*
X262459Y78382D01*
X262386Y78325D01*
X262315Y78266D01*
X262246Y78203D01*
X262180Y78138D01*
X262117Y78070D01*
X262057Y77999D01*
X261999Y77927D01*
X261944Y77852D01*
X261893Y77774D01*
X261844Y77695D01*
X261799Y77614D01*
X259753Y77614D01*
X259753Y78841D01*
X298119Y43212D02*
X296482Y41165D01*
X298119Y43212D02*
X290753Y43212D01*
X290753Y45258D02*
X290753Y41165D01*
X294436Y48481D02*
X294589Y48483D01*
X294742Y48489D01*
X294894Y48498D01*
X295047Y48512D01*
X295199Y48529D01*
X295350Y48550D01*
X295501Y48575D01*
X295651Y48604D01*
X295801Y48636D01*
X295949Y48673D01*
X296097Y48713D01*
X296244Y48756D01*
X296389Y48804D01*
X296533Y48855D01*
X296676Y48909D01*
X296818Y48968D01*
X296957Y49029D01*
X297096Y49095D01*
X297166Y49121D01*
X297236Y49151D01*
X297303Y49184D01*
X297369Y49220D01*
X297433Y49259D01*
X297495Y49302D01*
X297554Y49348D01*
X297612Y49396D01*
X297666Y49447D01*
X297719Y49501D01*
X297768Y49558D01*
X297815Y49617D01*
X297858Y49678D01*
X297899Y49741D01*
X297936Y49806D01*
X297971Y49873D01*
X298001Y49942D01*
X298029Y50012D01*
X298052Y50083D01*
X298073Y50155D01*
X298089Y50228D01*
X298102Y50302D01*
X298112Y50377D01*
X298117Y50452D01*
X298119Y50527D01*
X298117Y50602D01*
X298112Y50677D01*
X298102Y50752D01*
X298089Y50826D01*
X298073Y50899D01*
X298052Y50971D01*
X298029Y51042D01*
X298001Y51112D01*
X297971Y51181D01*
X297936Y51248D01*
X297899Y51313D01*
X297858Y51376D01*
X297815Y51437D01*
X297768Y51496D01*
X297719Y51553D01*
X297666Y51607D01*
X297612Y51658D01*
X297554Y51707D01*
X297495Y51752D01*
X297433Y51795D01*
X297369Y51834D01*
X297303Y51871D01*
X297235Y51903D01*
X297166Y51933D01*
X297096Y51959D01*
X296958Y52024D01*
X296818Y52086D01*
X296676Y52144D01*
X296533Y52199D01*
X296389Y52250D01*
X296244Y52298D01*
X296097Y52341D01*
X295950Y52381D01*
X295801Y52418D01*
X295651Y52450D01*
X295501Y52479D01*
X295350Y52504D01*
X295199Y52525D01*
X295047Y52542D01*
X294894Y52556D01*
X294742Y52565D01*
X294589Y52571D01*
X294436Y52573D01*
X294436Y48480D02*
X294283Y48482D01*
X294130Y48488D01*
X293977Y48497D01*
X293825Y48511D01*
X293673Y48528D01*
X293522Y48549D01*
X293371Y48574D01*
X293220Y48603D01*
X293071Y48635D01*
X292922Y48672D01*
X292775Y48712D01*
X292628Y48755D01*
X292483Y48803D01*
X292338Y48854D01*
X292196Y48909D01*
X292054Y48967D01*
X291914Y49029D01*
X291776Y49094D01*
X291776Y49095D02*
X291705Y49121D01*
X291636Y49151D01*
X291569Y49184D01*
X291503Y49220D01*
X291439Y49259D01*
X291377Y49302D01*
X291318Y49348D01*
X291260Y49396D01*
X291206Y49447D01*
X291153Y49501D01*
X291104Y49558D01*
X291057Y49617D01*
X291014Y49678D01*
X290973Y49741D01*
X290936Y49806D01*
X290901Y49873D01*
X290871Y49942D01*
X290843Y50012D01*
X290820Y50083D01*
X290799Y50155D01*
X290783Y50228D01*
X290770Y50302D01*
X290760Y50377D01*
X290755Y50452D01*
X290753Y50527D01*
X291776Y51959D02*
X291914Y52024D01*
X292054Y52086D01*
X292196Y52144D01*
X292339Y52199D01*
X292483Y52250D01*
X292628Y52298D01*
X292775Y52341D01*
X292923Y52381D01*
X293071Y52418D01*
X293221Y52450D01*
X293371Y52479D01*
X293522Y52504D01*
X293673Y52525D01*
X293825Y52542D01*
X293978Y52556D01*
X294130Y52565D01*
X294283Y52571D01*
X294436Y52573D01*
X291776Y51959D02*
X291706Y51933D01*
X291636Y51903D01*
X291569Y51871D01*
X291503Y51834D01*
X291439Y51795D01*
X291377Y51752D01*
X291318Y51706D01*
X291260Y51658D01*
X291206Y51607D01*
X291153Y51553D01*
X291104Y51496D01*
X291057Y51437D01*
X291014Y51376D01*
X290973Y51313D01*
X290936Y51248D01*
X290901Y51181D01*
X290871Y51112D01*
X290843Y51042D01*
X290820Y50971D01*
X290799Y50899D01*
X290783Y50826D01*
X290770Y50752D01*
X290760Y50677D01*
X290755Y50602D01*
X290753Y50527D01*
X292390Y48890D02*
X296482Y52164D01*
X294436Y55796D02*
X294589Y55798D01*
X294742Y55804D01*
X294894Y55813D01*
X295047Y55827D01*
X295199Y55844D01*
X295350Y55865D01*
X295501Y55890D01*
X295651Y55919D01*
X295801Y55951D01*
X295949Y55988D01*
X296097Y56028D01*
X296244Y56071D01*
X296389Y56119D01*
X296533Y56170D01*
X296676Y56224D01*
X296818Y56283D01*
X296957Y56344D01*
X297096Y56410D01*
X297166Y56436D01*
X297236Y56466D01*
X297303Y56499D01*
X297369Y56535D01*
X297433Y56574D01*
X297495Y56617D01*
X297554Y56663D01*
X297612Y56711D01*
X297666Y56762D01*
X297719Y56816D01*
X297768Y56873D01*
X297815Y56932D01*
X297858Y56993D01*
X297899Y57056D01*
X297936Y57121D01*
X297971Y57188D01*
X298001Y57257D01*
X298029Y57327D01*
X298052Y57398D01*
X298073Y57470D01*
X298089Y57543D01*
X298102Y57617D01*
X298112Y57692D01*
X298117Y57767D01*
X298119Y57842D01*
X298117Y57917D01*
X298112Y57992D01*
X298102Y58067D01*
X298089Y58141D01*
X298073Y58214D01*
X298052Y58286D01*
X298029Y58357D01*
X298001Y58427D01*
X297971Y58496D01*
X297936Y58563D01*
X297899Y58628D01*
X297858Y58691D01*
X297815Y58752D01*
X297768Y58811D01*
X297719Y58868D01*
X297666Y58922D01*
X297612Y58973D01*
X297554Y59022D01*
X297495Y59067D01*
X297433Y59110D01*
X297369Y59149D01*
X297303Y59186D01*
X297235Y59218D01*
X297166Y59248D01*
X297096Y59274D01*
X296958Y59339D01*
X296818Y59401D01*
X296676Y59459D01*
X296533Y59514D01*
X296389Y59565D01*
X296244Y59613D01*
X296097Y59656D01*
X295950Y59696D01*
X295801Y59733D01*
X295651Y59765D01*
X295501Y59794D01*
X295350Y59819D01*
X295199Y59840D01*
X295047Y59857D01*
X294894Y59871D01*
X294742Y59880D01*
X294589Y59886D01*
X294436Y59888D01*
X294436Y55795D02*
X294283Y55797D01*
X294130Y55803D01*
X293977Y55812D01*
X293825Y55826D01*
X293673Y55843D01*
X293522Y55864D01*
X293371Y55889D01*
X293220Y55918D01*
X293071Y55950D01*
X292922Y55987D01*
X292775Y56027D01*
X292628Y56070D01*
X292483Y56118D01*
X292338Y56169D01*
X292196Y56224D01*
X292054Y56282D01*
X291914Y56344D01*
X291776Y56409D01*
X291776Y56410D02*
X291705Y56436D01*
X291636Y56466D01*
X291569Y56499D01*
X291503Y56535D01*
X291439Y56574D01*
X291377Y56617D01*
X291318Y56663D01*
X291260Y56711D01*
X291206Y56762D01*
X291153Y56816D01*
X291104Y56873D01*
X291057Y56932D01*
X291014Y56993D01*
X290973Y57056D01*
X290936Y57121D01*
X290901Y57188D01*
X290871Y57257D01*
X290843Y57327D01*
X290820Y57398D01*
X290799Y57470D01*
X290783Y57543D01*
X290770Y57617D01*
X290760Y57692D01*
X290755Y57767D01*
X290753Y57842D01*
X291776Y59274D02*
X291914Y59339D01*
X292054Y59401D01*
X292196Y59459D01*
X292339Y59514D01*
X292483Y59565D01*
X292628Y59613D01*
X292775Y59656D01*
X292923Y59696D01*
X293071Y59733D01*
X293221Y59765D01*
X293371Y59794D01*
X293522Y59819D01*
X293673Y59840D01*
X293825Y59857D01*
X293978Y59871D01*
X294130Y59880D01*
X294283Y59886D01*
X294436Y59888D01*
X291776Y59274D02*
X291706Y59248D01*
X291636Y59218D01*
X291569Y59186D01*
X291503Y59149D01*
X291439Y59110D01*
X291377Y59067D01*
X291318Y59021D01*
X291260Y58973D01*
X291206Y58922D01*
X291153Y58868D01*
X291104Y58811D01*
X291057Y58752D01*
X291014Y58691D01*
X290973Y58628D01*
X290936Y58563D01*
X290901Y58496D01*
X290871Y58427D01*
X290843Y58357D01*
X290820Y58286D01*
X290799Y58214D01*
X290783Y58141D01*
X290770Y58067D01*
X290760Y57992D01*
X290755Y57917D01*
X290753Y57842D01*
X292390Y56205D02*
X296482Y59479D01*
X298119Y67272D02*
X290753Y67272D01*
X293208Y67272D02*
X295664Y70546D01*
X294231Y68704D02*
X290753Y70546D01*
X295664Y73431D02*
X295760Y73433D01*
X295857Y73439D01*
X295953Y73448D01*
X296048Y73461D01*
X296143Y73478D01*
X296237Y73499D01*
X296330Y73523D01*
X296423Y73551D01*
X296514Y73583D01*
X296603Y73618D01*
X296692Y73657D01*
X296779Y73699D01*
X296864Y73744D01*
X296947Y73793D01*
X297028Y73845D01*
X297107Y73900D01*
X297184Y73958D01*
X297258Y74019D01*
X297330Y74083D01*
X297400Y74150D01*
X297467Y74220D01*
X297531Y74292D01*
X297592Y74366D01*
X297650Y74443D01*
X297705Y74522D01*
X297757Y74603D01*
X297806Y74686D01*
X297851Y74771D01*
X297893Y74858D01*
X297932Y74947D01*
X297967Y75036D01*
X297999Y75127D01*
X298027Y75220D01*
X298051Y75313D01*
X298072Y75407D01*
X298089Y75502D01*
X298102Y75597D01*
X298111Y75693D01*
X298117Y75790D01*
X298119Y75886D01*
X295664Y73431D02*
X294845Y73431D01*
X294752Y73433D01*
X294660Y73438D01*
X294567Y73448D01*
X294475Y73461D01*
X294384Y73477D01*
X294293Y73498D01*
X294204Y73521D01*
X294115Y73549D01*
X294027Y73580D01*
X293941Y73614D01*
X293857Y73652D01*
X293773Y73693D01*
X293692Y73738D01*
X293612Y73786D01*
X293535Y73837D01*
X293459Y73891D01*
X293386Y73948D01*
X293315Y74007D01*
X293246Y74070D01*
X293180Y74135D01*
X293117Y74203D01*
X293057Y74274D01*
X292999Y74346D01*
X292944Y74421D01*
X292893Y74499D01*
X292844Y74578D01*
X292799Y74659D01*
X292799Y74658D02*
X290753Y74658D01*
X290753Y73431D01*
X295664Y78341D02*
X295760Y78339D01*
X295857Y78333D01*
X295953Y78324D01*
X296048Y78311D01*
X296143Y78294D01*
X296237Y78273D01*
X296330Y78249D01*
X296423Y78221D01*
X296514Y78189D01*
X296603Y78154D01*
X296692Y78115D01*
X296779Y78073D01*
X296864Y78028D01*
X296947Y77979D01*
X297028Y77927D01*
X297107Y77872D01*
X297184Y77814D01*
X297258Y77753D01*
X297330Y77689D01*
X297400Y77622D01*
X297467Y77552D01*
X297531Y77480D01*
X297592Y77406D01*
X297650Y77329D01*
X297705Y77250D01*
X297757Y77169D01*
X297806Y77086D01*
X297851Y77001D01*
X297893Y76914D01*
X297932Y76825D01*
X297967Y76736D01*
X297999Y76645D01*
X298027Y76552D01*
X298051Y76459D01*
X298072Y76365D01*
X298089Y76270D01*
X298102Y76175D01*
X298111Y76079D01*
X298117Y75982D01*
X298119Y75886D01*
X295664Y78341D02*
X294845Y78341D01*
X294845Y78342D02*
X294752Y78340D01*
X294660Y78335D01*
X294567Y78325D01*
X294475Y78312D01*
X294384Y78296D01*
X294293Y78275D01*
X294204Y78252D01*
X294115Y78224D01*
X294027Y78193D01*
X293941Y78159D01*
X293857Y78121D01*
X293773Y78080D01*
X293692Y78035D01*
X293612Y77987D01*
X293535Y77936D01*
X293459Y77882D01*
X293386Y77825D01*
X293315Y77766D01*
X293246Y77703D01*
X293180Y77638D01*
X293117Y77570D01*
X293057Y77499D01*
X292999Y77427D01*
X292944Y77352D01*
X292893Y77274D01*
X292844Y77195D01*
X292799Y77114D01*
X290753Y77114D01*
X290753Y78341D01*
X329619Y42712D02*
X327982Y40665D01*
X329619Y42712D02*
X322253Y42712D01*
X322253Y44758D02*
X322253Y40665D01*
X325936Y47981D02*
X326089Y47983D01*
X326242Y47989D01*
X326394Y47998D01*
X326547Y48012D01*
X326699Y48029D01*
X326850Y48050D01*
X327001Y48075D01*
X327151Y48104D01*
X327301Y48136D01*
X327449Y48173D01*
X327597Y48213D01*
X327744Y48256D01*
X327889Y48304D01*
X328033Y48355D01*
X328176Y48409D01*
X328318Y48468D01*
X328457Y48529D01*
X328596Y48595D01*
X328666Y48621D01*
X328736Y48651D01*
X328803Y48684D01*
X328869Y48720D01*
X328933Y48759D01*
X328995Y48802D01*
X329054Y48848D01*
X329112Y48896D01*
X329166Y48947D01*
X329219Y49001D01*
X329268Y49058D01*
X329315Y49117D01*
X329358Y49178D01*
X329399Y49241D01*
X329436Y49306D01*
X329471Y49373D01*
X329501Y49442D01*
X329529Y49512D01*
X329552Y49583D01*
X329573Y49655D01*
X329589Y49728D01*
X329602Y49802D01*
X329612Y49877D01*
X329617Y49952D01*
X329619Y50027D01*
X329617Y50102D01*
X329612Y50177D01*
X329602Y50252D01*
X329589Y50326D01*
X329573Y50399D01*
X329552Y50471D01*
X329529Y50542D01*
X329501Y50612D01*
X329471Y50681D01*
X329436Y50748D01*
X329399Y50813D01*
X329358Y50876D01*
X329315Y50937D01*
X329268Y50996D01*
X329219Y51053D01*
X329166Y51107D01*
X329112Y51158D01*
X329054Y51207D01*
X328995Y51252D01*
X328933Y51295D01*
X328869Y51334D01*
X328803Y51371D01*
X328735Y51403D01*
X328666Y51433D01*
X328596Y51459D01*
X328458Y51524D01*
X328318Y51586D01*
X328176Y51644D01*
X328033Y51699D01*
X327889Y51750D01*
X327744Y51798D01*
X327597Y51841D01*
X327450Y51881D01*
X327301Y51918D01*
X327151Y51950D01*
X327001Y51979D01*
X326850Y52004D01*
X326699Y52025D01*
X326547Y52042D01*
X326394Y52056D01*
X326242Y52065D01*
X326089Y52071D01*
X325936Y52073D01*
X325936Y47980D02*
X325783Y47982D01*
X325630Y47988D01*
X325477Y47997D01*
X325325Y48011D01*
X325173Y48028D01*
X325022Y48049D01*
X324871Y48074D01*
X324720Y48103D01*
X324571Y48135D01*
X324422Y48172D01*
X324275Y48212D01*
X324128Y48255D01*
X323983Y48303D01*
X323838Y48354D01*
X323696Y48409D01*
X323554Y48467D01*
X323414Y48529D01*
X323276Y48594D01*
X323276Y48595D02*
X323205Y48621D01*
X323136Y48651D01*
X323069Y48684D01*
X323003Y48720D01*
X322939Y48759D01*
X322877Y48802D01*
X322818Y48848D01*
X322760Y48896D01*
X322706Y48947D01*
X322653Y49001D01*
X322604Y49058D01*
X322557Y49117D01*
X322514Y49178D01*
X322473Y49241D01*
X322436Y49306D01*
X322401Y49373D01*
X322371Y49442D01*
X322343Y49512D01*
X322320Y49583D01*
X322299Y49655D01*
X322283Y49728D01*
X322270Y49802D01*
X322260Y49877D01*
X322255Y49952D01*
X322253Y50027D01*
X323276Y51459D02*
X323414Y51524D01*
X323554Y51586D01*
X323696Y51644D01*
X323839Y51699D01*
X323983Y51750D01*
X324128Y51798D01*
X324275Y51841D01*
X324423Y51881D01*
X324571Y51918D01*
X324721Y51950D01*
X324871Y51979D01*
X325022Y52004D01*
X325173Y52025D01*
X325325Y52042D01*
X325478Y52056D01*
X325630Y52065D01*
X325783Y52071D01*
X325936Y52073D01*
X323276Y51459D02*
X323206Y51433D01*
X323136Y51403D01*
X323069Y51371D01*
X323003Y51334D01*
X322939Y51295D01*
X322877Y51252D01*
X322818Y51206D01*
X322760Y51158D01*
X322706Y51107D01*
X322653Y51053D01*
X322604Y50996D01*
X322557Y50937D01*
X322514Y50876D01*
X322473Y50813D01*
X322436Y50748D01*
X322401Y50681D01*
X322371Y50612D01*
X322343Y50542D01*
X322320Y50471D01*
X322299Y50399D01*
X322283Y50326D01*
X322270Y50252D01*
X322260Y50177D01*
X322255Y50102D01*
X322253Y50027D01*
X323890Y48390D02*
X327982Y51664D01*
X325936Y55296D02*
X326089Y55298D01*
X326242Y55304D01*
X326394Y55313D01*
X326547Y55327D01*
X326699Y55344D01*
X326850Y55365D01*
X327001Y55390D01*
X327151Y55419D01*
X327301Y55451D01*
X327449Y55488D01*
X327597Y55528D01*
X327744Y55571D01*
X327889Y55619D01*
X328033Y55670D01*
X328176Y55724D01*
X328318Y55783D01*
X328457Y55844D01*
X328596Y55910D01*
X328666Y55936D01*
X328736Y55966D01*
X328803Y55999D01*
X328869Y56035D01*
X328933Y56074D01*
X328995Y56117D01*
X329054Y56163D01*
X329112Y56211D01*
X329166Y56262D01*
X329219Y56316D01*
X329268Y56373D01*
X329315Y56432D01*
X329358Y56493D01*
X329399Y56556D01*
X329436Y56621D01*
X329471Y56688D01*
X329501Y56757D01*
X329529Y56827D01*
X329552Y56898D01*
X329573Y56970D01*
X329589Y57043D01*
X329602Y57117D01*
X329612Y57192D01*
X329617Y57267D01*
X329619Y57342D01*
X329617Y57417D01*
X329612Y57492D01*
X329602Y57567D01*
X329589Y57641D01*
X329573Y57714D01*
X329552Y57786D01*
X329529Y57857D01*
X329501Y57927D01*
X329471Y57996D01*
X329436Y58063D01*
X329399Y58128D01*
X329358Y58191D01*
X329315Y58252D01*
X329268Y58311D01*
X329219Y58368D01*
X329166Y58422D01*
X329112Y58473D01*
X329054Y58522D01*
X328995Y58567D01*
X328933Y58610D01*
X328869Y58649D01*
X328803Y58686D01*
X328735Y58718D01*
X328666Y58748D01*
X328596Y58774D01*
X328458Y58839D01*
X328318Y58901D01*
X328176Y58959D01*
X328033Y59014D01*
X327889Y59065D01*
X327744Y59113D01*
X327597Y59156D01*
X327450Y59196D01*
X327301Y59233D01*
X327151Y59265D01*
X327001Y59294D01*
X326850Y59319D01*
X326699Y59340D01*
X326547Y59357D01*
X326394Y59371D01*
X326242Y59380D01*
X326089Y59386D01*
X325936Y59388D01*
X325936Y55295D02*
X325783Y55297D01*
X325630Y55303D01*
X325477Y55312D01*
X325325Y55326D01*
X325173Y55343D01*
X325022Y55364D01*
X324871Y55389D01*
X324720Y55418D01*
X324571Y55450D01*
X324422Y55487D01*
X324275Y55527D01*
X324128Y55570D01*
X323983Y55618D01*
X323838Y55669D01*
X323696Y55724D01*
X323554Y55782D01*
X323414Y55844D01*
X323276Y55909D01*
X323276Y55910D02*
X323205Y55936D01*
X323136Y55966D01*
X323069Y55999D01*
X323003Y56035D01*
X322939Y56074D01*
X322877Y56117D01*
X322818Y56163D01*
X322760Y56211D01*
X322706Y56262D01*
X322653Y56316D01*
X322604Y56373D01*
X322557Y56432D01*
X322514Y56493D01*
X322473Y56556D01*
X322436Y56621D01*
X322401Y56688D01*
X322371Y56757D01*
X322343Y56827D01*
X322320Y56898D01*
X322299Y56970D01*
X322283Y57043D01*
X322270Y57117D01*
X322260Y57192D01*
X322255Y57267D01*
X322253Y57342D01*
X323276Y58774D02*
X323414Y58839D01*
X323554Y58901D01*
X323696Y58959D01*
X323839Y59014D01*
X323983Y59065D01*
X324128Y59113D01*
X324275Y59156D01*
X324423Y59196D01*
X324571Y59233D01*
X324721Y59265D01*
X324871Y59294D01*
X325022Y59319D01*
X325173Y59340D01*
X325325Y59357D01*
X325478Y59371D01*
X325630Y59380D01*
X325783Y59386D01*
X325936Y59388D01*
X323276Y58774D02*
X323206Y58748D01*
X323136Y58718D01*
X323069Y58686D01*
X323003Y58649D01*
X322939Y58610D01*
X322877Y58567D01*
X322818Y58521D01*
X322760Y58473D01*
X322706Y58422D01*
X322653Y58368D01*
X322604Y58311D01*
X322557Y58252D01*
X322514Y58191D01*
X322473Y58128D01*
X322436Y58063D01*
X322401Y57996D01*
X322371Y57927D01*
X322343Y57857D01*
X322320Y57786D01*
X322299Y57714D01*
X322283Y57641D01*
X322270Y57567D01*
X322260Y57492D01*
X322255Y57417D01*
X322253Y57342D01*
X323890Y55705D02*
X327982Y58979D01*
X329619Y66772D02*
X322253Y66772D01*
X324708Y66772D02*
X327164Y70046D01*
X325731Y68204D02*
X322253Y70046D01*
X327164Y72931D02*
X327260Y72933D01*
X327357Y72939D01*
X327453Y72948D01*
X327548Y72961D01*
X327643Y72978D01*
X327737Y72999D01*
X327830Y73023D01*
X327923Y73051D01*
X328014Y73083D01*
X328103Y73118D01*
X328192Y73157D01*
X328279Y73199D01*
X328364Y73244D01*
X328447Y73293D01*
X328528Y73345D01*
X328607Y73400D01*
X328684Y73458D01*
X328758Y73519D01*
X328830Y73583D01*
X328900Y73650D01*
X328967Y73720D01*
X329031Y73792D01*
X329092Y73866D01*
X329150Y73943D01*
X329205Y74022D01*
X329257Y74103D01*
X329306Y74186D01*
X329351Y74271D01*
X329393Y74358D01*
X329432Y74447D01*
X329467Y74536D01*
X329499Y74627D01*
X329527Y74720D01*
X329551Y74813D01*
X329572Y74907D01*
X329589Y75002D01*
X329602Y75097D01*
X329611Y75193D01*
X329617Y75290D01*
X329619Y75386D01*
X327164Y72931D02*
X326345Y72931D01*
X326252Y72933D01*
X326160Y72938D01*
X326067Y72948D01*
X325975Y72961D01*
X325884Y72977D01*
X325793Y72998D01*
X325704Y73021D01*
X325615Y73049D01*
X325527Y73080D01*
X325441Y73114D01*
X325357Y73152D01*
X325273Y73193D01*
X325192Y73238D01*
X325112Y73286D01*
X325035Y73337D01*
X324959Y73391D01*
X324886Y73448D01*
X324815Y73507D01*
X324746Y73570D01*
X324680Y73635D01*
X324617Y73703D01*
X324557Y73774D01*
X324499Y73846D01*
X324444Y73921D01*
X324393Y73999D01*
X324344Y74078D01*
X324299Y74159D01*
X324299Y74158D02*
X322253Y74158D01*
X322253Y72931D01*
X327164Y77841D02*
X327260Y77839D01*
X327357Y77833D01*
X327453Y77824D01*
X327548Y77811D01*
X327643Y77794D01*
X327737Y77773D01*
X327830Y77749D01*
X327923Y77721D01*
X328014Y77689D01*
X328103Y77654D01*
X328192Y77615D01*
X328279Y77573D01*
X328364Y77528D01*
X328447Y77479D01*
X328528Y77427D01*
X328607Y77372D01*
X328684Y77314D01*
X328758Y77253D01*
X328830Y77189D01*
X328900Y77122D01*
X328967Y77052D01*
X329031Y76980D01*
X329092Y76906D01*
X329150Y76829D01*
X329205Y76750D01*
X329257Y76669D01*
X329306Y76586D01*
X329351Y76501D01*
X329393Y76414D01*
X329432Y76325D01*
X329467Y76236D01*
X329499Y76145D01*
X329527Y76052D01*
X329551Y75959D01*
X329572Y75865D01*
X329589Y75770D01*
X329602Y75675D01*
X329611Y75579D01*
X329617Y75482D01*
X329619Y75386D01*
X327164Y77841D02*
X326345Y77841D01*
X326345Y77842D02*
X326252Y77840D01*
X326160Y77835D01*
X326067Y77825D01*
X325975Y77812D01*
X325884Y77796D01*
X325793Y77775D01*
X325704Y77752D01*
X325615Y77724D01*
X325527Y77693D01*
X325441Y77659D01*
X325357Y77621D01*
X325273Y77580D01*
X325192Y77535D01*
X325112Y77487D01*
X325035Y77436D01*
X324959Y77382D01*
X324886Y77325D01*
X324815Y77266D01*
X324746Y77203D01*
X324680Y77138D01*
X324617Y77070D01*
X324557Y76999D01*
X324499Y76927D01*
X324444Y76852D01*
X324393Y76774D01*
X324344Y76695D01*
X324299Y76614D01*
X322253Y76614D01*
X322253Y77841D01*
M02*
