G04 EAGLE Gerber RS-274X export*
G75*
%MOMM*%
%FSLAX34Y34*%
%LPD*%
%INSoldermask Top*%
%IPPOS*%
%AMOC8*
5,1,8,0,0,1.08239X$1,22.5*%
G01*
%ADD10C,2.743200*%
%ADD11R,2.153200X2.153200*%
%ADD12C,1.524000*%
%ADD13R,1.981200X1.981200*%
%ADD14C,1.981200*%
%ADD15R,2.235200X2.235200*%
%ADD16C,2.235200*%
%ADD17P,2.034460X8X112.500000*%
%ADD18R,2.616200X2.616200*%
%ADD19C,2.616200*%
%ADD20P,2.034460X8X202.500000*%
%ADD21P,2.034460X8X292.500000*%
%ADD22P,2.034460X8X22.500000*%
%ADD23C,0.959600*%


D10*
X368900Y63100D03*
D11*
X466900Y38100D03*
X466900Y88100D03*
D12*
X179904Y419500D02*
X166696Y419500D01*
X166696Y444900D02*
X179904Y444900D01*
X179904Y571900D02*
X166696Y571900D01*
X166696Y597300D02*
X179904Y597300D01*
X179904Y470300D02*
X166696Y470300D01*
X166696Y495700D02*
X179904Y495700D01*
X179904Y546500D02*
X166696Y546500D01*
X166696Y521100D02*
X179904Y521100D01*
X103704Y597300D02*
X90496Y597300D01*
X90496Y571900D02*
X103704Y571900D01*
X103704Y546500D02*
X90496Y546500D01*
X90496Y521100D02*
X103704Y521100D01*
X103704Y495700D02*
X90496Y495700D01*
X90496Y470300D02*
X103704Y470300D01*
X103704Y444900D02*
X90496Y444900D01*
X90496Y419500D02*
X103704Y419500D01*
D13*
X45400Y38200D03*
D14*
X20000Y38200D03*
X45400Y63600D03*
X20000Y63600D03*
X45400Y89000D03*
X20000Y89000D03*
X45400Y114400D03*
X20000Y114400D03*
X45400Y139800D03*
X20000Y139800D03*
X45400Y165200D03*
X20000Y165200D03*
X45400Y190600D03*
X20000Y190600D03*
X45400Y216000D03*
X20000Y216000D03*
X45400Y241400D03*
X20000Y241400D03*
X45400Y266800D03*
X20000Y266800D03*
X45400Y292200D03*
X20000Y292200D03*
X45400Y317600D03*
X20000Y317600D03*
X45400Y343000D03*
X20000Y343000D03*
X45400Y368400D03*
X20000Y368400D03*
X45400Y393800D03*
X20000Y393800D03*
X45400Y419200D03*
X20000Y419200D03*
X45400Y444600D03*
X20000Y444600D03*
X45400Y470000D03*
X20000Y470000D03*
X45400Y495400D03*
X20000Y495400D03*
X45400Y520800D03*
X20000Y520800D03*
D15*
X341700Y708500D03*
D16*
X291700Y708500D03*
D15*
X491100Y708700D03*
D16*
X441100Y708700D03*
D17*
X249500Y515400D03*
X249500Y591600D03*
X292300Y515500D03*
X292300Y591700D03*
D18*
X277100Y352400D03*
D19*
X277100Y402400D03*
X277100Y452400D03*
D18*
X276400Y167800D03*
D19*
X276400Y217800D03*
X276400Y267800D03*
D18*
X198500Y709500D03*
D19*
X148500Y709500D03*
X98500Y709500D03*
X48500Y709500D03*
D20*
X173600Y164500D03*
X97400Y164500D03*
D21*
X294000Y102600D03*
X294000Y26400D03*
X325500Y102600D03*
X325500Y26400D03*
X231500Y102600D03*
X231500Y26400D03*
X263500Y102600D03*
X263500Y26400D03*
D20*
X174100Y276500D03*
X97900Y276500D03*
D12*
X98900Y34004D02*
X98900Y20796D01*
X124300Y20796D02*
X124300Y34004D01*
X124300Y96996D02*
X124300Y110204D01*
X98900Y110204D02*
X98900Y96996D01*
X149700Y34004D02*
X149700Y20796D01*
X175100Y20796D02*
X175100Y34004D01*
X149700Y96996D02*
X149700Y110204D01*
X175100Y110204D02*
X175100Y96996D01*
X96900Y301796D02*
X96900Y315004D01*
X122300Y315004D02*
X122300Y301796D01*
X122300Y377996D02*
X122300Y391204D01*
X96900Y391204D02*
X96900Y377996D01*
X147700Y315004D02*
X147700Y301796D01*
X173100Y301796D02*
X173100Y315004D01*
X147700Y377996D02*
X147700Y391204D01*
X173100Y391204D02*
X173100Y377996D01*
D20*
X173100Y138000D03*
X96900Y138000D03*
D22*
X97900Y248000D03*
X174100Y248000D03*
X97900Y191500D03*
X174100Y191500D03*
X97900Y219500D03*
X174100Y219500D03*
D23*
X248412Y246888D03*
M02*
