M48
;GenerationSoftware,Autodesk,EAGLE,9.6.2*%
;CreationDate,2024-05-10T17:43:31Z*%
FMAT,2
ICI,OFF
METRIC,TZ,000.000
T5C0.350
T4C0.813
T3C1.000
T2C1.300
T1C1.500
%
G90
M71
T1
X36890Y6310
T2
X27640Y16780
X46690Y3810
X46690Y8810
X4850Y70950
X27710Y45240
X34170Y70850
X29170Y70850
X49110Y70870
X44110Y70870
X27710Y35240
X27710Y40240
X27640Y21780
X27640Y26780
X19850Y70950
X14850Y70950
X9850Y70950
T3
X4540Y47000
X2000Y47000
X4540Y49540
X4540Y3820
X2000Y3820
X4540Y6360
X2000Y6360
X4540Y8900
X2000Y8900
X4540Y11440
X2000Y11440
X2000Y34300
X2000Y13980
X4540Y16520
X2000Y16520
X4540Y19060
X2000Y19060
X4540Y21600
X2000Y21600
X4540Y24140
X2000Y24140
X4540Y26680
X2000Y26680
X4540Y29220
X2000Y29220
X4540Y13980
X4540Y31760
X4540Y34300
X4540Y36840
X2000Y36840
X4540Y39380
X2000Y39380
X4540Y52080
X2000Y49540
X4540Y41920
X2000Y41920
X2000Y31760
X4540Y44460
X2000Y44460
X2000Y52080
T4
X9710Y54650
X17330Y41950
X17330Y44490
X17330Y57190
X17330Y59730
X17330Y47030
X24950Y51540
X24950Y59160
X29230Y51550
X29230Y59170
X17330Y49570
X17330Y54650
X17330Y52110
X9710Y59730
X9710Y57190
X9710Y52110
X9710Y49570
X9710Y47030
X9710Y44490
X9710Y41950
X17360Y16450
X9740Y16450
X29400Y10260
X29400Y2640
X32550Y10260
X32550Y2640
X23150Y10260
X23150Y2640
X26350Y10260
X26350Y2640
X17410Y27650
X9790Y27650
X9890Y2740
X12430Y2740
X12430Y10360
X9890Y10360
X14970Y2740
X17510Y2740
X14970Y10360
X17510Y10360
X9690Y30840
X12230Y30840
X12230Y38460
X9690Y38460
X14770Y30840
X17310Y30840
X14770Y38460
X17310Y38460
X17310Y13800
X9690Y13800
X9790Y24800
X17410Y24800
X9790Y19150
X17410Y19150
X9790Y21950
X17410Y21950
T5
X24841Y24689
M30